<mxfile host="app.diagrams.net" modified="2023-12-13T20:09:40.952Z" agent="Mozilla/5.0 (Windows NT 10.0; Win64; x64) AppleWebKit/537.36 (KHTML, like Gecko) Chrome/120.0.0.0 Safari/537.36" etag="owpKCNvj1W862diylWQa" version="22.1.8" type="device">
  <diagram name="A3 Форма 1" id="4UMWuW4LYQygtjcPz86S">
    <mxGraphModel dx="1846" dy="1164" grid="1" gridSize="3.937" guides="1" tooltips="1" connect="1" arrows="1" fold="1" page="1" pageScale="1" pageWidth="1169" pageHeight="827" background="none" math="0" shadow="0">
      <root>
        <object label="" BlueprintName="Устройство для проверки целостности данных на диске" ProductName="Схема электрическая функциональная" Material="Материал" Manufacturer="&lt;font style=&quot;font-size: 16px;&quot;&gt;МГТУ им Н.Э. Баумана&lt;br&gt;Группа ИУ6-74Б&lt;/font&gt;" Designer="Коптелев К.А." Checker="Трамов И.Б." Approver="Фамилия И.О." Date="31.12.21" Scale="1:1" id="-3bvXb9xsOaprucixAK7-0">
          <mxCell />
        </object>
        <mxCell id="-3bvXb9xsOaprucixAK7-1" parent="-3bvXb9xsOaprucixAK7-0" />
        <mxCell id="-3bvXb9xsOaprucixAK7-2" value="" style="rounded=0;whiteSpace=wrap;html=1;fillColor=none;strokeWidth=1;strokeColor=#000000;fontStyle=2;movable=0;resizable=0;rotatable=0;deletable=0;editable=0;locked=1;connectable=0;" parent="-3bvXb9xsOaprucixAK7-1" vertex="1">
          <mxGeometry x="-449.5699999999997" y="-335.00000000000006" width="1618.58" height="1162" as="geometry" />
        </mxCell>
        <mxCell id="-3bvXb9xsOaprucixAK7-3" value="" style="rounded=0;whiteSpace=wrap;html=1;strokeWidth=1;fillColor=none;strokeColor=#000000;fontStyle=2;movable=0;resizable=0;rotatable=0;deletable=0;editable=0;locked=1;connectable=0;" parent="-3bvXb9xsOaprucixAK7-1" vertex="1">
          <mxGeometry x="-367.5099999999997" y="-309.28000000000003" width="1513" height="1115" as="geometry" />
        </mxCell>
        <mxCell id="-3bvXb9xsOaprucixAK7-5" value="" style="rounded=0;whiteSpace=wrap;html=1;strokeWidth=1;fillColor=none;fontFamily=GOSTRUS Type A;strokeColor=#000000;fontStyle=2" parent="-3bvXb9xsOaprucixAK7-1" vertex="1">
          <mxGeometry x="417.5100000000022" y="589.1970000000001" width="728.3449999999999" height="216.535" as="geometry" />
        </mxCell>
        <mxCell id="-3bvXb9xsOaprucixAK7-6" value="" style="rounded=0;whiteSpace=wrap;html=1;strokeWidth=1;fillColor=none;fontFamily=GOSTRUS Type A;fontSize=14;strokeColor=#000000;fontStyle=2" parent="-3bvXb9xsOaprucixAK7-1" vertex="1">
          <mxGeometry x="417.5200000000022" y="589.1970000000001" width="27.558999999999997" height="19.685" as="geometry" />
        </mxCell>
        <mxCell id="-3bvXb9xsOaprucixAK7-7" value="" style="rounded=0;whiteSpace=wrap;html=1;strokeWidth=1;fillColor=none;fontFamily=GOSTRUS Type A;fontSize=14;strokeColor=#000000;fontStyle=2" parent="-3bvXb9xsOaprucixAK7-1" vertex="1">
          <mxGeometry x="417.51700000000227" y="608.8840000000001" width="27.558999999999997" height="19.685" as="geometry" />
        </mxCell>
        <mxCell id="-3bvXb9xsOaprucixAK7-8" value="" style="rounded=0;whiteSpace=wrap;html=1;strokeWidth=1;fillColor=none;fontFamily=GOSTRUS Type A;fontSize=14;strokeColor=#000000;fontStyle=2" parent="-3bvXb9xsOaprucixAK7-1" vertex="1">
          <mxGeometry x="417.52700000000226" y="628.5640000000001" width="27.558999999999997" height="19.685" as="geometry" />
        </mxCell>
        <mxCell id="-3bvXb9xsOaprucixAK7-9" value="" style="rounded=0;whiteSpace=wrap;html=1;strokeWidth=1;fillColor=none;fontFamily=GOSTRUS Type A;fontSize=14;strokeColor=#000000;fontStyle=2" parent="-3bvXb9xsOaprucixAK7-1" vertex="1">
          <mxGeometry x="417.5240000000022" y="648.2510000000002" width="27.558999999999997" height="19.685" as="geometry" />
        </mxCell>
        <mxCell id="-3bvXb9xsOaprucixAK7-10" value="Изм" style="rounded=0;whiteSpace=wrap;html=1;strokeWidth=1;fillColor=none;fontFamily=GOSTRUS Type A;fontStyle=2;fontSize=14;strokeColor=#000000;" parent="-3bvXb9xsOaprucixAK7-1" vertex="1">
          <mxGeometry x="417.5210000000023" y="667.9380000000001" width="27.558999999999997" height="19.685" as="geometry" />
        </mxCell>
        <mxCell id="-3bvXb9xsOaprucixAK7-11" value="" style="rounded=0;whiteSpace=wrap;html=1;strokeWidth=1;fillColor=none;fontFamily=GOSTRUS Type A;fontSize=14;strokeColor=#000000;fontStyle=2" parent="-3bvXb9xsOaprucixAK7-1" vertex="1">
          <mxGeometry x="445.0870000000023" y="589.1940000000001" width="39.37" height="19.685" as="geometry" />
        </mxCell>
        <mxCell id="-3bvXb9xsOaprucixAK7-12" value="" style="rounded=0;whiteSpace=wrap;html=1;strokeWidth=1;fillColor=none;fontFamily=GOSTRUS Type A;fontSize=14;strokeColor=#000000;fontStyle=2" parent="-3bvXb9xsOaprucixAK7-1" vertex="1">
          <mxGeometry x="445.0840000000024" y="608.8810000000001" width="39.37" height="19.685" as="geometry" />
        </mxCell>
        <mxCell id="-3bvXb9xsOaprucixAK7-13" value="" style="rounded=0;whiteSpace=wrap;html=1;strokeWidth=1;fillColor=none;fontFamily=GOSTRUS Type A;fontSize=14;strokeColor=#000000;fontStyle=2" parent="-3bvXb9xsOaprucixAK7-1" vertex="1">
          <mxGeometry x="445.0940000000024" y="628.561" width="39.37" height="19.685" as="geometry" />
        </mxCell>
        <mxCell id="-3bvXb9xsOaprucixAK7-14" value="" style="rounded=0;whiteSpace=wrap;html=1;strokeWidth=1;fillColor=none;fontFamily=GOSTRUS Type A;fontSize=14;strokeColor=#000000;fontStyle=2" parent="-3bvXb9xsOaprucixAK7-1" vertex="1">
          <mxGeometry x="445.09100000000234" y="648.2480000000002" width="39.37" height="19.685" as="geometry" />
        </mxCell>
        <mxCell id="-3bvXb9xsOaprucixAK7-15" value="Лист" style="rounded=0;whiteSpace=wrap;html=1;strokeWidth=1;fillColor=none;fontFamily=GOSTRUS Type A;fontStyle=2;fontSize=14;strokeColor=#000000;" parent="-3bvXb9xsOaprucixAK7-1" vertex="1">
          <mxGeometry x="445.0880000000024" y="667.9350000000001" width="39.37" height="19.685" as="geometry" />
        </mxCell>
        <mxCell id="-3bvXb9xsOaprucixAK7-16" value="" style="rounded=0;whiteSpace=wrap;html=1;strokeWidth=1;fillColor=none;fontFamily=GOSTRUS Type A;fontSize=14;strokeColor=#000000;fontStyle=2" parent="-3bvXb9xsOaprucixAK7-1" vertex="1">
          <mxGeometry x="484.4640000000024" y="589.2010000000001" width="90.551" height="19.685" as="geometry" />
        </mxCell>
        <mxCell id="-3bvXb9xsOaprucixAK7-17" value="" style="rounded=0;whiteSpace=wrap;html=1;strokeWidth=1;fillColor=none;fontFamily=GOSTRUS Type A;fontSize=14;strokeColor=#000000;fontStyle=2" parent="-3bvXb9xsOaprucixAK7-1" vertex="1">
          <mxGeometry x="484.46100000000246" y="608.8880000000001" width="90.551" height="19.685" as="geometry" />
        </mxCell>
        <mxCell id="-3bvXb9xsOaprucixAK7-18" value="" style="rounded=0;whiteSpace=wrap;html=1;strokeWidth=1;fillColor=none;fontFamily=GOSTRUS Type A;fontSize=14;strokeColor=#000000;fontStyle=2" parent="-3bvXb9xsOaprucixAK7-1" vertex="1">
          <mxGeometry x="484.47100000000245" y="628.5680000000001" width="90.551" height="19.685" as="geometry" />
        </mxCell>
        <mxCell id="-3bvXb9xsOaprucixAK7-19" value="" style="rounded=0;whiteSpace=wrap;html=1;strokeWidth=1;fillColor=none;fontFamily=GOSTRUS Type A;fontSize=14;strokeColor=#000000;fontStyle=2" parent="-3bvXb9xsOaprucixAK7-1" vertex="1">
          <mxGeometry x="484.4680000000023" y="648.2550000000002" width="90.551" height="19.685" as="geometry" />
        </mxCell>
        <mxCell id="-3bvXb9xsOaprucixAK7-20" value="№ докум." style="rounded=0;whiteSpace=wrap;html=1;strokeWidth=1;fillColor=none;fontFamily=GOSTRUS Type A;fontStyle=2;fontSize=14;strokeColor=#000000;" parent="-3bvXb9xsOaprucixAK7-1" vertex="1">
          <mxGeometry x="484.46500000000236" y="667.9420000000001" width="90.551" height="19.685" as="geometry" />
        </mxCell>
        <mxCell id="-3bvXb9xsOaprucixAK7-21" value="" style="rounded=0;whiteSpace=wrap;html=1;strokeWidth=1;fillColor=none;fontFamily=GOSTRUS Type A;fontSize=14;strokeColor=#000000;fontStyle=2" parent="-3bvXb9xsOaprucixAK7-1" vertex="1">
          <mxGeometry x="575.0210000000013" y="589.1980000000001" width="59.055" height="19.685" as="geometry" />
        </mxCell>
        <mxCell id="-3bvXb9xsOaprucixAK7-22" value="" style="rounded=0;whiteSpace=wrap;html=1;strokeWidth=1;fillColor=none;fontFamily=GOSTRUS Type A;fontSize=14;strokeColor=#000000;fontStyle=2" parent="-3bvXb9xsOaprucixAK7-1" vertex="1">
          <mxGeometry x="575.0180000000014" y="608.8850000000001" width="59.055" height="19.685" as="geometry" />
        </mxCell>
        <mxCell id="-3bvXb9xsOaprucixAK7-23" value="" style="rounded=0;whiteSpace=wrap;html=1;strokeWidth=1;fillColor=none;fontFamily=GOSTRUS Type A;fontSize=14;strokeColor=#000000;fontStyle=2" parent="-3bvXb9xsOaprucixAK7-1" vertex="1">
          <mxGeometry x="575.0280000000014" y="628.565" width="59.055" height="19.685" as="geometry" />
        </mxCell>
        <mxCell id="-3bvXb9xsOaprucixAK7-24" value="" style="rounded=0;whiteSpace=wrap;html=1;strokeWidth=1;fillColor=none;fontFamily=GOSTRUS Type A;fontSize=14;strokeColor=#000000;fontStyle=2" parent="-3bvXb9xsOaprucixAK7-1" vertex="1">
          <mxGeometry x="575.0250000000015" y="648.2520000000002" width="59.055" height="19.685" as="geometry" />
        </mxCell>
        <mxCell id="-3bvXb9xsOaprucixAK7-25" value="Подп." style="rounded=0;whiteSpace=wrap;html=1;strokeWidth=1;fillColor=none;fontFamily=GOSTRUS Type A;fontStyle=2;fontSize=14;strokeColor=#000000;" parent="-3bvXb9xsOaprucixAK7-1" vertex="1">
          <mxGeometry x="575.0220000000015" y="667.9390000000001" width="59.055" height="19.685" as="geometry" />
        </mxCell>
        <mxCell id="-3bvXb9xsOaprucixAK7-26" value="" style="rounded=0;whiteSpace=wrap;html=1;strokeWidth=1;fillColor=none;fontFamily=GOSTRUS Type A;fontSize=14;strokeColor=#000000;fontStyle=2" parent="-3bvXb9xsOaprucixAK7-1" vertex="1">
          <mxGeometry x="575.0280000000014" y="687.615" width="59.055" height="19.685" as="geometry" />
        </mxCell>
        <mxCell id="-3bvXb9xsOaprucixAK7-27" value="" style="rounded=0;whiteSpace=wrap;html=1;strokeWidth=1;fillColor=none;fontFamily=GOSTRUS Type A;fontSize=14;strokeColor=#000000;fontStyle=2" parent="-3bvXb9xsOaprucixAK7-1" vertex="1">
          <mxGeometry x="575.0250000000015" y="707.3020000000001" width="59.055" height="19.685" as="geometry" />
        </mxCell>
        <mxCell id="-3bvXb9xsOaprucixAK7-28" value="" style="rounded=0;whiteSpace=wrap;html=1;strokeWidth=1;fillColor=none;fontFamily=GOSTRUS Type A;fontSize=14;strokeColor=#000000;fontStyle=2" parent="-3bvXb9xsOaprucixAK7-1" vertex="1">
          <mxGeometry x="575.0350000000014" y="726.982" width="59.055" height="19.685" as="geometry" />
        </mxCell>
        <mxCell id="-3bvXb9xsOaprucixAK7-29" value="" style="rounded=0;whiteSpace=wrap;html=1;strokeWidth=1;fillColor=none;fontFamily=GOSTRUS Type A;fontSize=14;strokeColor=#000000;fontStyle=2" parent="-3bvXb9xsOaprucixAK7-1" vertex="1">
          <mxGeometry x="575.0320000000015" y="746.6690000000001" width="59.055" height="19.685" as="geometry" />
        </mxCell>
        <mxCell id="-3bvXb9xsOaprucixAK7-30" value="" style="rounded=0;whiteSpace=wrap;html=1;strokeWidth=1;fillColor=none;fontFamily=GOSTRUS Type A;fontSize=14;strokeColor=#000000;fontStyle=2" parent="-3bvXb9xsOaprucixAK7-1" vertex="1">
          <mxGeometry x="575.0290000000014" y="766.356" width="59.055" height="19.685" as="geometry" />
        </mxCell>
        <mxCell id="-3bvXb9xsOaprucixAK7-31" value="" style="rounded=0;whiteSpace=wrap;html=1;strokeWidth=1;fillColor=none;fontFamily=GOSTRUS Type A;fontSize=14;strokeColor=#000000;fontStyle=2" parent="-3bvXb9xsOaprucixAK7-1" vertex="1">
          <mxGeometry x="634.0949999999998" y="589.2019999999999" width="39.37" height="19.685" as="geometry" />
        </mxCell>
        <mxCell id="-3bvXb9xsOaprucixAK7-32" value="" style="rounded=0;whiteSpace=wrap;html=1;strokeWidth=1;fillColor=none;fontFamily=GOSTRUS Type A;fontSize=14;strokeColor=#000000;fontStyle=2" parent="-3bvXb9xsOaprucixAK7-1" vertex="1">
          <mxGeometry x="634.0919999999996" y="608.889" width="39.37" height="19.685" as="geometry" />
        </mxCell>
        <mxCell id="-3bvXb9xsOaprucixAK7-33" value="" style="rounded=0;whiteSpace=wrap;html=1;strokeWidth=1;fillColor=none;fontFamily=GOSTRUS Type A;fontSize=14;strokeColor=#000000;fontStyle=2" parent="-3bvXb9xsOaprucixAK7-1" vertex="1">
          <mxGeometry x="634.1019999999996" y="628.5689999999998" width="39.37" height="19.685" as="geometry" />
        </mxCell>
        <mxCell id="-3bvXb9xsOaprucixAK7-34" value="" style="rounded=0;whiteSpace=wrap;html=1;strokeWidth=1;fillColor=none;fontFamily=GOSTRUS Type A;fontSize=14;strokeColor=#000000;fontStyle=2" parent="-3bvXb9xsOaprucixAK7-1" vertex="1">
          <mxGeometry x="634.0989999999997" y="648.256" width="39.37" height="19.685" as="geometry" />
        </mxCell>
        <mxCell id="-3bvXb9xsOaprucixAK7-35" value="Дата" style="rounded=0;whiteSpace=wrap;html=1;strokeWidth=1;fillColor=none;fontFamily=GOSTRUS Type A;fontStyle=2;fontSize=14;strokeColor=#000000;" parent="-3bvXb9xsOaprucixAK7-1" vertex="1">
          <mxGeometry x="634.0959999999998" y="667.9429999999999" width="39.37" height="19.685" as="geometry" />
        </mxCell>
        <mxCell id="-3bvXb9xsOaprucixAK7-38" value="" style="rounded=0;whiteSpace=wrap;html=1;strokeWidth=1;fillColor=none;fontFamily=GOSTRUS Type A;fontSize=12;strokeColor=#000000;fontStyle=2" parent="-3bvXb9xsOaprucixAK7-1" vertex="1">
          <mxGeometry x="634.1089999999997" y="726.9759999999999" width="39.37" height="19.685" as="geometry" />
        </mxCell>
        <mxCell id="-3bvXb9xsOaprucixAK7-39" value="" style="rounded=0;whiteSpace=wrap;html=1;strokeWidth=1;fillColor=none;fontFamily=GOSTRUS Type A;fontSize=12;strokeColor=#000000;fontStyle=2" parent="-3bvXb9xsOaprucixAK7-1" vertex="1">
          <mxGeometry x="634.1059999999998" y="746.663" width="39.37" height="19.685" as="geometry" />
        </mxCell>
        <mxCell id="-3bvXb9xsOaprucixAK7-40" value="" style="rounded=0;whiteSpace=wrap;html=1;strokeWidth=1;fillColor=none;fontFamily=GOSTRUS Type A;fontSize=12;strokeColor=#000000;fontStyle=2" parent="-3bvXb9xsOaprucixAK7-1" vertex="1">
          <mxGeometry x="634.1029999999998" y="766.3499999999999" width="39.37" height="19.685" as="geometry" />
        </mxCell>
        <mxCell id="-3bvXb9xsOaprucixAK7-42" value="" style="rounded=0;whiteSpace=wrap;html=1;strokeWidth=1;fillColor=none;fontFamily=GOSTRUS Type A;fontSize=14;strokeColor=#000000;fontStyle=2" parent="-3bvXb9xsOaprucixAK7-1" vertex="1">
          <mxGeometry x="575.0560000000014" y="786.0529999999999" width="59.055" height="19.685" as="geometry" />
        </mxCell>
        <mxCell id="-3bvXb9xsOaprucixAK7-43" value="Разраб." style="rounded=0;whiteSpace=wrap;html=1;strokeWidth=1;fillColor=none;fontFamily=GOSTRUS Type A;fontStyle=2;fontSize=14;strokeColor=#000000;" parent="-3bvXb9xsOaprucixAK7-1" vertex="1">
          <mxGeometry x="417.5450000000023" y="687.6120000000001" width="66.929" height="19.685" as="geometry" />
        </mxCell>
        <mxCell id="-3bvXb9xsOaprucixAK7-44" value="Проверил" style="rounded=0;whiteSpace=wrap;html=1;strokeWidth=1;fillColor=none;fontFamily=GOSTRUS Type A;fontStyle=2;fontSize=14;strokeColor=#000000;" parent="-3bvXb9xsOaprucixAK7-1" vertex="1">
          <mxGeometry x="417.5120000000023" y="707.299" width="66.929" height="19.685" as="geometry" />
        </mxCell>
        <mxCell id="-3bvXb9xsOaprucixAK7-45" value="Т. контр." style="rounded=0;whiteSpace=wrap;html=1;strokeWidth=1;fillColor=none;fontFamily=GOSTRUS Type A;fontStyle=2;fontSize=14;strokeColor=#000000;" parent="-3bvXb9xsOaprucixAK7-1" vertex="1">
          <mxGeometry x="417.50900000000223" y="726.9859999999999" width="66.929" height="19.685" as="geometry" />
        </mxCell>
        <mxCell id="-3bvXb9xsOaprucixAK7-46" value="" style="rounded=0;whiteSpace=wrap;html=1;strokeWidth=1;fillColor=none;fontFamily=GOSTRUS Type A;fontStyle=2;fontSize=14;strokeColor=#000000;" parent="-3bvXb9xsOaprucixAK7-1" vertex="1">
          <mxGeometry x="417.54600000000227" y="746.6729999999998" width="66.929" height="19.685" as="geometry" />
        </mxCell>
        <mxCell id="-3bvXb9xsOaprucixAK7-47" value="Н. контр." style="rounded=0;whiteSpace=wrap;html=1;strokeWidth=1;fillColor=none;fontFamily=GOSTRUS Type A;fontStyle=2;fontSize=14;strokeColor=#000000;" parent="-3bvXb9xsOaprucixAK7-1" vertex="1">
          <mxGeometry x="417.5430000000022" y="766.3699999999997" width="66.929" height="19.685" as="geometry" />
        </mxCell>
        <mxCell id="-3bvXb9xsOaprucixAK7-48" value="Утв." style="rounded=0;whiteSpace=wrap;html=1;strokeWidth=1;fillColor=none;fontFamily=GOSTRUS Type A;fontStyle=2;fontSize=14;strokeColor=#000000;" parent="-3bvXb9xsOaprucixAK7-1" vertex="1">
          <mxGeometry x="417.5500000000023" y="786.0569999999996" width="66.929" height="19.685" as="geometry" />
        </mxCell>
        <object placeholders="1" placeholder="Designer" label="Коптелев К.А." id="-3bvXb9xsOaprucixAK7-49">
          <mxCell style="rounded=0;whiteSpace=wrap;html=1;strokeWidth=1;fillColor=none;fontFamily=GOSTRUS Type A;fontSize=14;strokeColor=#000000;fontStyle=2;align=left;" parent="-3bvXb9xsOaprucixAK7-1" vertex="1">
            <mxGeometry x="484.5020000000024" y="687.6290000000001" width="90.551" height="19.685" as="geometry" />
          </mxCell>
        </object>
        <mxCell id="-3bvXb9xsOaprucixAK7-50" value="" style="rounded=0;whiteSpace=wrap;html=1;strokeWidth=1;fillColor=none;fontFamily=GOSTRUS Type A;fontSize=14;strokeColor=#000000;fontStyle=2" parent="-3bvXb9xsOaprucixAK7-1" vertex="1">
          <mxGeometry x="484.4590000000025" y="746.6859999999999" width="90.551" height="19.685" as="geometry" />
        </mxCell>
        <mxCell id="-3bvXb9xsOaprucixAK7-51" value="" style="rounded=0;whiteSpace=wrap;html=1;strokeWidth=1;fillColor=none;fontFamily=GOSTRUS Type A;fontSize=14;strokeColor=#000000;fontStyle=2" parent="-3bvXb9xsOaprucixAK7-1" vertex="1">
          <mxGeometry x="484.42200000000247" y="726.999" width="90.551" height="19.685" as="geometry" />
        </mxCell>
        <object placeholders="1" placeholder="Checker" label="Трамов И.Б." id="-3bvXb9xsOaprucixAK7-52">
          <mxCell style="rounded=0;whiteSpace=wrap;html=1;strokeWidth=1;fillColor=none;fontFamily=GOSTRUS Type A;fontSize=14;strokeColor=#000000;fontStyle=2;align=left;" parent="-3bvXb9xsOaprucixAK7-1" vertex="1">
            <mxGeometry x="484.4250000000024" y="707.3120000000001" width="90.551" height="19.685" as="geometry" />
          </mxCell>
        </object>
        <mxCell id="-3bvXb9xsOaprucixAK7-54" value="" style="rounded=0;whiteSpace=wrap;html=1;strokeWidth=1;fillColor=none;fontFamily=GOSTRUS Type A;fontSize=14;strokeColor=#000000;fontStyle=2" parent="-3bvXb9xsOaprucixAK7-1" vertex="1">
          <mxGeometry x="484.49900000000247" y="766.346" width="90.551" height="19.685" as="geometry" />
        </mxCell>
        <object placeholders="1" placeholder="BlueprintName" label="Устройство для проверки целостности данных на диске" id="-3bvXb9xsOaprucixAK7-55">
          <mxCell style="rounded=0;whiteSpace=wrap;html=1;strokeWidth=1;fillColor=none;fontFamily=GOSTRUS Type A;fontSize=28;strokeColor=#000000;fontStyle=2" parent="-3bvXb9xsOaprucixAK7-1" vertex="1">
            <mxGeometry x="673.4779999999985" y="589.2050000000002" width="472.44" height="59.055" as="geometry" />
          </mxCell>
        </object>
        <object placeholders="1" placeholder="ProductName" label="Схема электрическая функциональная" id="-3bvXb9xsOaprucixAK7-56">
          <mxCell style="rounded=0;whiteSpace=wrap;html=1;strokeWidth=1;fillColor=none;fontFamily=GOSTRUS Type A;fontSize=24;strokeColor=#000000;fontStyle=2" parent="-3bvXb9xsOaprucixAK7-1" vertex="1">
            <mxGeometry x="673.4749999999985" y="648.2320000000002" width="275.59" height="98.425" as="geometry" />
          </mxCell>
        </object>
        <object placeholders="1" placeholder="Manufacturer" label="&lt;font style=&quot;font-size: 16px;&quot;&gt;МГТУ им Н.Э. Баумана&lt;br&gt;Группа ИУ6-74Б&lt;/font&gt;" id="-3bvXb9xsOaprucixAK7-58">
          <mxCell style="rounded=0;whiteSpace=wrap;html=1;strokeWidth=1;fillColor=none;fontFamily=GOSTRUS Type A;fontSize=24;strokeColor=#000000;fontStyle=2" parent="-3bvXb9xsOaprucixAK7-1" vertex="1">
            <mxGeometry x="949.0689999999906" y="746.6859999999999" width="196.85" height="59.055" as="geometry" />
          </mxCell>
        </object>
        <object label="Лист 1" placeholders="1" id="-3bvXb9xsOaprucixAK7-59">
          <mxCell style="rounded=0;whiteSpace=wrap;html=1;strokeWidth=1;fillColor=none;fontFamily=GOSTRUS Type A;fontStyle=2;fontSize=14;strokeColor=#000000;" parent="-3bvXb9xsOaprucixAK7-1" vertex="1">
            <mxGeometry x="949.0659999999907" y="726.9629999999997" width="78.74" height="19.685" as="geometry" />
          </mxCell>
        </object>
        <mxCell id="-3bvXb9xsOaprucixAK7-60" value="Листов 1" style="rounded=0;whiteSpace=wrap;html=1;strokeWidth=1;fillColor=none;fontFamily=GOSTRUS Type A;fontStyle=2;fontSize=14;strokeColor=#000000;" parent="-3bvXb9xsOaprucixAK7-1" vertex="1">
          <mxGeometry x="1027.7429999999883" y="726.9999999999995" width="118.11" height="19.685" as="geometry" />
        </mxCell>
        <mxCell id="-3bvXb9xsOaprucixAK7-61" value="Масштаб" style="rounded=0;whiteSpace=wrap;html=1;strokeWidth=1;fillColor=none;fontFamily=GOSTRUS Type A;fontStyle=2;fontSize=14;strokeColor=#000000;" parent="-3bvXb9xsOaprucixAK7-1" vertex="1">
          <mxGeometry x="1075.049999999987" y="648.2369999999994" width="70.866" height="19.685" as="geometry" />
        </mxCell>
        <mxCell id="-3bvXb9xsOaprucixAK7-62" value="Масса" style="rounded=0;whiteSpace=wrap;html=1;strokeWidth=1;fillColor=none;fontFamily=GOSTRUS Type A;fontStyle=2;fontSize=14;strokeColor=#000000;" parent="-3bvXb9xsOaprucixAK7-1" vertex="1">
          <mxGeometry x="1008.116999999989" y="648.2639999999994" width="66.929" height="19.685" as="geometry" />
        </mxCell>
        <mxCell id="-3bvXb9xsOaprucixAK7-63" value="Лит." style="rounded=0;whiteSpace=wrap;html=1;strokeWidth=1;fillColor=none;fontFamily=GOSTRUS Type A;fontStyle=2;fontSize=14;strokeColor=#000000;" parent="-3bvXb9xsOaprucixAK7-1" vertex="1">
          <mxGeometry x="949.0639999999908" y="648.2309999999994" width="59.055" height="19.685" as="geometry" />
        </mxCell>
        <mxCell id="-3bvXb9xsOaprucixAK7-64" value="" style="rounded=0;whiteSpace=wrap;html=1;strokeWidth=1;fillColor=none;fontFamily=GOSTRUS Type A;strokeColor=#000000;fontStyle=2" parent="-3bvXb9xsOaprucixAK7-1" vertex="1">
          <mxGeometry x="949.0309999999906" y="667.9479999999994" width="59.055" height="59.055" as="geometry" />
        </mxCell>
        <mxCell id="-3bvXb9xsOaprucixAK7-65" value="" style="rounded=0;whiteSpace=wrap;html=1;strokeWidth=1;fillColor=none;fontFamily=GOSTRUS Type A;strokeColor=#000000;fontStyle=2" parent="-3bvXb9xsOaprucixAK7-1" vertex="1">
          <mxGeometry x="1008.1239999999891" y="667.9109999999995" width="66.929" height="59.055" as="geometry" />
        </mxCell>
        <object placeholders="1" placeholder="Scale" id="-3bvXb9xsOaprucixAK7-66">
          <mxCell style="rounded=0;whiteSpace=wrap;html=1;strokeWidth=1;fillColor=none;fontFamily=GOSTRUS Type A;fontSize=18;strokeColor=#000000;fontStyle=2" parent="-3bvXb9xsOaprucixAK7-1" vertex="1">
            <mxGeometry x="1074.9869999999871" y="667.9139999999994" width="70.866" height="59.055" as="geometry" />
          </mxCell>
        </object>
        <mxCell id="-3bvXb9xsOaprucixAK7-67" value="" style="rounded=0;whiteSpace=wrap;html=1;strokeWidth=1;fillColor=none;fontFamily=GOSTRUS Type A;strokeColor=#000000;fontStyle=2" parent="-3bvXb9xsOaprucixAK7-1" vertex="1">
          <mxGeometry x="949.0679999999907" y="667.9049999999994" width="19.685" height="59.055" as="geometry" />
        </mxCell>
        <mxCell id="-3bvXb9xsOaprucixAK7-68" value="" style="rounded=0;whiteSpace=wrap;html=1;strokeWidth=1;fillColor=none;fontFamily=GOSTRUS Type A;strokeColor=#000000;fontStyle=2" parent="-3bvXb9xsOaprucixAK7-1" vertex="1">
          <mxGeometry x="968.7149999999901" y="667.9519999999994" width="19.685" height="59.055" as="geometry" />
        </mxCell>
        <mxCell id="-3bvXb9xsOaprucixAK7-69" value="" style="rounded=0;whiteSpace=wrap;html=1;strokeWidth=1;fillColor=none;fontFamily=GOSTRUS Type A;strokeColor=#000000;fontStyle=2" parent="-3bvXb9xsOaprucixAK7-1" vertex="1">
          <mxGeometry x="988.4419999999895" y="667.9489999999994" width="19.685" height="59.055" as="geometry" />
        </mxCell>
        <mxCell id="-3bvXb9xsOaprucixAK7-70" value="Копировал" style="text;html=1;strokeColor=none;fillColor=none;align=center;verticalAlign=middle;whiteSpace=wrap;rounded=0;fontFamily=GOSTRUS Type A;fontSize=12;fontStyle=2" parent="-3bvXb9xsOaprucixAK7-1" vertex="1">
          <mxGeometry x="673.4429999999986" y="803.8400000000001" width="144.64" height="20" as="geometry" />
        </mxCell>
        <mxCell id="-3bvXb9xsOaprucixAK7-71" value="Формат А3" style="text;html=1;strokeColor=none;fillColor=none;align=center;verticalAlign=middle;whiteSpace=wrap;rounded=0;fontFamily=GOSTRUS Type A;fontSize=12;fontStyle=2" parent="-3bvXb9xsOaprucixAK7-1" vertex="1">
          <mxGeometry x="948.01" y="803.84" width="197.9" height="20" as="geometry" />
        </mxCell>
        <object placeholder="BlueprintName" placeholders="1" id="ooexdDU5yCNyj8Z1UGUE-0">
          <mxCell style="rounded=0;whiteSpace=wrap;html=1;strokeWidth=1;fillColor=none;strokeColor=#000000;fontFamily=GOSTRUS Type A;fontSize=24;rotation=-180;fontStyle=2" parent="-3bvXb9xsOaprucixAK7-1" vertex="1">
            <mxGeometry x="-366.9400000000001" y="-309.15999999999997" width="275.59" height="55.117999999999995" as="geometry" />
          </mxCell>
        </object>
        <mxCell id="ooexdDU5yCNyj8Z1UGUE-1" value="" style="rounded=0;whiteSpace=wrap;html=1;fillColor=none;rotation=-90;fontStyle=2" parent="-3bvXb9xsOaprucixAK7-1" vertex="1">
          <mxGeometry x="-467.3700000000002" y="-263.85" width="145.43" height="55" as="geometry" />
        </mxCell>
        <mxCell id="ooexdDU5yCNyj8Z1UGUE-2" value="Перв. примен." style="rounded=0;whiteSpace=wrap;html=1;fillColor=none;rotation=-90;fontStyle=2" parent="-3bvXb9xsOaprucixAK7-1" vertex="1">
          <mxGeometry x="-485.00000000000006" y="-246.23" width="145.43" height="20" as="geometry" />
        </mxCell>
        <mxCell id="ooexdDU5yCNyj8Z1UGUE-3" value="" style="rounded=0;whiteSpace=wrap;html=1;fillColor=none;rotation=-90;fontStyle=2" parent="-3bvXb9xsOaprucixAK7-1" vertex="1">
          <mxGeometry x="-457.03000000000003" y="-128.53" width="124.74" height="55" as="geometry" />
        </mxCell>
        <mxCell id="ooexdDU5yCNyj8Z1UGUE-4" value="Справ. №" style="rounded=0;whiteSpace=wrap;html=1;fillColor=none;rotation=-90;fontStyle=2" parent="-3bvXb9xsOaprucixAK7-1" vertex="1">
          <mxGeometry x="-474.7300000000001" y="-110.84" width="124.88" height="20" as="geometry" />
        </mxCell>
        <mxCell id="ooexdDU5yCNyj8Z1UGUE-5" value="" style="rounded=0;whiteSpace=wrap;html=1;fillColor=none;rotation=-90;fontStyle=2" parent="-3bvXb9xsOaprucixAK7-1" vertex="1">
          <mxGeometry x="-439.04000000000013" y="733.0600000000001" width="90" height="55" as="geometry" />
        </mxCell>
        <mxCell id="ooexdDU5yCNyj8Z1UGUE-6" value="Инв. № подл." style="rounded=0;whiteSpace=wrap;html=1;fillColor=none;rotation=-90;fontStyle=2" parent="-3bvXb9xsOaprucixAK7-1" vertex="1">
          <mxGeometry x="-456.68" y="750.5599999999998" width="90" height="20" as="geometry" />
        </mxCell>
        <mxCell id="ooexdDU5yCNyj8Z1UGUE-7" value="" style="rounded=0;whiteSpace=wrap;html=1;fillColor=none;rotation=-90;fontStyle=2" parent="-3bvXb9xsOaprucixAK7-1" vertex="1">
          <mxGeometry x="-438.8500000000001" y="642.73" width="90" height="55" as="geometry" />
        </mxCell>
        <mxCell id="ooexdDU5yCNyj8Z1UGUE-8" value="Подп. и дата" style="rounded=0;whiteSpace=wrap;html=1;fillColor=none;rotation=-90;fontStyle=2" parent="-3bvXb9xsOaprucixAK7-1" vertex="1">
          <mxGeometry x="-456.68" y="660.2299999999999" width="90" height="20" as="geometry" />
        </mxCell>
        <mxCell id="ooexdDU5yCNyj8Z1UGUE-9" value="" style="rounded=0;whiteSpace=wrap;html=1;fillColor=none;rotation=-90;fontStyle=2" parent="-3bvXb9xsOaprucixAK7-1" vertex="1">
          <mxGeometry x="-438.853" y="552.1770000000001" width="90" height="55" as="geometry" />
        </mxCell>
        <mxCell id="ooexdDU5yCNyj8Z1UGUE-10" value="Взам. инв. №" style="rounded=0;whiteSpace=wrap;html=1;fillColor=none;rotation=-90;fontStyle=2" parent="-3bvXb9xsOaprucixAK7-1" vertex="1">
          <mxGeometry x="-456.68300000000016" y="569.6769999999999" width="90" height="20" as="geometry" />
        </mxCell>
        <mxCell id="ooexdDU5yCNyj8Z1UGUE-11" value="" style="rounded=0;whiteSpace=wrap;html=1;fillColor=none;rotation=-90;fontStyle=2" parent="-3bvXb9xsOaprucixAK7-1" vertex="1">
          <mxGeometry x="-438.85600000000017" y="462.6340000000001" width="90" height="55" as="geometry" />
        </mxCell>
        <mxCell id="ooexdDU5yCNyj8Z1UGUE-12" value="Инв. № дубл." style="rounded=0;whiteSpace=wrap;html=1;fillColor=none;rotation=-90;fontStyle=2" parent="-3bvXb9xsOaprucixAK7-1" vertex="1">
          <mxGeometry x="-456.6860000000001" y="480.1339999999999" width="90" height="20" as="geometry" />
        </mxCell>
        <mxCell id="ooexdDU5yCNyj8Z1UGUE-13" value="" style="rounded=0;whiteSpace=wrap;html=1;fillColor=none;rotation=-90;fontStyle=2" parent="-3bvXb9xsOaprucixAK7-1" vertex="1">
          <mxGeometry x="-438.8590000000001" y="372.08100000000013" width="90" height="55" as="geometry" />
        </mxCell>
        <mxCell id="ooexdDU5yCNyj8Z1UGUE-14" value="Подп. и дата" style="rounded=0;whiteSpace=wrap;html=1;fillColor=none;rotation=-90;fontStyle=2" parent="-3bvXb9xsOaprucixAK7-1" vertex="1">
          <mxGeometry x="-456.689" y="389.5809999999999" width="90" height="20" as="geometry" />
        </mxCell>
        <mxCell id="EKMDH8cztS3GwZSEMy-4-337" value="" style="endArrow=none;html=1;rounded=0;fontStyle=2;edgeStyle=orthogonalEdgeStyle;" parent="-3bvXb9xsOaprucixAK7-1" edge="1">
          <mxGeometry width="50" height="50" relative="1" as="geometry">
            <mxPoint x="260.31" y="80.44" as="sourcePoint" />
            <mxPoint x="374" y="43" as="targetPoint" />
            <Array as="points">
              <mxPoint x="299" y="80" />
              <mxPoint x="299" y="43" />
              <mxPoint x="374" y="43" />
            </Array>
          </mxGeometry>
        </mxCell>
        <mxCell id="EKMDH8cztS3GwZSEMy-4-348" value="" style="ellipse;whiteSpace=wrap;html=1;aspect=fixed;fillColor=#000000;fontStyle=2" parent="-3bvXb9xsOaprucixAK7-1" vertex="1">
          <mxGeometry x="317.81" y="41.69" width="3" height="3" as="geometry" />
        </mxCell>
        <mxCell id="EKMDH8cztS3GwZSEMy-4-350" value="&lt;div style=&quot;text-align: center;&quot;&gt;&lt;font size=&quot;1&quot; face=&quot;GOSTRUS Type A&quot;&gt;&lt;span style=&quot;font-size: 16px;&quot;&gt;RESET&lt;/span&gt;&lt;/font&gt;&lt;/div&gt;" style="text;whiteSpace=wrap;html=1;fontStyle=2;fontSize=16;fontFamily=GOSTRUS Type A;verticalAlign=middle;" parent="-3bvXb9xsOaprucixAK7-1" vertex="1">
          <mxGeometry x="276.14" y="-39" width="35.08" height="15.75" as="geometry" />
        </mxCell>
        <mxCell id="EKMDH8cztS3GwZSEMy-4-353" value="" style="endArrow=none;html=1;rounded=0;fontStyle=2;edgeStyle=orthogonalEdgeStyle;" parent="-3bvXb9xsOaprucixAK7-1" edge="1">
          <mxGeometry width="50" height="50" relative="1" as="geometry">
            <mxPoint x="74.31" y="-61.81" as="sourcePoint" />
            <mxPoint x="296" y="-83" as="targetPoint" />
            <Array as="points">
              <mxPoint x="296" y="-62" />
              <mxPoint x="296" y="-79" />
            </Array>
          </mxGeometry>
        </mxCell>
        <mxCell id="EKMDH8cztS3GwZSEMy-4-354" value="" style="endArrow=none;html=1;rounded=0;fontStyle=2;edgeStyle=orthogonalEdgeStyle;" parent="-3bvXb9xsOaprucixAK7-1" edge="1">
          <mxGeometry width="50" height="50" relative="1" as="geometry">
            <mxPoint x="74.31" y="-85.81" as="sourcePoint" />
            <mxPoint x="272.5" y="-98" as="targetPoint" />
            <Array as="points">
              <mxPoint x="273" y="-86" />
            </Array>
          </mxGeometry>
        </mxCell>
        <mxCell id="EKMDH8cztS3GwZSEMy-4-356" value="" style="endArrow=open;html=1;rounded=0;endFill=0;fontStyle=2" parent="-3bvXb9xsOaprucixAK7-1" edge="1">
          <mxGeometry width="50" height="50" relative="1" as="geometry">
            <mxPoint x="260.307" y="-61.7" as="sourcePoint" />
            <mxPoint x="240.30700000000002" y="-61.7" as="targetPoint" />
          </mxGeometry>
        </mxCell>
        <mxCell id="EKMDH8cztS3GwZSEMy-4-357" value="" style="endArrow=open;html=1;rounded=0;endFill=0;fontStyle=2" parent="-3bvXb9xsOaprucixAK7-1" edge="1">
          <mxGeometry width="50" height="50" relative="1" as="geometry">
            <mxPoint x="261" y="-85.7" as="sourcePoint" />
            <mxPoint x="240.30400000000003" y="-85.7" as="targetPoint" />
          </mxGeometry>
        </mxCell>
        <mxCell id="EKMDH8cztS3GwZSEMy-4-359" value="" style="endArrow=none;html=1;rounded=0;entryX=1;entryY=0;entryDx=0;entryDy=0;exitX=0;exitY=1;exitDx=0;exitDy=0;fontStyle=2" parent="-3bvXb9xsOaprucixAK7-1" edge="1">
          <mxGeometry width="50" height="50" relative="1" as="geometry">
            <mxPoint x="59.31" y="-47.43900000000001" as="sourcePoint" />
            <mxPoint x="74.71100000000004" y="-61.81" as="targetPoint" />
          </mxGeometry>
        </mxCell>
        <mxCell id="EKMDH8cztS3GwZSEMy-4-360" value="" style="endArrow=none;html=1;rounded=0;entryX=1;entryY=0;entryDx=0;entryDy=0;exitX=0;exitY=1;exitDx=0;exitDy=0;fontStyle=2" parent="-3bvXb9xsOaprucixAK7-1" edge="1">
          <mxGeometry width="50" height="50" relative="1" as="geometry">
            <mxPoint x="59.31" y="-71.81" as="sourcePoint" />
            <mxPoint x="74.70800000000004" y="-85.81" as="targetPoint" />
          </mxGeometry>
        </mxCell>
        <mxCell id="EKMDH8cztS3GwZSEMy-4-361" value="&lt;div style=&quot;text-align: center; font-size: 16px;&quot;&gt;&lt;font style=&quot;font-size: 16px;&quot;&gt;&lt;span style=&quot;font-size: 16px;&quot;&gt;SWCLK&lt;/span&gt;&lt;/font&gt;&lt;/div&gt;" style="text;whiteSpace=wrap;html=1;fontStyle=2;verticalAlign=middle;fontFamily=GOSTRUS Type A;fontSize=16;" parent="-3bvXb9xsOaprucixAK7-1" vertex="1">
          <mxGeometry x="221.38" y="-81.94" width="41.52" height="18.41" as="geometry" />
        </mxCell>
        <mxCell id="EKMDH8cztS3GwZSEMy-4-362" value="&lt;div style=&quot;text-align: center;&quot;&gt;&lt;font face=&quot;GOSTRUS Type A&quot;&gt;&lt;span style=&quot;font-size: 16px;&quot;&gt;SWDIO&lt;/span&gt;&lt;/font&gt;&lt;/div&gt;" style="text;whiteSpace=wrap;html=1;fontStyle=2;fontSize=16;fontFamily=GOSTRUS Type A;verticalAlign=middle;" parent="-3bvXb9xsOaprucixAK7-1" vertex="1">
          <mxGeometry x="219.42" y="-106.29" width="36.49" height="18.27" as="geometry" />
        </mxCell>
        <mxCell id="EKMDH8cztS3GwZSEMy-4-363" value="&lt;div style=&quot;text-align: center;&quot;&gt;&lt;font face=&quot;GOSTRUS Type A&quot;&gt;&lt;span style=&quot;font-size: 16px;&quot;&gt;PA13&lt;/span&gt;&lt;/font&gt;&lt;/div&gt;" style="text;whiteSpace=wrap;html=1;fontStyle=2" parent="-3bvXb9xsOaprucixAK7-1" vertex="1">
          <mxGeometry x="75.05100000000002" y="-113.58900000000001" width="35.08" height="23.83" as="geometry" />
        </mxCell>
        <mxCell id="EKMDH8cztS3GwZSEMy-4-364" value="&lt;div style=&quot;text-align: center;&quot;&gt;&lt;font face=&quot;GOSTRUS Type A&quot;&gt;&lt;span style=&quot;font-size: 16px;&quot;&gt;PA14&lt;/span&gt;&lt;/font&gt;&lt;/div&gt;" style="text;whiteSpace=wrap;html=1;fontStyle=2" parent="-3bvXb9xsOaprucixAK7-1" vertex="1">
          <mxGeometry x="75.04800000000002" y="-89.76200000000001" width="35.08" height="23.83" as="geometry" />
        </mxCell>
        <mxCell id="EKMDH8cztS3GwZSEMy-4-671" value="" style="endArrow=open;html=1;rounded=0;endFill=0;fontStyle=2" parent="-3bvXb9xsOaprucixAK7-1" edge="1">
          <mxGeometry width="50" height="50" relative="1" as="geometry">
            <mxPoint x="-14.97599999999995" y="142" as="sourcePoint" />
            <mxPoint x="5.024000000000049" y="142" as="targetPoint" />
          </mxGeometry>
        </mxCell>
        <mxCell id="EKMDH8cztS3GwZSEMy-4-672" value="" style="endArrow=open;html=1;rounded=0;endFill=0;fontStyle=2" parent="-3bvXb9xsOaprucixAK7-1" edge="1">
          <mxGeometry width="50" height="50" relative="1" as="geometry">
            <mxPoint x="-23.058999999999813" y="117" as="sourcePoint" />
            <mxPoint x="-43.05899999999981" y="117" as="targetPoint" />
          </mxGeometry>
        </mxCell>
        <mxCell id="EKMDH8cztS3GwZSEMy-4-673" value="&lt;div style=&quot;text-align: center;&quot;&gt;&lt;font face=&quot;GOSTRUS Type A&quot;&gt;&lt;span style=&quot;font-size: 16px;&quot;&gt;RXD&lt;/span&gt;&lt;/font&gt;&lt;/div&gt;" style="text;whiteSpace=wrap;html=1;fontStyle=2;fontSize=16;fontFamily=GOSTRUS Type A;verticalAlign=middle;labelBackgroundColor=none;fontColor=default;" parent="-3bvXb9xsOaprucixAK7-1" vertex="1">
          <mxGeometry x="-46.99" y="94.49" width="27.31" height="19.95" as="geometry" />
        </mxCell>
        <mxCell id="EKMDH8cztS3GwZSEMy-4-674" value="&lt;div style=&quot;text-align: center;&quot;&gt;&lt;font face=&quot;GOSTRUS Type A&quot;&gt;&lt;span style=&quot;font-size: 16px;&quot;&gt;TXD&lt;/span&gt;&lt;/font&gt;&lt;/div&gt;" style="text;whiteSpace=wrap;html=1;fontStyle=2;fontSize=16;fontFamily=GOSTRUS Type A;verticalAlign=middle;labelBackgroundColor=none;" parent="-3bvXb9xsOaprucixAK7-1" vertex="1">
          <mxGeometry x="-11.56" y="120.6" width="27.31" height="15.81" as="geometry" />
        </mxCell>
        <mxCell id="EKMDH8cztS3GwZSEMy-4-684" value="" style="group" parent="-3bvXb9xsOaprucixAK7-1" vertex="1" connectable="0">
          <mxGeometry x="193.15700000000004" y="-302.14500000000004" width="130.27" height="84.11200000000002" as="geometry" />
        </mxCell>
        <mxCell id="EKMDH8cztS3GwZSEMy-4-675" value="" style="rounded=0;whiteSpace=wrap;html=1;" parent="EKMDH8cztS3GwZSEMy-4-684" vertex="1">
          <mxGeometry x="47.45299999999995" y="21.115000000000034" width="19.12" height="38.21" as="geometry" />
        </mxCell>
        <mxCell id="EKMDH8cztS3GwZSEMy-4-676" value="" style="shape=trapezoid;perimeter=trapezoidPerimeter;whiteSpace=wrap;html=1;fixedSize=1;rotation=-90;size=13.282000000000295;" parent="EKMDH8cztS3GwZSEMy-4-684" vertex="1">
          <mxGeometry x="43.30299999999995" y="29.24500000000003" width="64.69" height="21.94" as="geometry" />
        </mxCell>
        <mxCell id="EKMDH8cztS3GwZSEMy-4-678" value="&lt;div style=&quot;text-align: center;&quot;&gt;&lt;font face=&quot;GOSTRUS Type A&quot;&gt;&lt;span style=&quot;font-size: 16px;&quot;&gt;Звуковое устройтсво SPEAKER&lt;/span&gt;&lt;/font&gt;&lt;/div&gt;" style="text;whiteSpace=wrap;html=1;fontStyle=2;container=0;" parent="EKMDH8cztS3GwZSEMy-4-684" vertex="1">
          <mxGeometry y="62.48200000000002" width="130.27" height="31.5" as="geometry" />
        </mxCell>
        <mxCell id="EKMDH8cztS3GwZSEMy-4-686" value="" style="endArrow=none;html=1;rounded=0;fontStyle=2;" parent="-3bvXb9xsOaprucixAK7-1" edge="1">
          <mxGeometry width="50" height="50" relative="1" as="geometry">
            <mxPoint x="74.31" y="-262.13" as="sourcePoint" />
            <mxPoint x="240.31" y="-262.13" as="targetPoint" />
          </mxGeometry>
        </mxCell>
        <mxCell id="EKMDH8cztS3GwZSEMy-4-687" value="" style="endArrow=none;html=1;rounded=0;entryX=1;entryY=0;entryDx=0;entryDy=0;exitX=0;exitY=1;exitDx=0;exitDy=0;fontStyle=2" parent="-3bvXb9xsOaprucixAK7-1" edge="1">
          <mxGeometry width="50" height="50" relative="1" as="geometry">
            <mxPoint x="59.307" y="-247.983" as="sourcePoint" />
            <mxPoint x="74.70500000000004" y="-261.983" as="targetPoint" />
          </mxGeometry>
        </mxCell>
        <mxCell id="EKMDH8cztS3GwZSEMy-4-689" value="&lt;div style=&quot;text-align: center;&quot;&gt;&lt;font face=&quot;GOSTRUS Type A&quot;&gt;&lt;span style=&quot;font-size: 16px;&quot;&gt;PA15&lt;/span&gt;&lt;/font&gt;&lt;/div&gt;" style="text;whiteSpace=wrap;html=1;fontStyle=2" parent="-3bvXb9xsOaprucixAK7-1" vertex="1">
          <mxGeometry x="75.04800000000002" y="-289.762" width="35.08" height="23.83" as="geometry" />
        </mxCell>
        <mxCell id="EKMDH8cztS3GwZSEMy-4-692" value="" style="endArrow=open;html=1;rounded=0;endFill=0;fontStyle=2" parent="-3bvXb9xsOaprucixAK7-1" edge="1">
          <mxGeometry width="50" height="50" relative="1" as="geometry">
            <mxPoint x="173.15700000000012" y="-262.13" as="sourcePoint" />
            <mxPoint x="193.15700000000012" y="-262.13" as="targetPoint" />
          </mxGeometry>
        </mxCell>
        <mxCell id="EKMDH8cztS3GwZSEMy-4-693" value="&lt;div style=&quot;text-align: center; font-size: 16px;&quot;&gt;&lt;font style=&quot;font-size: 16px;&quot;&gt;&lt;span style=&quot;font-size: 16px;&quot;&gt;TIM2_CH1&lt;/span&gt;&lt;/font&gt;&lt;/div&gt;" style="text;whiteSpace=wrap;html=1;fontStyle=2;fontFamily=GOSTRUS Type A;fontSize=16;verticalAlign=middle;" parent="-3bvXb9xsOaprucixAK7-1" vertex="1">
          <mxGeometry x="161.67" y="-289.76" width="54.87" height="23.83" as="geometry" />
        </mxCell>
        <mxCell id="EKMDH8cztS3GwZSEMy-4-694" value="" style="endArrow=none;html=1;rounded=0;strokeWidth=2;fontStyle=2" parent="-3bvXb9xsOaprucixAK7-1" edge="1">
          <mxGeometry width="50" height="50" relative="1" as="geometry">
            <mxPoint x="329.35699999999997" y="207.76699999999997" as="sourcePoint" />
            <mxPoint x="353.35699999999997" y="183.767" as="targetPoint" />
          </mxGeometry>
        </mxCell>
        <mxCell id="EKMDH8cztS3GwZSEMy-4-695" value="&lt;div style=&quot;text-align: center;&quot;&gt;&lt;font face=&quot;GOSTRUS Type A&quot;&gt;&lt;span style=&quot;font-size: 20px;&quot;&gt;&lt;span&gt;10&lt;/span&gt;&lt;/span&gt;&lt;/font&gt;&lt;/div&gt;" style="text;whiteSpace=wrap;html=1;fontStyle=2;fontSize=16;fontFamily=GOSTRUS Type A;verticalAlign=middle;" parent="-3bvXb9xsOaprucixAK7-1" vertex="1">
          <mxGeometry x="322.44000000000005" y="178.06" width="18.48" height="14.86" as="geometry" />
        </mxCell>
        <mxCell id="EKMDH8cztS3GwZSEMy-4-351" value="" style="endArrow=none;html=1;rounded=0;entryX=0;entryY=0.5;entryDx=0;entryDy=0;edgeStyle=orthogonalEdgeStyle;" parent="-3bvXb9xsOaprucixAK7-1" target="4rB_ZDRqA5qAUD8Cp_PL-158" edge="1">
          <mxGeometry width="50" height="50" relative="1" as="geometry">
            <mxPoint x="59.31" y="-275" as="sourcePoint" />
            <mxPoint x="446.56100000000015" y="152.54600000000005" as="targetPoint" />
            <Array as="points">
              <mxPoint x="59" y="196" />
              <mxPoint x="447" y="196" />
            </Array>
          </mxGeometry>
        </mxCell>
        <mxCell id="KPo18gjHCp797co_jhMr-12" value="" style="group" parent="-3bvXb9xsOaprucixAK7-1" vertex="1" connectable="0">
          <mxGeometry x="-287.15999999999997" y="-235.90699999999995" width="218.19400000000007" height="158.87699999999998" as="geometry" />
        </mxCell>
        <mxCell id="KPo18gjHCp797co_jhMr-0" value="" style="rounded=0;whiteSpace=wrap;html=1;" parent="KPo18gjHCp797co_jhMr-12" vertex="1">
          <mxGeometry x="19.69" y="23.82699999999997" width="204.72" height="135.05" as="geometry" />
        </mxCell>
        <mxCell id="KPo18gjHCp797co_jhMr-1" value="&lt;div style=&quot;text-align: center;&quot;&gt;&lt;font face=&quot;GOSTRUS Type A&quot;&gt;&lt;span style=&quot;font-size: 16px;&quot;&gt;GND&lt;/span&gt;&lt;/font&gt;&lt;/div&gt;" style="text;whiteSpace=wrap;html=1;fontStyle=2" parent="KPo18gjHCp797co_jhMr-12" vertex="1">
          <mxGeometry x="21.685000000000006" y="133.05199999999996" width="35.08" height="23.83" as="geometry" />
        </mxCell>
        <mxCell id="KPo18gjHCp797co_jhMr-2" value="&lt;div style=&quot;text-align: center;&quot;&gt;&lt;font face=&quot;GOSTRUS Type A&quot;&gt;&lt;span style=&quot;font-size: 16px;&quot;&gt;VCC&lt;/span&gt;&lt;/font&gt;&lt;/div&gt;" style="text;whiteSpace=wrap;html=1;fontStyle=2" parent="KPo18gjHCp797co_jhMr-12" vertex="1">
          <mxGeometry x="49.25200000000001" y="133.04899999999998" width="35.08" height="23.83" as="geometry" />
        </mxCell>
        <mxCell id="KPo18gjHCp797co_jhMr-3" value="&lt;div style=&quot;text-align: center;&quot;&gt;&lt;font face=&quot;GOSTRUS Type A&quot;&gt;&lt;span style=&quot;font-size: 16px;&quot;&gt;SCK&lt;/span&gt;&lt;/font&gt;&lt;/div&gt;" style="text;whiteSpace=wrap;html=1;fontStyle=2" parent="KPo18gjHCp797co_jhMr-12" vertex="1">
          <mxGeometry x="76.81900000000002" y="133.046" width="35.08" height="23.83" as="geometry" />
        </mxCell>
        <mxCell id="KPo18gjHCp797co_jhMr-4" value="&lt;div style=&quot;text-align: center;&quot;&gt;&lt;font face=&quot;GOSTRUS Type A&quot;&gt;&lt;span style=&quot;font-size: 16px;&quot;&gt;SDA&lt;/span&gt;&lt;/font&gt;&lt;/div&gt;" style="text;whiteSpace=wrap;html=1;fontStyle=2" parent="KPo18gjHCp797co_jhMr-12" vertex="1">
          <mxGeometry x="104.38600000000002" y="133.04299999999998" width="35.08" height="23.83" as="geometry" />
        </mxCell>
        <mxCell id="KPo18gjHCp797co_jhMr-5" value="&lt;div style=&quot;text-align: center;&quot;&gt;&lt;font face=&quot;GOSTRUS Type A&quot;&gt;&lt;span style=&quot;font-size: 16px;&quot;&gt;RES&lt;/span&gt;&lt;/font&gt;&lt;/div&gt;" style="text;whiteSpace=wrap;html=1;fontStyle=2" parent="KPo18gjHCp797co_jhMr-12" vertex="1">
          <mxGeometry x="131.94300000000004" y="133.03999999999996" width="35.08" height="23.83" as="geometry" />
        </mxCell>
        <mxCell id="KPo18gjHCp797co_jhMr-6" value="&lt;div style=&quot;text-align: center;&quot;&gt;&lt;font face=&quot;GOSTRUS Type A&quot;&gt;&lt;span style=&quot;font-size: 16px;&quot;&gt;DC&lt;/span&gt;&lt;/font&gt;&lt;/div&gt;" style="text;whiteSpace=wrap;html=1;fontStyle=2" parent="KPo18gjHCp797co_jhMr-12" vertex="1">
          <mxGeometry x="159.50000000000006" y="133.03699999999998" width="35.08" height="23.83" as="geometry" />
        </mxCell>
        <mxCell id="KPo18gjHCp797co_jhMr-7" value="&lt;div style=&quot;text-align: center;&quot;&gt;&lt;font face=&quot;GOSTRUS Type A&quot;&gt;&lt;span style=&quot;font-size: 16px;&quot;&gt;CS&lt;/span&gt;&lt;/font&gt;&lt;/div&gt;" style="text;whiteSpace=wrap;html=1;fontStyle=2" parent="KPo18gjHCp797co_jhMr-12" vertex="1">
          <mxGeometry x="179.18700000000007" y="133.034" width="35.08" height="23.83" as="geometry" />
        </mxCell>
        <mxCell id="KPo18gjHCp797co_jhMr-8" value="&lt;div style=&quot;text-align: center;&quot;&gt;&lt;font face=&quot;GOSTRUS Type A&quot;&gt;&lt;span style=&quot;font-size: 16px;&quot;&gt;BL&lt;/span&gt;&lt;/font&gt;&lt;/div&gt;" style="text;whiteSpace=wrap;html=1;fontStyle=2" parent="KPo18gjHCp797co_jhMr-12" vertex="1">
          <mxGeometry x="202.80400000000006" y="133.03099999999998" width="35.08" height="23.83" as="geometry" />
        </mxCell>
        <mxCell id="KPo18gjHCp797co_jhMr-9" value="" style="rounded=0;whiteSpace=wrap;html=1;" parent="KPo18gjHCp797co_jhMr-12" vertex="1">
          <mxGeometry x="31.519999999999985" y="32.14699999999996" width="183.08" height="100.92" as="geometry" />
        </mxCell>
        <mxCell id="KPo18gjHCp797co_jhMr-10" value="&lt;div style=&quot;text-align: center;&quot;&gt;&lt;font face=&quot;GOSTRUS Type A&quot;&gt;&lt;span style=&quot;font-size: 16px;&quot;&gt;ST7735&lt;/span&gt;&lt;/font&gt;&lt;/div&gt;" style="text;whiteSpace=wrap;html=1;fontStyle=2" parent="KPo18gjHCp797co_jhMr-12" vertex="1">
          <mxGeometry x="80.74300000000002" width="35.08" height="23.83" as="geometry" />
        </mxCell>
        <mxCell id="KPo18gjHCp797co_jhMr-11" value="&lt;div style=&quot;text-align: center;&quot;&gt;&lt;font face=&quot;GOSTRUS Type A&quot;&gt;&lt;span style=&quot;font-size: 16px;&quot;&gt;&lt;br&gt;TFT LCD Display&lt;/span&gt;&lt;/font&gt;&lt;/div&gt;" style="text;whiteSpace=wrap;html=1;fontStyle=2" parent="KPo18gjHCp797co_jhMr-12" vertex="1">
          <mxGeometry x="76.81999999999996" y="50.38699999999997" width="86.6" height="15.75" as="geometry" />
        </mxCell>
        <mxCell id="KPo18gjHCp797co_jhMr-13" value="" style="endArrow=none;html=1;rounded=0;fontStyle=2" parent="-3bvXb9xsOaprucixAK7-1" edge="1">
          <mxGeometry width="50" height="50" relative="1" as="geometry">
            <mxPoint x="-271.40899999999993" y="-57.278999999999996" as="sourcePoint" />
            <mxPoint x="-238.40899999999993" y="-57.278999999999996" as="targetPoint" />
          </mxGeometry>
        </mxCell>
        <mxCell id="KPo18gjHCp797co_jhMr-14" value="&lt;div style=&quot;text-align: center;&quot;&gt;&lt;font face=&quot;GOSTRUS Type A&quot;&gt;&lt;span style=&quot;font-size: 20px;&quot;&gt;&lt;span&gt;GND&lt;/span&gt;&lt;/span&gt;&lt;/font&gt;&lt;/div&gt;" style="text;whiteSpace=wrap;html=1;fontStyle=2;container=0;" parent="-3bvXb9xsOaprucixAK7-1" vertex="1">
          <mxGeometry x="-271.27" y="-63.529999999999994" width="27.56" height="15.97" as="geometry" />
        </mxCell>
        <mxCell id="KPo18gjHCp797co_jhMr-15" value="" style="endArrow=none;html=1;rounded=0;entryX=0.064;entryY=0.997;entryDx=0;entryDy=0;entryPerimeter=0;" parent="-3bvXb9xsOaprucixAK7-1" target="KPo18gjHCp797co_jhMr-0" edge="1">
          <mxGeometry width="50" height="50" relative="1" as="geometry">
            <mxPoint x="-254.32" y="-57" as="sourcePoint" />
            <mxPoint x="-213.32" y="-58" as="targetPoint" />
          </mxGeometry>
        </mxCell>
        <mxCell id="KPo18gjHCp797co_jhMr-18" value="&lt;div style=&quot;text-align: center;&quot;&gt;&lt;font face=&quot;GOSTRUS Type A&quot;&gt;&lt;span style=&quot;font-size: 20px;&quot;&gt;&lt;span&gt;VCC&lt;/span&gt;&lt;/span&gt;&lt;/font&gt;&lt;/div&gt;" style="text;whiteSpace=wrap;html=1;fontStyle=2" parent="-3bvXb9xsOaprucixAK7-1" vertex="1">
          <mxGeometry x="-239.9060000000003" y="-46.00600000000001" width="35.42" height="32.26" as="geometry" />
        </mxCell>
        <mxCell id="KPo18gjHCp797co_jhMr-19" value="" style="endArrow=blockThin;html=1;rounded=0;exitX=0.208;exitY=0.997;exitDx=0;exitDy=0;exitPerimeter=0;endFill=1;" parent="-3bvXb9xsOaprucixAK7-1" source="KPo18gjHCp797co_jhMr-0" edge="1">
          <mxGeometry width="50" height="50" relative="1" as="geometry">
            <mxPoint x="-188.32" y="-20" as="sourcePoint" />
            <mxPoint x="-225.32" y="-38" as="targetPoint" />
          </mxGeometry>
        </mxCell>
        <mxCell id="KPo18gjHCp797co_jhMr-20" value="" style="endArrow=none;html=1;rounded=0;entryX=0.479;entryY=0.998;entryDx=0;entryDy=0;entryPerimeter=0;" parent="-3bvXb9xsOaprucixAK7-1" target="KPo18gjHCp797co_jhMr-0" edge="1">
          <mxGeometry width="50" height="50" relative="1" as="geometry">
            <mxPoint x="43.81" y="25" as="sourcePoint" />
            <mxPoint x="-170.69" y="-58" as="targetPoint" />
            <Array as="points">
              <mxPoint x="-168.69" y="25" />
            </Array>
          </mxGeometry>
        </mxCell>
        <mxCell id="KPo18gjHCp797co_jhMr-21" value="" style="endArrow=none;html=1;rounded=0;entryX=1;entryY=0;entryDx=0;entryDy=0;exitX=0;exitY=1;exitDx=0;exitDy=0;fontStyle=2" parent="-3bvXb9xsOaprucixAK7-1" edge="1">
          <mxGeometry width="50" height="50" relative="1" as="geometry">
            <mxPoint x="58.95800000000044" y="-31.692000000000007" as="sourcePoint" />
            <mxPoint x="43.5570000000004" y="-46.063" as="targetPoint" />
          </mxGeometry>
        </mxCell>
        <mxCell id="KPo18gjHCp797co_jhMr-23" value="" style="endArrow=none;html=1;rounded=0;entryX=1;entryY=0;entryDx=0;entryDy=0;exitX=0;exitY=1;exitDx=0;exitDy=0;fontStyle=2" parent="-3bvXb9xsOaprucixAK7-1" edge="1">
          <mxGeometry width="50" height="50" relative="1" as="geometry">
            <mxPoint x="58.95500000000044" y="-8.245000000000006" as="sourcePoint" />
            <mxPoint x="43.5540000000004" y="-22.18" as="targetPoint" />
          </mxGeometry>
        </mxCell>
        <mxCell id="KPo18gjHCp797co_jhMr-24" value="" style="endArrow=none;html=1;rounded=0;exitX=0.327;exitY=0.999;exitDx=0;exitDy=0;exitPerimeter=0;" parent="-3bvXb9xsOaprucixAK7-1" source="KPo18gjHCp797co_jhMr-0" edge="1">
          <mxGeometry width="50" height="50" relative="1" as="geometry">
            <mxPoint x="-238.69" y="-78" as="sourcePoint" />
            <mxPoint x="43.81" y="48" as="targetPoint" />
            <Array as="points">
              <mxPoint x="-200.69" y="48" />
            </Array>
          </mxGeometry>
        </mxCell>
        <mxCell id="KPo18gjHCp797co_jhMr-25" value="&lt;div style=&quot;text-align: center;&quot;&gt;&lt;font face=&quot;GOSTRUS Type A&quot;&gt;&lt;span style=&quot;font-size: 16px;&quot;&gt;PA5&lt;/span&gt;&lt;/font&gt;&lt;/div&gt;" style="text;whiteSpace=wrap;html=1;fontStyle=2" parent="-3bvXb9xsOaprucixAK7-1" vertex="1">
          <mxGeometry x="19.935000000000013" y="23.864999999999988" width="35.08" height="23.83" as="geometry" />
        </mxCell>
        <mxCell id="KPo18gjHCp797co_jhMr-26" value="&lt;div style=&quot;text-align: center;&quot;&gt;&lt;font face=&quot;GOSTRUS Type A&quot;&gt;&lt;span style=&quot;font-size: 16px;&quot;&gt;PA7&lt;/span&gt;&lt;/font&gt;&lt;/div&gt;" style="text;whiteSpace=wrap;html=1;fontStyle=2" parent="-3bvXb9xsOaprucixAK7-1" vertex="1">
          <mxGeometry x="19.932000000000013" y="0.011999999999986244" width="35.08" height="23.83" as="geometry" />
        </mxCell>
        <mxCell id="KPo18gjHCp797co_jhMr-29" value="" style="endArrow=open;html=1;rounded=0;endFill=0;fontStyle=2" parent="-3bvXb9xsOaprucixAK7-1" edge="1">
          <mxGeometry width="50" height="50" relative="1" as="geometry">
            <mxPoint x="-27.092999999999975" y="47.870000000000005" as="sourcePoint" />
            <mxPoint x="-47.092999999999975" y="47.870000000000005" as="targetPoint" />
          </mxGeometry>
        </mxCell>
        <mxCell id="KPo18gjHCp797co_jhMr-30" value="&lt;div style=&quot;text-align: center;&quot;&gt;&lt;font size=&quot;1&quot; face=&quot;GOSTRUS Type A&quot;&gt;&lt;span style=&quot;font-size: 16px;&quot;&gt;SPI1_SCK&lt;/span&gt;&lt;/font&gt;&lt;/div&gt;" style="text;whiteSpace=wrap;html=1;fontStyle=2;fontSize=16;fontFamily=GOSTRUS Type A;verticalAlign=middle;labelBackgroundColor=none;" parent="-3bvXb9xsOaprucixAK7-1" vertex="1">
          <mxGeometry x="-60.78" y="29.01" width="50.94" height="18.68" as="geometry" />
        </mxCell>
        <mxCell id="KPo18gjHCp797co_jhMr-31" value="" style="endArrow=open;html=1;rounded=0;endFill=0;fontStyle=2" parent="-3bvXb9xsOaprucixAK7-1" edge="1">
          <mxGeometry width="50" height="50" relative="1" as="geometry">
            <mxPoint x="-27.09599999999996" y="25" as="sourcePoint" />
            <mxPoint x="-47.09599999999996" y="25" as="targetPoint" />
          </mxGeometry>
        </mxCell>
        <mxCell id="KPo18gjHCp797co_jhMr-32" value="&lt;span style=&quot;color: rgb(0, 0, 0); font-family: &amp;quot;GOSTRUS Type A&amp;quot;; font-size: 16px; font-style: italic; font-variant-ligatures: normal; font-variant-caps: normal; font-weight: 400; letter-spacing: normal; orphans: 2; text-align: center; text-indent: 0px; text-transform: none; widows: 2; word-spacing: 0px; -webkit-text-stroke-width: 0px; text-decoration-thickness: initial; text-decoration-style: initial; text-decoration-color: initial; float: none; display: inline !important;&quot;&gt;SPI1_MOSI&lt;/span&gt;" style="text;whiteSpace=wrap;html=1;labelBackgroundColor=none;fontSize=16;fontFamily=GOSTRUS Type A;verticalAlign=middle;fontStyle=2;" parent="-3bvXb9xsOaprucixAK7-1" vertex="1">
          <mxGeometry x="-62.74" y="5.78" width="54.87" height="15.6" as="geometry" />
        </mxCell>
        <mxCell id="KPo18gjHCp797co_jhMr-33" value="" style="endArrow=none;html=1;rounded=0;entryX=0.271;entryY=1.094;entryDx=0;entryDy=0;entryPerimeter=0;" parent="-3bvXb9xsOaprucixAK7-1" target="KPo18gjHCp797co_jhMr-8" edge="1">
          <mxGeometry width="50" height="50" relative="1" as="geometry">
            <mxPoint x="-74.82" y="-66" as="sourcePoint" />
            <mxPoint x="-75.58599999999984" y="-75.10599999999994" as="targetPoint" />
          </mxGeometry>
        </mxCell>
        <mxCell id="EKMDH8cztS3GwZSEMy-4-81" value="" style="endArrow=none;html=1;rounded=0;entryX=0;entryY=0.5;entryDx=0;entryDy=0;fontStyle=2;edgeStyle=orthogonalEdgeStyle;" parent="-3bvXb9xsOaprucixAK7-1" target="4rB_ZDRqA5qAUD8Cp_PL-135" edge="1">
          <mxGeometry width="50" height="50" relative="1" as="geometry">
            <mxPoint x="374" y="43" as="sourcePoint" />
            <mxPoint x="527.1199999999999" y="-0.5750000000002728" as="targetPoint" />
            <Array as="points">
              <mxPoint x="378" y="43" />
            </Array>
          </mxGeometry>
        </mxCell>
        <mxCell id="KPo18gjHCp797co_jhMr-35" value="" style="endArrow=none;html=1;rounded=0;strokeWidth=2;fontStyle=2" parent="-3bvXb9xsOaprucixAK7-1" edge="1">
          <mxGeometry width="50" height="50" relative="1" as="geometry">
            <mxPoint x="370.074" y="251.08399999999997" as="sourcePoint" />
            <mxPoint x="394.074" y="227.084" as="targetPoint" />
          </mxGeometry>
        </mxCell>
        <mxCell id="KPo18gjHCp797co_jhMr-36" value="&lt;div style=&quot;text-align: center;&quot;&gt;&lt;font face=&quot;GOSTRUS Type A&quot;&gt;&lt;span style=&quot;font-size: 20px;&quot;&gt;&lt;span&gt;7&lt;/span&gt;&lt;/span&gt;&lt;/font&gt;&lt;/div&gt;" style="text;whiteSpace=wrap;html=1;fontStyle=2" parent="-3bvXb9xsOaprucixAK7-1" vertex="1">
          <mxGeometry x="370.074" y="209.33400000000003" width="11.81" height="27.56" as="geometry" />
        </mxCell>
        <mxCell id="KPo18gjHCp797co_jhMr-84" value="&lt;font style=&quot;font-size: 20px;&quot; face=&quot;GOSTRUS Type A&quot;&gt;SB2&lt;/font&gt;" style="text;html=1;strokeColor=none;fillColor=none;align=center;verticalAlign=middle;whiteSpace=wrap;rounded=0;fontStyle=2" parent="-3bvXb9xsOaprucixAK7-1" vertex="1">
          <mxGeometry x="216.137" y="334.147" width="60" height="30" as="geometry" />
        </mxCell>
        <mxCell id="KPo18gjHCp797co_jhMr-121" value="" style="rounded=0;whiteSpace=wrap;html=1;strokeWidth=1;fillColor=none;fontFamily=GOSTRUS Type A;fontSize=12;strokeColor=#000000;fontStyle=2" parent="-3bvXb9xsOaprucixAK7-1" vertex="1">
          <mxGeometry x="634.0999999999998" y="786.0369999999999" width="39.37" height="19.685" as="geometry" />
        </mxCell>
        <mxCell id="KPo18gjHCp797co_jhMr-122" value="" style="rounded=0;whiteSpace=wrap;html=1;strokeWidth=1;fillColor=none;fontFamily=GOSTRUS Type A;fontSize=12;strokeColor=#000000;fontStyle=2" parent="-3bvXb9xsOaprucixAK7-1" vertex="1">
          <mxGeometry x="634.1059999999997" y="707.2929999999999" width="39.37" height="19.685" as="geometry" />
        </mxCell>
        <mxCell id="q2o-lqSs_ey1UsFT7Bvr-1" value="" style="endArrow=none;html=1;rounded=0;entryX=1;entryY=0;entryDx=0;entryDy=0;exitX=0;exitY=1;exitDx=0;exitDy=0;fontStyle=2" parent="-3bvXb9xsOaprucixAK7-1" edge="1">
          <mxGeometry width="50" height="50" relative="1" as="geometry">
            <mxPoint x="58.95200000000044" y="15.371999999999993" as="sourcePoint" />
            <mxPoint x="43.5510000000004" y="1" as="targetPoint" />
          </mxGeometry>
        </mxCell>
        <mxCell id="q2o-lqSs_ey1UsFT7Bvr-2" value="" style="endArrow=none;html=1;rounded=0;entryX=1;entryY=0;entryDx=0;entryDy=0;exitX=0;exitY=1;exitDx=0;exitDy=0;fontStyle=2" parent="-3bvXb9xsOaprucixAK7-1" edge="1">
          <mxGeometry width="50" height="50" relative="1" as="geometry">
            <mxPoint x="58.94900000000044" y="38.998999999999995" as="sourcePoint" />
            <mxPoint x="43.5480000000004" y="25" as="targetPoint" />
          </mxGeometry>
        </mxCell>
        <mxCell id="q2o-lqSs_ey1UsFT7Bvr-3" value="" style="endArrow=none;html=1;rounded=0;exitX=0;exitY=1;exitDx=0;exitDy=0;fontStyle=2" parent="-3bvXb9xsOaprucixAK7-1" edge="1">
          <mxGeometry width="50" height="50" relative="1" as="geometry">
            <mxPoint x="58.94600000000044" y="62.61599999999999" as="sourcePoint" />
            <mxPoint x="43.31" y="48" as="targetPoint" />
          </mxGeometry>
        </mxCell>
        <mxCell id="q2o-lqSs_ey1UsFT7Bvr-5" value="" style="endArrow=none;html=1;rounded=0;entryX=1;entryY=0;entryDx=0;entryDy=0;exitX=0;exitY=1;exitDx=0;exitDy=0;fontStyle=2" parent="-3bvXb9xsOaprucixAK7-1" edge="1">
          <mxGeometry width="50" height="50" relative="1" as="geometry">
            <mxPoint x="58.95300000000043" y="130.493" as="sourcePoint" />
            <mxPoint x="43.552000000000405" y="116.558" as="targetPoint" />
          </mxGeometry>
        </mxCell>
        <mxCell id="q2o-lqSs_ey1UsFT7Bvr-6" value="" style="endArrow=none;html=1;rounded=0;exitX=0;exitY=1;exitDx=0;exitDy=0;fontStyle=2;entryX=0.651;entryY=1.039;entryDx=0;entryDy=0;entryPerimeter=0;" parent="-3bvXb9xsOaprucixAK7-1" edge="1">
          <mxGeometry width="50" height="50" relative="1" as="geometry">
            <mxPoint x="58.95000000000044" y="155.10999999999999" as="sourcePoint" />
            <mxPoint x="42.77207999999996" y="141.86437000000024" as="targetPoint" />
          </mxGeometry>
        </mxCell>
        <mxCell id="q2o-lqSs_ey1UsFT7Bvr-7" value="&lt;div style=&quot;text-align: center;&quot;&gt;&lt;font face=&quot;GOSTRUS Type A&quot;&gt;&lt;span style=&quot;font-size: 16px;&quot;&gt;PA10&lt;/span&gt;&lt;/font&gt;&lt;/div&gt;" style="text;whiteSpace=wrap;html=1;fontStyle=2" parent="-3bvXb9xsOaprucixAK7-1" vertex="1">
          <mxGeometry x="19.932000000000013" y="-23.37800000000001" width="35.08" height="23.83" as="geometry" />
        </mxCell>
        <mxCell id="q2o-lqSs_ey1UsFT7Bvr-8" value="&lt;div style=&quot;text-align: center;&quot;&gt;&lt;font face=&quot;GOSTRUS Type A&quot;&gt;&lt;span style=&quot;font-size: 16px;&quot;&gt;PA11&lt;/span&gt;&lt;/font&gt;&lt;/div&gt;" style="text;whiteSpace=wrap;html=1;fontStyle=2" parent="-3bvXb9xsOaprucixAK7-1" vertex="1">
          <mxGeometry x="19.929000000000013" y="-47.231000000000016" width="35.08" height="23.83" as="geometry" />
        </mxCell>
        <mxCell id="q2o-lqSs_ey1UsFT7Bvr-9" value="&lt;div style=&quot;text-align: center;&quot;&gt;&lt;font face=&quot;GOSTRUS Type A&quot;&gt;&lt;span style=&quot;font-size: 16px;&quot;&gt;PA12&lt;/span&gt;&lt;/font&gt;&lt;/div&gt;" style="text;whiteSpace=wrap;html=1;fontStyle=2" parent="-3bvXb9xsOaprucixAK7-1" vertex="1">
          <mxGeometry x="19.929000000000013" y="-70.62100000000001" width="35.08" height="23.83" as="geometry" />
        </mxCell>
        <mxCell id="q2o-lqSs_ey1UsFT7Bvr-11" value="" style="endArrow=none;html=1;rounded=0;exitX=0.597;exitY=1.004;exitDx=0;exitDy=0;exitPerimeter=0;" parent="-3bvXb9xsOaprucixAK7-1" source="KPo18gjHCp797co_jhMr-0" edge="1">
          <mxGeometry width="50" height="50" relative="1" as="geometry">
            <mxPoint x="-116.8832799999999" y="-76" as="sourcePoint" />
            <mxPoint x="43.86" y="1" as="targetPoint" />
            <Array as="points">
              <mxPoint x="-145.69" y="1" />
            </Array>
          </mxGeometry>
        </mxCell>
        <mxCell id="q2o-lqSs_ey1UsFT7Bvr-12" value="" style="endArrow=none;html=1;rounded=0;" parent="-3bvXb9xsOaprucixAK7-1" edge="1">
          <mxGeometry width="50" height="50" relative="1" as="geometry">
            <mxPoint x="-119.69" y="-77" as="sourcePoint" />
            <mxPoint x="43.857" y="-22" as="targetPoint" />
            <Array as="points">
              <mxPoint x="-119.69" y="-22" />
            </Array>
          </mxGeometry>
        </mxCell>
        <mxCell id="q2o-lqSs_ey1UsFT7Bvr-13" value="" style="endArrow=none;html=1;rounded=0;exitX=0.827;exitY=0.999;exitDx=0;exitDy=0;exitPerimeter=0;entryX=0.683;entryY=0.044;entryDx=0;entryDy=0;entryPerimeter=0;" parent="-3bvXb9xsOaprucixAK7-1" source="KPo18gjHCp797co_jhMr-0" target="q2o-lqSs_ey1UsFT7Bvr-8" edge="1">
          <mxGeometry width="50" height="50" relative="1" as="geometry">
            <mxPoint x="-119.75300000000001" y="-100.623" as="sourcePoint" />
            <mxPoint x="43.794" y="-45.623000000000005" as="targetPoint" />
            <Array as="points">
              <mxPoint x="-97.69" y="-46" />
            </Array>
          </mxGeometry>
        </mxCell>
        <mxCell id="q2o-lqSs_ey1UsFT7Bvr-14" value="" style="endArrow=open;html=1;rounded=0;endFill=0;fontStyle=2" parent="-3bvXb9xsOaprucixAK7-1" edge="1">
          <mxGeometry width="50" height="50" relative="1" as="geometry">
            <mxPoint x="-27.095999999999975" y="1" as="sourcePoint" />
            <mxPoint x="-47.095999999999975" y="1" as="targetPoint" />
          </mxGeometry>
        </mxCell>
        <mxCell id="q2o-lqSs_ey1UsFT7Bvr-15" value="&lt;div style=&quot;text-align: center;&quot;&gt;&lt;font size=&quot;1&quot; face=&quot;GOSTRUS Type A&quot;&gt;&lt;span style=&quot;font-size: 16px;&quot;&gt;RES&lt;/span&gt;&lt;/font&gt;&lt;/div&gt;" style="text;whiteSpace=wrap;html=1;fontStyle=2;fontSize=16;fontFamily=GOSTRUS Type A;verticalAlign=middle;labelBackgroundColor=none;" parent="-3bvXb9xsOaprucixAK7-1" vertex="1">
          <mxGeometry x="-55.25" y="-18.75" width="23.32" height="14.75" as="geometry" />
        </mxCell>
        <mxCell id="q2o-lqSs_ey1UsFT7Bvr-16" value="" style="endArrow=open;html=1;rounded=0;endFill=0;fontStyle=2" parent="-3bvXb9xsOaprucixAK7-1" edge="1">
          <mxGeometry width="50" height="50" relative="1" as="geometry">
            <mxPoint x="-27.09899999999996" y="-22" as="sourcePoint" />
            <mxPoint x="-47.09899999999996" y="-22" as="targetPoint" />
          </mxGeometry>
        </mxCell>
        <mxCell id="q2o-lqSs_ey1UsFT7Bvr-17" value="&lt;span style=&quot;color: rgb(0, 0, 0); font-family: &amp;quot;GOSTRUS Type A&amp;quot;; font-size: 16px; font-style: italic; font-variant-ligatures: normal; font-variant-caps: normal; font-weight: 400; letter-spacing: normal; orphans: 2; text-align: center; text-indent: 0px; text-transform: none; widows: 2; word-spacing: 0px; -webkit-text-stroke-width: 0px; text-decoration-thickness: initial; text-decoration-style: initial; text-decoration-color: initial; float: none; display: inline !important;&quot;&gt;DC&lt;/span&gt;" style="text;whiteSpace=wrap;html=1;fontSize=16;verticalAlign=middle;fontStyle=2;fontFamily=GOSTRUS Type A;labelBackgroundColor=none;" parent="-3bvXb9xsOaprucixAK7-1" vertex="1">
          <mxGeometry x="-51.75" y="-39" width="16.31" height="15.6" as="geometry" />
        </mxCell>
        <mxCell id="q2o-lqSs_ey1UsFT7Bvr-19" value="" style="endArrow=open;html=1;rounded=0;endFill=0;fontStyle=2" parent="-3bvXb9xsOaprucixAK7-1" edge="1">
          <mxGeometry width="50" height="50" relative="1" as="geometry">
            <mxPoint x="-28.10199999999996" y="-46" as="sourcePoint" />
            <mxPoint x="-48.10199999999996" y="-46" as="targetPoint" />
          </mxGeometry>
        </mxCell>
        <mxCell id="q2o-lqSs_ey1UsFT7Bvr-20" value="&lt;span style=&quot;color: rgb(0, 0, 0); font-size: 16px; font-style: italic; font-variant-ligatures: normal; font-variant-caps: normal; font-weight: 400; letter-spacing: normal; orphans: 2; text-align: center; text-indent: 0px; text-transform: none; widows: 2; word-spacing: 0px; -webkit-text-stroke-width: 0px; text-decoration-thickness: initial; text-decoration-style: initial; text-decoration-color: initial; float: none; display: inline !important;&quot;&gt;CS&lt;/span&gt;" style="text;whiteSpace=wrap;html=1;verticalAlign=middle;fontFamily=GOSTRUS Type A;fontSize=16;fontStyle=2;labelBackgroundColor=none;" parent="-3bvXb9xsOaprucixAK7-1" vertex="1">
          <mxGeometry x="-51.75" y="-66.50999999999999" width="16.31" height="15.6" as="geometry" />
        </mxCell>
        <mxCell id="q2o-lqSs_ey1UsFT7Bvr-24" value="" style="endArrow=none;html=1;rounded=0;entryX=0;entryY=0.5;entryDx=0;entryDy=0;edgeStyle=orthogonalEdgeStyle;" parent="-3bvXb9xsOaprucixAK7-1" edge="1" target="4rB_ZDRqA5qAUD8Cp_PL-159">
          <mxGeometry width="50" height="50" relative="1" as="geometry">
            <mxPoint x="362" y="787" as="sourcePoint" />
            <mxPoint x="446.5679999999998" y="195.66300000000007" as="targetPoint" />
            <Array as="points">
              <mxPoint x="362" y="239" />
            </Array>
          </mxGeometry>
        </mxCell>
        <mxCell id="KPo18gjHCp797co_jhMr-49" value="" style="endArrow=none;html=1;rounded=0;fontStyle=2" parent="-3bvXb9xsOaprucixAK7-1" edge="1">
          <mxGeometry width="50" height="50" relative="1" as="geometry">
            <mxPoint x="203.96400000000003" y="770.6539999999999" as="sourcePoint" />
            <mxPoint x="236.96400000000006" y="770.6539999999999" as="targetPoint" />
          </mxGeometry>
        </mxCell>
        <mxCell id="KPo18gjHCp797co_jhMr-50" value="&lt;div style=&quot;text-align: center;&quot;&gt;&lt;font face=&quot;GOSTRUS Type A&quot;&gt;&lt;span style=&quot;font-size: 20px;&quot;&gt;&lt;span&gt;GND&lt;/span&gt;&lt;/span&gt;&lt;/font&gt;&lt;/div&gt;" style="text;whiteSpace=wrap;html=1;fontStyle=2" parent="-3bvXb9xsOaprucixAK7-1" vertex="1">
          <mxGeometry x="203.96" y="762.35" width="32.73" height="9.47" as="geometry" />
        </mxCell>
        <mxCell id="KPo18gjHCp797co_jhMr-59" value="" style="endArrow=none;html=1;rounded=0;fontStyle=2" parent="-3bvXb9xsOaprucixAK7-1" edge="1">
          <mxGeometry width="50" height="50" relative="1" as="geometry">
            <mxPoint x="232.84000000000003" y="498.84000000000003" as="sourcePoint" />
            <mxPoint x="264.75700000000006" y="486.507" as="targetPoint" />
          </mxGeometry>
        </mxCell>
        <mxCell id="KPo18gjHCp797co_jhMr-60" value="" style="endArrow=none;html=1;rounded=0;fontStyle=2" parent="-3bvXb9xsOaprucixAK7-1" edge="1">
          <mxGeometry width="50" height="50" relative="1" as="geometry">
            <mxPoint x="248.75700000000006" y="473.697" as="sourcePoint" />
            <mxPoint x="248.75700000000006" y="459.697" as="targetPoint" />
          </mxGeometry>
        </mxCell>
        <mxCell id="KPo18gjHCp797co_jhMr-61" value="" style="endArrow=none;html=1;rounded=0;fontStyle=2" parent="-3bvXb9xsOaprucixAK7-1" edge="1">
          <mxGeometry width="50" height="50" relative="1" as="geometry">
            <mxPoint x="248.75700000000006" y="492.507" as="sourcePoint" />
            <mxPoint x="248.75700000000006" y="480.507" as="targetPoint" />
          </mxGeometry>
        </mxCell>
        <mxCell id="KPo18gjHCp797co_jhMr-62" value="" style="endArrow=none;html=1;rounded=0;fontStyle=2" parent="-3bvXb9xsOaprucixAK7-1" edge="1">
          <mxGeometry width="50" height="50" relative="1" as="geometry">
            <mxPoint x="232.75700000000006" y="459.697" as="sourcePoint" />
            <mxPoint x="264.75700000000006" y="459.697" as="targetPoint" />
          </mxGeometry>
        </mxCell>
        <mxCell id="KPo18gjHCp797co_jhMr-63" value="" style="endArrow=none;html=1;rounded=0;fontStyle=2" parent="-3bvXb9xsOaprucixAK7-1" edge="1">
          <mxGeometry width="50" height="50" relative="1" as="geometry">
            <mxPoint x="264.75700000000006" y="467.697" as="sourcePoint" />
            <mxPoint x="264.75700000000006" y="459.197" as="targetPoint" />
          </mxGeometry>
        </mxCell>
        <mxCell id="KPo18gjHCp797co_jhMr-64" value="" style="endArrow=none;html=1;rounded=0;fontStyle=2" parent="-3bvXb9xsOaprucixAK7-1" edge="1">
          <mxGeometry width="50" height="50" relative="1" as="geometry">
            <mxPoint x="232.75700000000006" y="467.697" as="sourcePoint" />
            <mxPoint x="232.75700000000006" y="459.197" as="targetPoint" />
          </mxGeometry>
        </mxCell>
        <mxCell id="KPo18gjHCp797co_jhMr-65" value="" style="rounded=0;whiteSpace=wrap;html=1;rotation=90;fontStyle=2;direction=south;" parent="-3bvXb9xsOaprucixAK7-1" vertex="1">
          <mxGeometry x="288.3239999999999" y="483.14" width="15.3" height="31.5" as="geometry" />
        </mxCell>
        <mxCell id="KPo18gjHCp797co_jhMr-66" value="" style="endArrow=none;html=1;rounded=0;" parent="-3bvXb9xsOaprucixAK7-1" edge="1">
          <mxGeometry width="50" height="50" relative="1" as="geometry">
            <mxPoint x="362.31" y="513.84" as="sourcePoint" />
            <mxPoint x="346.81" y="498.84000000000003" as="targetPoint" />
          </mxGeometry>
        </mxCell>
        <mxCell id="KPo18gjHCp797co_jhMr-67" value="" style="endArrow=none;html=1;rounded=0;exitX=0;exitY=0.5;exitDx=0;exitDy=0;" parent="-3bvXb9xsOaprucixAK7-1" source="KPo18gjHCp797co_jhMr-65" edge="1">
          <mxGeometry width="50" height="50" relative="1" as="geometry">
            <mxPoint x="295.41" y="567.84" as="sourcePoint" />
            <mxPoint x="347.41" y="498.84000000000003" as="targetPoint" />
          </mxGeometry>
        </mxCell>
        <mxCell id="KPo18gjHCp797co_jhMr-68" value="" style="endArrow=none;html=1;rounded=0;entryX=1;entryY=0.5;entryDx=0;entryDy=0;" parent="-3bvXb9xsOaprucixAK7-1" target="KPo18gjHCp797co_jhMr-65" edge="1">
          <mxGeometry width="50" height="50" relative="1" as="geometry">
            <mxPoint x="263.84000000000003" y="498.84000000000003" as="sourcePoint" />
            <mxPoint x="290.84000000000003" y="506.84000000000003" as="targetPoint" />
          </mxGeometry>
        </mxCell>
        <mxCell id="KPo18gjHCp797co_jhMr-69" value="" style="endArrow=none;html=1;rounded=0;" parent="-3bvXb9xsOaprucixAK7-1" edge="1">
          <mxGeometry width="50" height="50" relative="1" as="geometry">
            <mxPoint x="220.84" y="620.84" as="sourcePoint" />
            <mxPoint x="232.84000000000003" y="498.84000000000003" as="targetPoint" />
            <Array as="points">
              <mxPoint x="220.84" y="498.84000000000003" />
            </Array>
          </mxGeometry>
        </mxCell>
        <mxCell id="KPo18gjHCp797co_jhMr-71" value="&lt;font style=&quot;font-size: 20px;&quot; face=&quot;GOSTRUS Type A&quot;&gt;SB3&lt;/font&gt;" style="text;html=1;strokeColor=none;fillColor=none;align=center;verticalAlign=middle;whiteSpace=wrap;rounded=0;fontStyle=2" parent="-3bvXb9xsOaprucixAK7-1" vertex="1">
          <mxGeometry x="217.01000000000002" y="433.1" width="60" height="30" as="geometry" />
        </mxCell>
        <mxCell id="KPo18gjHCp797co_jhMr-72" value="&lt;font style=&quot;font-size: 20px;&quot; face=&quot;GOSTRUS Type A&quot;&gt;R3&lt;/font&gt;" style="text;html=1;strokeColor=none;fillColor=none;align=center;verticalAlign=middle;whiteSpace=wrap;rounded=0;fontStyle=2" parent="-3bvXb9xsOaprucixAK7-1" vertex="1">
          <mxGeometry x="265.9870000000001" y="467.067" width="60" height="30" as="geometry" />
        </mxCell>
        <mxCell id="KPo18gjHCp797co_jhMr-73" value="" style="endArrow=none;html=1;rounded=0;fontStyle=2" parent="-3bvXb9xsOaprucixAK7-1" edge="1">
          <mxGeometry width="50" height="50" relative="1" as="geometry">
            <mxPoint x="232.837" y="400.41700000000003" as="sourcePoint" />
            <mxPoint x="264.754" y="388.084" as="targetPoint" />
          </mxGeometry>
        </mxCell>
        <mxCell id="KPo18gjHCp797co_jhMr-74" value="" style="endArrow=none;html=1;rounded=0;fontStyle=2" parent="-3bvXb9xsOaprucixAK7-1" edge="1">
          <mxGeometry width="50" height="50" relative="1" as="geometry">
            <mxPoint x="248.75400000000002" y="375.274" as="sourcePoint" />
            <mxPoint x="248.75400000000002" y="361.274" as="targetPoint" />
          </mxGeometry>
        </mxCell>
        <mxCell id="KPo18gjHCp797co_jhMr-75" value="" style="endArrow=none;html=1;rounded=0;fontStyle=2" parent="-3bvXb9xsOaprucixAK7-1" edge="1">
          <mxGeometry width="50" height="50" relative="1" as="geometry">
            <mxPoint x="248.75400000000002" y="394.084" as="sourcePoint" />
            <mxPoint x="248.75400000000002" y="382.084" as="targetPoint" />
          </mxGeometry>
        </mxCell>
        <mxCell id="KPo18gjHCp797co_jhMr-76" value="" style="endArrow=none;html=1;rounded=0;fontStyle=2" parent="-3bvXb9xsOaprucixAK7-1" edge="1">
          <mxGeometry width="50" height="50" relative="1" as="geometry">
            <mxPoint x="232.75400000000002" y="361.274" as="sourcePoint" />
            <mxPoint x="264.754" y="361.274" as="targetPoint" />
          </mxGeometry>
        </mxCell>
        <mxCell id="KPo18gjHCp797co_jhMr-77" value="" style="endArrow=none;html=1;rounded=0;fontStyle=2" parent="-3bvXb9xsOaprucixAK7-1" edge="1">
          <mxGeometry width="50" height="50" relative="1" as="geometry">
            <mxPoint x="264.754" y="369.274" as="sourcePoint" />
            <mxPoint x="264.754" y="360.774" as="targetPoint" />
          </mxGeometry>
        </mxCell>
        <mxCell id="KPo18gjHCp797co_jhMr-78" value="" style="endArrow=none;html=1;rounded=0;fontStyle=2" parent="-3bvXb9xsOaprucixAK7-1" edge="1">
          <mxGeometry width="50" height="50" relative="1" as="geometry">
            <mxPoint x="232.75400000000002" y="369.274" as="sourcePoint" />
            <mxPoint x="232.75400000000002" y="360.774" as="targetPoint" />
          </mxGeometry>
        </mxCell>
        <mxCell id="KPo18gjHCp797co_jhMr-79" value="" style="rounded=0;whiteSpace=wrap;html=1;rotation=90;fontStyle=2;direction=south;" parent="-3bvXb9xsOaprucixAK7-1" vertex="1">
          <mxGeometry x="288.3209999999999" y="384.717" width="15.3" height="31.5" as="geometry" />
        </mxCell>
        <mxCell id="KPo18gjHCp797co_jhMr-80" value="" style="endArrow=none;html=1;rounded=0;" parent="-3bvXb9xsOaprucixAK7-1" edge="1">
          <mxGeometry width="50" height="50" relative="1" as="geometry">
            <mxPoint x="361.31" y="415.41700000000003" as="sourcePoint" />
            <mxPoint x="347.407" y="400.41700000000003" as="targetPoint" />
          </mxGeometry>
        </mxCell>
        <mxCell id="KPo18gjHCp797co_jhMr-81" value="" style="endArrow=none;html=1;rounded=0;exitX=0;exitY=0.5;exitDx=0;exitDy=0;" parent="-3bvXb9xsOaprucixAK7-1" source="KPo18gjHCp797co_jhMr-79" edge="1">
          <mxGeometry width="50" height="50" relative="1" as="geometry">
            <mxPoint x="295.407" y="469.41700000000003" as="sourcePoint" />
            <mxPoint x="347.407" y="400.41700000000003" as="targetPoint" />
          </mxGeometry>
        </mxCell>
        <mxCell id="KPo18gjHCp797co_jhMr-82" value="" style="endArrow=none;html=1;rounded=0;entryX=1;entryY=0.5;entryDx=0;entryDy=0;" parent="-3bvXb9xsOaprucixAK7-1" target="KPo18gjHCp797co_jhMr-79" edge="1">
          <mxGeometry width="50" height="50" relative="1" as="geometry">
            <mxPoint x="263.837" y="400.41700000000003" as="sourcePoint" />
            <mxPoint x="290.837" y="408.41700000000003" as="targetPoint" />
          </mxGeometry>
        </mxCell>
        <mxCell id="KPo18gjHCp797co_jhMr-83" value="" style="endArrow=none;html=1;rounded=0;" parent="-3bvXb9xsOaprucixAK7-1" edge="1">
          <mxGeometry width="50" height="50" relative="1" as="geometry">
            <mxPoint x="220.84" y="498.84000000000003" as="sourcePoint" />
            <mxPoint x="232.837" y="400.41700000000003" as="targetPoint" />
            <Array as="points">
              <mxPoint x="220.83700000000002" y="400.41700000000003" />
            </Array>
          </mxGeometry>
        </mxCell>
        <mxCell id="KPo18gjHCp797co_jhMr-85" value="&lt;font style=&quot;font-size: 20px;&quot; face=&quot;GOSTRUS Type A&quot;&gt;R2&lt;/font&gt;" style="text;html=1;strokeColor=none;fillColor=none;align=center;verticalAlign=middle;whiteSpace=wrap;rounded=0;fontStyle=2" parent="-3bvXb9xsOaprucixAK7-1" vertex="1">
          <mxGeometry x="265.98400000000004" y="368.644" width="60" height="30" as="geometry" />
        </mxCell>
        <mxCell id="KPo18gjHCp797co_jhMr-86" value="" style="endArrow=none;html=1;rounded=0;fontStyle=2" parent="-3bvXb9xsOaprucixAK7-1" edge="1">
          <mxGeometry width="50" height="50" relative="1" as="geometry">
            <mxPoint x="232.84400000000005" y="616.954" as="sourcePoint" />
            <mxPoint x="264.7610000000001" y="604.621" as="targetPoint" />
          </mxGeometry>
        </mxCell>
        <mxCell id="KPo18gjHCp797co_jhMr-87" value="" style="endArrow=none;html=1;rounded=0;fontStyle=2" parent="-3bvXb9xsOaprucixAK7-1" edge="1">
          <mxGeometry width="50" height="50" relative="1" as="geometry">
            <mxPoint x="248.76100000000008" y="591.811" as="sourcePoint" />
            <mxPoint x="248.76100000000008" y="577.811" as="targetPoint" />
          </mxGeometry>
        </mxCell>
        <mxCell id="KPo18gjHCp797co_jhMr-88" value="" style="endArrow=none;html=1;rounded=0;fontStyle=2" parent="-3bvXb9xsOaprucixAK7-1" edge="1">
          <mxGeometry width="50" height="50" relative="1" as="geometry">
            <mxPoint x="248.76100000000008" y="610.621" as="sourcePoint" />
            <mxPoint x="248.76100000000008" y="598.621" as="targetPoint" />
          </mxGeometry>
        </mxCell>
        <mxCell id="KPo18gjHCp797co_jhMr-89" value="" style="endArrow=none;html=1;rounded=0;fontStyle=2" parent="-3bvXb9xsOaprucixAK7-1" edge="1">
          <mxGeometry width="50" height="50" relative="1" as="geometry">
            <mxPoint x="232.76100000000008" y="577.811" as="sourcePoint" />
            <mxPoint x="264.7610000000001" y="577.811" as="targetPoint" />
          </mxGeometry>
        </mxCell>
        <mxCell id="KPo18gjHCp797co_jhMr-90" value="" style="endArrow=none;html=1;rounded=0;fontStyle=2" parent="-3bvXb9xsOaprucixAK7-1" edge="1">
          <mxGeometry width="50" height="50" relative="1" as="geometry">
            <mxPoint x="264.7610000000001" y="585.811" as="sourcePoint" />
            <mxPoint x="264.7610000000001" y="577.311" as="targetPoint" />
          </mxGeometry>
        </mxCell>
        <mxCell id="KPo18gjHCp797co_jhMr-91" value="" style="endArrow=none;html=1;rounded=0;fontStyle=2" parent="-3bvXb9xsOaprucixAK7-1" edge="1">
          <mxGeometry width="50" height="50" relative="1" as="geometry">
            <mxPoint x="232.76100000000008" y="585.811" as="sourcePoint" />
            <mxPoint x="232.76100000000008" y="577.311" as="targetPoint" />
          </mxGeometry>
        </mxCell>
        <mxCell id="KPo18gjHCp797co_jhMr-92" value="" style="rounded=0;whiteSpace=wrap;html=1;rotation=90;fontStyle=2;direction=south;" parent="-3bvXb9xsOaprucixAK7-1" vertex="1">
          <mxGeometry x="288.32799999999986" y="601.254" width="15.3" height="31.5" as="geometry" />
        </mxCell>
        <mxCell id="KPo18gjHCp797co_jhMr-93" value="" style="endArrow=none;html=1;rounded=0;" parent="-3bvXb9xsOaprucixAK7-1" edge="1">
          <mxGeometry width="50" height="50" relative="1" as="geometry">
            <mxPoint x="362.31" y="631.954" as="sourcePoint" />
            <mxPoint x="347.414" y="616.954" as="targetPoint" />
          </mxGeometry>
        </mxCell>
        <mxCell id="KPo18gjHCp797co_jhMr-94" value="" style="endArrow=none;html=1;rounded=0;exitX=0;exitY=0.5;exitDx=0;exitDy=0;" parent="-3bvXb9xsOaprucixAK7-1" source="KPo18gjHCp797co_jhMr-92" edge="1">
          <mxGeometry width="50" height="50" relative="1" as="geometry">
            <mxPoint x="295.41400000000004" y="685.9540000000001" as="sourcePoint" />
            <mxPoint x="347.414" y="616.954" as="targetPoint" />
          </mxGeometry>
        </mxCell>
        <mxCell id="KPo18gjHCp797co_jhMr-95" value="" style="endArrow=none;html=1;rounded=0;entryX=1;entryY=0.5;entryDx=0;entryDy=0;" parent="-3bvXb9xsOaprucixAK7-1" target="KPo18gjHCp797co_jhMr-92" edge="1">
          <mxGeometry width="50" height="50" relative="1" as="geometry">
            <mxPoint x="263.84400000000005" y="616.954" as="sourcePoint" />
            <mxPoint x="290.844" y="624.954" as="targetPoint" />
          </mxGeometry>
        </mxCell>
        <mxCell id="KPo18gjHCp797co_jhMr-96" value="" style="endArrow=none;html=1;rounded=0;" parent="-3bvXb9xsOaprucixAK7-1" edge="1">
          <mxGeometry width="50" height="50" relative="1" as="geometry">
            <mxPoint x="220.84" y="726.84" as="sourcePoint" />
            <mxPoint x="232.84400000000005" y="616.954" as="targetPoint" />
            <Array as="points">
              <mxPoint x="220.84400000000002" y="616.954" />
            </Array>
          </mxGeometry>
        </mxCell>
        <mxCell id="KPo18gjHCp797co_jhMr-97" value="&lt;font style=&quot;font-size: 20px;&quot; face=&quot;GOSTRUS Type A&quot;&gt;SB4&lt;/font&gt;" style="text;html=1;strokeColor=none;fillColor=none;align=center;verticalAlign=middle;whiteSpace=wrap;rounded=0;fontStyle=2" parent="-3bvXb9xsOaprucixAK7-1" vertex="1">
          <mxGeometry x="217.01400000000004" y="551.2139999999999" width="60" height="30" as="geometry" />
        </mxCell>
        <mxCell id="KPo18gjHCp797co_jhMr-98" value="&lt;font style=&quot;font-size: 20px;&quot; face=&quot;GOSTRUS Type A&quot;&gt;R4&lt;/font&gt;" style="text;html=1;strokeColor=none;fillColor=none;align=center;verticalAlign=middle;whiteSpace=wrap;rounded=0;fontStyle=2" parent="-3bvXb9xsOaprucixAK7-1" vertex="1">
          <mxGeometry x="265.9910000000001" y="585.181" width="60" height="30" as="geometry" />
        </mxCell>
        <mxCell id="KPo18gjHCp797co_jhMr-99" value="" style="endArrow=none;html=1;rounded=0;fontStyle=2" parent="-3bvXb9xsOaprucixAK7-1" edge="1">
          <mxGeometry width="50" height="50" relative="1" as="geometry">
            <mxPoint x="232.841" y="727.191" as="sourcePoint" />
            <mxPoint x="264.75800000000004" y="714.8580000000001" as="targetPoint" />
          </mxGeometry>
        </mxCell>
        <mxCell id="KPo18gjHCp797co_jhMr-100" value="" style="endArrow=none;html=1;rounded=0;fontStyle=2" parent="-3bvXb9xsOaprucixAK7-1" edge="1">
          <mxGeometry width="50" height="50" relative="1" as="geometry">
            <mxPoint x="248.75800000000004" y="702.048" as="sourcePoint" />
            <mxPoint x="248.75800000000004" y="688.048" as="targetPoint" />
          </mxGeometry>
        </mxCell>
        <mxCell id="KPo18gjHCp797co_jhMr-101" value="" style="endArrow=none;html=1;rounded=0;fontStyle=2" parent="-3bvXb9xsOaprucixAK7-1" edge="1">
          <mxGeometry width="50" height="50" relative="1" as="geometry">
            <mxPoint x="248.75800000000004" y="720.8580000000001" as="sourcePoint" />
            <mxPoint x="248.75800000000004" y="708.8580000000001" as="targetPoint" />
          </mxGeometry>
        </mxCell>
        <mxCell id="KPo18gjHCp797co_jhMr-102" value="" style="endArrow=none;html=1;rounded=0;fontStyle=2" parent="-3bvXb9xsOaprucixAK7-1" edge="1">
          <mxGeometry width="50" height="50" relative="1" as="geometry">
            <mxPoint x="232.75800000000004" y="688.048" as="sourcePoint" />
            <mxPoint x="264.75800000000004" y="688.048" as="targetPoint" />
          </mxGeometry>
        </mxCell>
        <mxCell id="KPo18gjHCp797co_jhMr-103" value="" style="endArrow=none;html=1;rounded=0;fontStyle=2" parent="-3bvXb9xsOaprucixAK7-1" edge="1">
          <mxGeometry width="50" height="50" relative="1" as="geometry">
            <mxPoint x="264.75800000000004" y="696.048" as="sourcePoint" />
            <mxPoint x="264.75800000000004" y="687.548" as="targetPoint" />
          </mxGeometry>
        </mxCell>
        <mxCell id="KPo18gjHCp797co_jhMr-104" value="" style="endArrow=none;html=1;rounded=0;fontStyle=2" parent="-3bvXb9xsOaprucixAK7-1" edge="1">
          <mxGeometry width="50" height="50" relative="1" as="geometry">
            <mxPoint x="232.75800000000004" y="696.048" as="sourcePoint" />
            <mxPoint x="232.75800000000004" y="687.548" as="targetPoint" />
          </mxGeometry>
        </mxCell>
        <mxCell id="KPo18gjHCp797co_jhMr-105" value="" style="rounded=0;whiteSpace=wrap;html=1;rotation=90;fontStyle=2;direction=south;" parent="-3bvXb9xsOaprucixAK7-1" vertex="1">
          <mxGeometry x="288.32499999999993" y="711.491" width="15.3" height="31.5" as="geometry" />
        </mxCell>
        <mxCell id="KPo18gjHCp797co_jhMr-106" value="" style="endArrow=none;html=1;rounded=0;" parent="-3bvXb9xsOaprucixAK7-1" edge="1">
          <mxGeometry width="50" height="50" relative="1" as="geometry">
            <mxPoint x="362.411" y="742.191" as="sourcePoint" />
            <mxPoint x="347.411" y="727.191" as="targetPoint" />
          </mxGeometry>
        </mxCell>
        <mxCell id="KPo18gjHCp797co_jhMr-107" value="" style="endArrow=none;html=1;rounded=0;exitX=0;exitY=0.5;exitDx=0;exitDy=0;" parent="-3bvXb9xsOaprucixAK7-1" source="KPo18gjHCp797co_jhMr-105" edge="1">
          <mxGeometry width="50" height="50" relative="1" as="geometry">
            <mxPoint x="295.411" y="796.191" as="sourcePoint" />
            <mxPoint x="347.411" y="727.191" as="targetPoint" />
          </mxGeometry>
        </mxCell>
        <mxCell id="KPo18gjHCp797co_jhMr-108" value="" style="endArrow=none;html=1;rounded=0;entryX=1;entryY=0.5;entryDx=0;entryDy=0;" parent="-3bvXb9xsOaprucixAK7-1" target="KPo18gjHCp797co_jhMr-105" edge="1">
          <mxGeometry width="50" height="50" relative="1" as="geometry">
            <mxPoint x="263.841" y="727.191" as="sourcePoint" />
            <mxPoint x="290.841" y="735.191" as="targetPoint" />
          </mxGeometry>
        </mxCell>
        <mxCell id="KPo18gjHCp797co_jhMr-109" value="" style="endArrow=none;html=1;rounded=0;" parent="-3bvXb9xsOaprucixAK7-1" edge="1">
          <mxGeometry width="50" height="50" relative="1" as="geometry">
            <mxPoint x="220.84099999999998" y="770.191" as="sourcePoint" />
            <mxPoint x="232.841" y="727.191" as="targetPoint" />
            <Array as="points">
              <mxPoint x="220.84099999999998" y="727.191" />
            </Array>
          </mxGeometry>
        </mxCell>
        <mxCell id="KPo18gjHCp797co_jhMr-110" value="&lt;font style=&quot;font-size: 20px;&quot; face=&quot;GOSTRUS Type A&quot;&gt;SB5&lt;/font&gt;" style="text;html=1;strokeColor=none;fillColor=none;align=center;verticalAlign=middle;whiteSpace=wrap;rounded=0;fontStyle=2" parent="-3bvXb9xsOaprucixAK7-1" vertex="1">
          <mxGeometry x="217.011" y="661.451" width="60" height="30" as="geometry" />
        </mxCell>
        <mxCell id="KPo18gjHCp797co_jhMr-111" value="&lt;font style=&quot;font-size: 20px;&quot; face=&quot;GOSTRUS Type A&quot;&gt;R5&lt;/font&gt;" style="text;html=1;strokeColor=none;fillColor=none;align=center;verticalAlign=middle;whiteSpace=wrap;rounded=0;fontStyle=2" parent="-3bvXb9xsOaprucixAK7-1" vertex="1">
          <mxGeometry x="265.98800000000006" y="695.418" width="60" height="30" as="geometry" />
        </mxCell>
        <mxCell id="KPo18gjHCp797co_jhMr-112" value="&lt;div style=&quot;text-align: center; font-size: 20px;&quot;&gt;&lt;font face=&quot;GOSTRUS Type A&quot; style=&quot;font-size: 20px;&quot;&gt;&lt;span style=&quot;font-size: 20px;&quot;&gt;PB5&lt;/span&gt;&lt;/font&gt;&lt;/div&gt;" style="text;whiteSpace=wrap;html=1;fontStyle=2;fontSize=20;" parent="-3bvXb9xsOaprucixAK7-1" vertex="1">
          <mxGeometry x="322.44" y="371.84" width="38.3" height="25.86" as="geometry" />
        </mxCell>
        <mxCell id="KPo18gjHCp797co_jhMr-113" value="&lt;div style=&quot;text-align: center; font-size: 20px;&quot;&gt;&lt;font face=&quot;GOSTRUS Type A&quot; style=&quot;font-size: 20px;&quot;&gt;&lt;span style=&quot;font-size: 20px;&quot;&gt;PB6&lt;/span&gt;&lt;/font&gt;&lt;/div&gt;" style="text;whiteSpace=wrap;html=1;fontStyle=2;fontSize=20;" parent="-3bvXb9xsOaprucixAK7-1" vertex="1">
          <mxGeometry x="322.437" y="470.267" width="38.3" height="25.86" as="geometry" />
        </mxCell>
        <mxCell id="KPo18gjHCp797co_jhMr-114" value="&lt;div style=&quot;text-align: center; font-size: 20px;&quot;&gt;&lt;font face=&quot;GOSTRUS Type A&quot; style=&quot;font-size: 20px;&quot;&gt;&lt;span style=&quot;font-size: 20px;&quot;&gt;PB7&lt;/span&gt;&lt;/font&gt;&lt;/div&gt;" style="text;whiteSpace=wrap;html=1;fontStyle=2;fontSize=20;" parent="-3bvXb9xsOaprucixAK7-1" vertex="1">
          <mxGeometry x="322.444" y="588.3639999999999" width="38.3" height="25.86" as="geometry" />
        </mxCell>
        <mxCell id="KPo18gjHCp797co_jhMr-115" value="&lt;div style=&quot;text-align: center; font-size: 20px;&quot;&gt;&lt;font face=&quot;GOSTRUS Type A&quot; style=&quot;font-size: 20px;&quot;&gt;&lt;span style=&quot;font-size: 20px;&quot;&gt;PB8&lt;/span&gt;&lt;/font&gt;&lt;/div&gt;" style="text;whiteSpace=wrap;html=1;fontStyle=2;fontSize=20;" parent="-3bvXb9xsOaprucixAK7-1" vertex="1">
          <mxGeometry x="322.441" y="697.4909999999998" width="38.3" height="25.86" as="geometry" />
        </mxCell>
        <mxCell id="KPo18gjHCp797co_jhMr-116" value="&lt;div style=&quot;line-height: 100%; font-size: 16px;&quot;&gt;&lt;font style=&quot;font-size: 16px;&quot;&gt;&lt;span style=&quot;font-size: 16px;&quot;&gt;Кнопка следующего алгоритма&lt;/span&gt;&lt;/font&gt;&lt;/div&gt;" style="text;whiteSpace=wrap;html=1;align=center;fontStyle=2;fontFamily=GOSTRUS Type A;fontSize=16;verticalAlign=middle;" parent="-3bvXb9xsOaprucixAK7-1" vertex="1">
          <mxGeometry x="225.54" y="405.73" width="110.24" height="32.26" as="geometry" />
        </mxCell>
        <mxCell id="KPo18gjHCp797co_jhMr-118" value="&lt;div style=&quot;line-height: 100%;&quot;&gt;&lt;font face=&quot;GOSTRUS Type A&quot;&gt;&lt;span style=&quot;font-size: 16px;&quot;&gt;Кнопка предыдущего алгоритма&lt;/span&gt;&lt;/font&gt;&lt;/div&gt;" style="text;whiteSpace=wrap;html=1;align=center;fontStyle=2;fontSize=16;fontFamily=GOSTRUS Type A;verticalAlign=middle;" parent="-3bvXb9xsOaprucixAK7-1" vertex="1">
          <mxGeometry x="225.54" y="510.31" width="116.98" height="33.99" as="geometry" />
        </mxCell>
        <mxCell id="KPo18gjHCp797co_jhMr-119" value="&lt;div style=&quot;line-height: 100%;&quot;&gt;&lt;font face=&quot;GOSTRUS Type A&quot;&gt;&lt;span style=&quot;font-size: 16px;&quot;&gt;Кнопка выбора алгоритма&lt;/span&gt;&lt;/font&gt;&lt;/div&gt;" style="text;whiteSpace=wrap;html=1;align=center;fontStyle=2;fontSize=16;fontFamily=GOSTRUS Type A;verticalAlign=middle;" parent="-3bvXb9xsOaprucixAK7-1" vertex="1">
          <mxGeometry x="225.53400000000002" y="629.1940000000001" width="110.24" height="32.26" as="geometry" />
        </mxCell>
        <mxCell id="KPo18gjHCp797co_jhMr-120" value="&lt;div style=&quot;line-height: 100%;&quot;&gt;&lt;font face=&quot;GOSTRUS Type A&quot;&gt;&lt;span style=&quot;font-size: 16px;&quot;&gt;Кнопка перезапуска вычислений&lt;/span&gt;&lt;/font&gt;&lt;/div&gt;" style="text;whiteSpace=wrap;html=1;align=center;fontStyle=2;fontSize=16;fontFamily=GOSTRUS Type A;verticalAlign=middle;" parent="-3bvXb9xsOaprucixAK7-1" vertex="1">
          <mxGeometry x="225.53100000000003" y="735.4910000000001" width="110.24" height="32.26" as="geometry" />
        </mxCell>
        <mxCell id="EKMDH8cztS3GwZSEMy-4-85" value="" style="endArrow=none;html=1;rounded=0;fontStyle=2" parent="-3bvXb9xsOaprucixAK7-1" edge="1">
          <mxGeometry width="50" height="50" relative="1" as="geometry">
            <mxPoint x="86.86399999999986" y="116.174" as="sourcePoint" />
            <mxPoint x="119.86399999999986" y="116.174" as="targetPoint" />
          </mxGeometry>
        </mxCell>
        <mxCell id="EKMDH8cztS3GwZSEMy-4-88" value="&lt;div style=&quot;text-align: center;&quot;&gt;&lt;font face=&quot;GOSTRUS Type A&quot;&gt;&lt;span style=&quot;font-size: 20px;&quot;&gt;&lt;span&gt;GND&lt;/span&gt;&lt;/span&gt;&lt;/font&gt;&lt;/div&gt;" style="text;whiteSpace=wrap;html=1;fontStyle=2" parent="-3bvXb9xsOaprucixAK7-1" vertex="1">
          <mxGeometry x="86.89399999999976" y="109.89399999999999" width="35.42" height="32.26" as="geometry" />
        </mxCell>
        <mxCell id="EKMDH8cztS3GwZSEMy-4-89" value="" style="endArrow=none;html=1;rounded=0;fontStyle=2" parent="-3bvXb9xsOaprucixAK7-1" edge="1">
          <mxGeometry width="50" height="50" relative="1" as="geometry">
            <mxPoint x="103.82" y="115.69" as="sourcePoint" />
            <mxPoint x="139.32" y="80.69" as="targetPoint" />
            <Array as="points">
              <mxPoint x="103.82" y="80.69" />
            </Array>
          </mxGeometry>
        </mxCell>
        <mxCell id="EKMDH8cztS3GwZSEMy-4-90" value="" style="endArrow=none;html=1;rounded=0;fontStyle=2" parent="-3bvXb9xsOaprucixAK7-1" edge="1">
          <mxGeometry width="50" height="50" relative="1" as="geometry">
            <mxPoint x="139.04999999999998" y="80.69" as="sourcePoint" />
            <mxPoint x="170.82" y="68.69" as="targetPoint" />
          </mxGeometry>
        </mxCell>
        <mxCell id="EKMDH8cztS3GwZSEMy-4-93" value="" style="endArrow=none;html=1;rounded=0;fontStyle=2" parent="-3bvXb9xsOaprucixAK7-1" edge="1">
          <mxGeometry width="50" height="50" relative="1" as="geometry">
            <mxPoint x="154.82" y="55.879999999999995" as="sourcePoint" />
            <mxPoint x="154.82" y="41.879999999999995" as="targetPoint" />
          </mxGeometry>
        </mxCell>
        <mxCell id="EKMDH8cztS3GwZSEMy-4-94" value="" style="endArrow=none;html=1;rounded=0;fontStyle=2" parent="-3bvXb9xsOaprucixAK7-1" edge="1">
          <mxGeometry width="50" height="50" relative="1" as="geometry">
            <mxPoint x="154.82" y="74.69" as="sourcePoint" />
            <mxPoint x="154.82" y="62.69" as="targetPoint" />
          </mxGeometry>
        </mxCell>
        <mxCell id="EKMDH8cztS3GwZSEMy-4-95" value="" style="endArrow=none;html=1;rounded=0;fontStyle=2" parent="-3bvXb9xsOaprucixAK7-1" edge="1">
          <mxGeometry width="50" height="50" relative="1" as="geometry">
            <mxPoint x="138.82" y="41.879999999999995" as="sourcePoint" />
            <mxPoint x="170.82" y="41.879999999999995" as="targetPoint" />
          </mxGeometry>
        </mxCell>
        <mxCell id="EKMDH8cztS3GwZSEMy-4-96" value="" style="endArrow=none;html=1;rounded=0;fontStyle=2" parent="-3bvXb9xsOaprucixAK7-1" edge="1">
          <mxGeometry width="50" height="50" relative="1" as="geometry">
            <mxPoint x="170.82" y="49.879999999999995" as="sourcePoint" />
            <mxPoint x="170.82" y="41.379999999999995" as="targetPoint" />
          </mxGeometry>
        </mxCell>
        <mxCell id="EKMDH8cztS3GwZSEMy-4-97" value="" style="endArrow=none;html=1;rounded=0;fontStyle=2" parent="-3bvXb9xsOaprucixAK7-1" edge="1">
          <mxGeometry width="50" height="50" relative="1" as="geometry">
            <mxPoint x="138.82" y="49.879999999999995" as="sourcePoint" />
            <mxPoint x="138.82" y="41.379999999999995" as="targetPoint" />
          </mxGeometry>
        </mxCell>
        <mxCell id="EKMDH8cztS3GwZSEMy-4-98" value="&lt;div style=&quot;text-align: center;&quot;&gt;&lt;font face=&quot;GOSTRUS Type A&quot;&gt;&lt;span style=&quot;font-size: 20px;&quot;&gt;&lt;span&gt;SB1&lt;/span&gt;&lt;/span&gt;&lt;/font&gt;&lt;/div&gt;" style="text;whiteSpace=wrap;html=1;fontStyle=2" parent="-3bvXb9xsOaprucixAK7-1" vertex="1">
          <mxGeometry x="139.98099999999977" y="11.820999999999986" width="35.42" height="32.26" as="geometry" />
        </mxCell>
        <mxCell id="EKMDH8cztS3GwZSEMy-4-99" value="" style="endArrow=none;html=1;rounded=0;fontStyle=2" parent="-3bvXb9xsOaprucixAK7-1" edge="1">
          <mxGeometry width="50" height="50" relative="1" as="geometry">
            <mxPoint x="185.35099999999989" y="143.741" as="sourcePoint" />
            <mxPoint x="218.35099999999989" y="143.741" as="targetPoint" />
          </mxGeometry>
        </mxCell>
        <mxCell id="EKMDH8cztS3GwZSEMy-4-102" value="&lt;div style=&quot;text-align: center;&quot;&gt;&lt;font face=&quot;GOSTRUS Type A&quot;&gt;&lt;span style=&quot;font-size: 20px;&quot;&gt;&lt;span&gt;GND&lt;/span&gt;&lt;/span&gt;&lt;/font&gt;&lt;/div&gt;" style="text;whiteSpace=wrap;html=1;fontStyle=2" parent="-3bvXb9xsOaprucixAK7-1" vertex="1">
          <mxGeometry x="184.00099999999978" y="136.411" width="35.42" height="32.26" as="geometry" />
        </mxCell>
        <mxCell id="EKMDH8cztS3GwZSEMy-4-103" value="" style="endArrow=none;html=1;rounded=0;fontStyle=2" parent="-3bvXb9xsOaprucixAK7-1" edge="1">
          <mxGeometry width="50" height="50" relative="1" as="geometry">
            <mxPoint x="170.82" y="80.69" as="sourcePoint" />
            <mxPoint x="201.82" y="80.69" as="targetPoint" />
          </mxGeometry>
        </mxCell>
        <mxCell id="EKMDH8cztS3GwZSEMy-4-104" value="" style="endArrow=none;html=1;rounded=0;fontStyle=2" parent="-3bvXb9xsOaprucixAK7-1" edge="1">
          <mxGeometry width="50" height="50" relative="1" as="geometry">
            <mxPoint x="189.17000000000002" y="112.43" as="sourcePoint" />
            <mxPoint x="214.17000000000002" y="112.43" as="targetPoint" />
          </mxGeometry>
        </mxCell>
        <mxCell id="EKMDH8cztS3GwZSEMy-4-105" value="" style="endArrow=none;html=1;rounded=0;fontStyle=2" parent="-3bvXb9xsOaprucixAK7-1" edge="1">
          <mxGeometry width="50" height="50" relative="1" as="geometry">
            <mxPoint x="189.17000000000002" y="116.43" as="sourcePoint" />
            <mxPoint x="214.17000000000002" y="116.43" as="targetPoint" />
          </mxGeometry>
        </mxCell>
        <mxCell id="EKMDH8cztS3GwZSEMy-4-106" value="" style="endArrow=none;html=1;rounded=0;fontStyle=2" parent="-3bvXb9xsOaprucixAK7-1" edge="1">
          <mxGeometry width="50" height="50" relative="1" as="geometry">
            <mxPoint x="201.82" y="112.69" as="sourcePoint" />
            <mxPoint x="201.82" y="80.19" as="targetPoint" />
          </mxGeometry>
        </mxCell>
        <mxCell id="EKMDH8cztS3GwZSEMy-4-107" value="" style="endArrow=none;html=1;rounded=0;fontStyle=2" parent="-3bvXb9xsOaprucixAK7-1" edge="1">
          <mxGeometry width="50" height="50" relative="1" as="geometry">
            <mxPoint x="201.82" y="143.69" as="sourcePoint" />
            <mxPoint x="201.82" y="116.69" as="targetPoint" />
          </mxGeometry>
        </mxCell>
        <mxCell id="EKMDH8cztS3GwZSEMy-4-108" value="&lt;div style=&quot;text-align: center;&quot;&gt;&lt;font face=&quot;GOSTRUS Type A&quot;&gt;&lt;span style=&quot;font-size: 20px;&quot;&gt;&lt;span&gt;C3&lt;/span&gt;&lt;/span&gt;&lt;/font&gt;&lt;/div&gt;" style="text;whiteSpace=wrap;html=1;fontStyle=2" parent="-3bvXb9xsOaprucixAK7-1" vertex="1">
          <mxGeometry x="213.85000000000002" y="96.49" width="19.68" height="27.55" as="geometry" />
        </mxCell>
        <mxCell id="EKMDH8cztS3GwZSEMy-4-109" value="&lt;div style=&quot;text-align: center;&quot;&gt;&lt;font face=&quot;GOSTRUS Type A&quot;&gt;&lt;span style=&quot;font-size: 20px;&quot;&gt;&lt;span&gt;VCC&lt;/span&gt;&lt;/span&gt;&lt;/font&gt;&lt;/div&gt;" style="text;whiteSpace=wrap;html=1;fontStyle=2" parent="-3bvXb9xsOaprucixAK7-1" vertex="1">
          <mxGeometry x="185.96399999999977" y="-13.746000000000008" width="35.42" height="32.26" as="geometry" />
        </mxCell>
        <mxCell id="EKMDH8cztS3GwZSEMy-4-111" value="" style="rounded=0;whiteSpace=wrap;html=1;rotation=90;fontStyle=2" parent="-3bvXb9xsOaprucixAK7-1" vertex="1">
          <mxGeometry x="185.95699999999988" y="45.30699999999999" width="31.5" height="15.3" as="geometry" />
        </mxCell>
        <mxCell id="EKMDH8cztS3GwZSEMy-4-112" value="" style="endArrow=none;html=1;rounded=0;entryX=1;entryY=0.5;entryDx=0;entryDy=0;fontStyle=2" parent="-3bvXb9xsOaprucixAK7-1" target="EKMDH8cztS3GwZSEMy-4-111" edge="1">
          <mxGeometry width="50" height="50" relative="1" as="geometry">
            <mxPoint x="201.82" y="80.69" as="sourcePoint" />
            <mxPoint x="239.82" y="72.69" as="targetPoint" />
          </mxGeometry>
        </mxCell>
        <mxCell id="EKMDH8cztS3GwZSEMy-4-113" value="" style="endArrow=blockThin;html=1;rounded=0;exitX=0;exitY=0.5;exitDx=0;exitDy=0;endFill=1;fontStyle=2" parent="-3bvXb9xsOaprucixAK7-1" source="EKMDH8cztS3GwZSEMy-4-111" edge="1">
          <mxGeometry width="50" height="50" relative="1" as="geometry">
            <mxPoint x="178.82" y="43.69" as="sourcePoint" />
            <mxPoint x="201.82" y="13.69" as="targetPoint" />
          </mxGeometry>
        </mxCell>
        <mxCell id="EKMDH8cztS3GwZSEMy-4-115" value="" style="ellipse;whiteSpace=wrap;html=1;aspect=fixed;fillColor=#000000;fontStyle=2" parent="-3bvXb9xsOaprucixAK7-1" vertex="1">
          <mxGeometry x="200.32" y="79.204" width="3" height="3" as="geometry" />
        </mxCell>
        <mxCell id="EKMDH8cztS3GwZSEMy-4-116" value="&lt;div style=&quot;line-height: 100%;&quot;&gt;&lt;font size=&quot;1&quot; face=&quot;GOSTRUS Type A&quot;&gt;&lt;span style=&quot;font-size: 16px;&quot;&gt;Кнопка сброса&lt;/span&gt;&lt;/font&gt;&lt;/div&gt;" style="text;whiteSpace=wrap;html=1;align=center;fontStyle=2" parent="-3bvXb9xsOaprucixAK7-1" vertex="1">
          <mxGeometry x="135.11099999999976" y="79.201" width="35.42" height="32.26" as="geometry" />
        </mxCell>
        <mxCell id="EKMDH8cztS3GwZSEMy-4-118" value="&lt;div style=&quot;text-align: center;&quot;&gt;&lt;font face=&quot;GOSTRUS Type A&quot;&gt;&lt;span style=&quot;font-size: 20px;&quot;&gt;&lt;span&gt;R1&lt;/span&gt;&lt;/span&gt;&lt;/font&gt;&lt;/div&gt;" style="text;whiteSpace=wrap;html=1;fontStyle=2" parent="-3bvXb9xsOaprucixAK7-1" vertex="1">
          <mxGeometry x="213.85099999999977" y="36.83099999999999" width="35.42" height="32.26" as="geometry" />
        </mxCell>
        <mxCell id="EKMDH8cztS3GwZSEMy-4-335" value="" style="endArrow=none;html=1;rounded=0;exitX=1;exitY=0.5;exitDx=0;exitDy=0;fontStyle=2" parent="-3bvXb9xsOaprucixAK7-1" source="EKMDH8cztS3GwZSEMy-4-115" edge="1">
          <mxGeometry width="50" height="50" relative="1" as="geometry">
            <mxPoint x="334.43" y="99.44" as="sourcePoint" />
            <mxPoint x="260.43" y="80.44" as="targetPoint" />
          </mxGeometry>
        </mxCell>
        <mxCell id="EKMDH8cztS3GwZSEMy-4-644" value="" style="group" parent="-3bvXb9xsOaprucixAK7-1" vertex="1" connectable="0">
          <mxGeometry x="-172.97599999999994" y="233.28500000000003" width="354.44299999999987" height="556.7150000000001" as="geometry" />
        </mxCell>
        <mxCell id="EKMDH8cztS3GwZSEMy-4-654" value="" style="endArrow=none;html=1;rounded=0;exitX=1;exitY=0.5;exitDx=0;exitDy=0;edgeStyle=orthogonalEdgeStyle;" parent="EKMDH8cztS3GwZSEMy-4-644" source="vOHkRYajVhE0JcnJ958T-26" edge="1">
          <mxGeometry width="50" height="50" relative="1" as="geometry">
            <mxPoint x="4.395999999999447" y="210.41204000000016" as="sourcePoint" />
            <mxPoint x="491.97599999999994" y="2.714999999999975" as="targetPoint" />
            <Array as="points">
              <mxPoint x="279" y="187" />
              <mxPoint x="279" y="3" />
              <mxPoint x="393" y="3" />
            </Array>
          </mxGeometry>
        </mxCell>
        <mxCell id="vOHkRYajVhE0JcnJ958T-8" value="" style="group" parent="EKMDH8cztS3GwZSEMy-4-644" vertex="1" connectable="0">
          <mxGeometry x="-73.74400000000006" y="-19.285000000000025" width="161.32" height="60.09100000000001" as="geometry" />
        </mxCell>
        <mxCell id="vOHkRYajVhE0JcnJ958T-20" value="RS-232" style="edgeStyle=orthogonalEdgeStyle;rounded=0;orthogonalLoop=1;jettySize=auto;html=1;exitX=1;exitY=0.75;exitDx=0;exitDy=0;fontSize=16;fontFamily=GOSTRUS Type A;fontStyle=2;labelBackgroundColor=none;" parent="vOHkRYajVhE0JcnJ958T-8" source="vOHkRYajVhE0JcnJ958T-6" edge="1">
          <mxGeometry x="-0.0042" y="7" relative="1" as="geometry">
            <mxPoint x="270.72" y="45" as="targetPoint" />
            <mxPoint x="-7" y="-7" as="offset" />
          </mxGeometry>
        </mxCell>
        <mxCell id="vOHkRYajVhE0JcnJ958T-21" value="К ПЭВМ" style="rounded=0;orthogonalLoop=1;jettySize=auto;html=1;exitX=1;exitY=0.25;exitDx=0;exitDy=0;labelBackgroundColor=none;fontSize=16;fontFamily=GOSTRUS Type A;fontStyle=2" parent="vOHkRYajVhE0JcnJ958T-8" source="vOHkRYajVhE0JcnJ958T-6" edge="1">
          <mxGeometry x="-0.0146" y="9" relative="1" as="geometry">
            <mxPoint x="270.72" y="15" as="targetPoint" />
            <mxPoint as="offset" />
          </mxGeometry>
        </mxCell>
        <mxCell id="vOHkRYajVhE0JcnJ958T-6" value="" style="rounded=0;whiteSpace=wrap;html=1;" parent="vOHkRYajVhE0JcnJ958T-8" vertex="1">
          <mxGeometry width="161.32" height="60" as="geometry" />
        </mxCell>
        <mxCell id="vOHkRYajVhE0JcnJ958T-7" value="" style="rounded=0;whiteSpace=wrap;html=1;" parent="vOHkRYajVhE0JcnJ958T-8" vertex="1">
          <mxGeometry x="34.120000000000005" width="93.08" height="60" as="geometry" />
        </mxCell>
        <mxCell id="vOHkRYajVhE0JcnJ958T-11" value="TIN" style="text;html=1;strokeColor=none;fillColor=none;align=center;verticalAlign=middle;whiteSpace=wrap;rounded=0;fontStyle=2;fontSize=16;fontFamily=GOSTRUS Type A;" parent="vOHkRYajVhE0JcnJ958T-8" vertex="1">
          <mxGeometry width="31.5" height="30" as="geometry" />
        </mxCell>
        <mxCell id="vOHkRYajVhE0JcnJ958T-16" value="ROUT" style="text;html=1;strokeColor=none;fillColor=none;align=center;verticalAlign=middle;whiteSpace=wrap;rounded=0;fontStyle=2;fontSize=16;fontFamily=GOSTRUS Type A;" parent="vOHkRYajVhE0JcnJ958T-8" vertex="1">
          <mxGeometry x="-0.002999999999985903" y="29.997000000000014" width="31.5" height="30" as="geometry" />
        </mxCell>
        <mxCell id="vOHkRYajVhE0JcnJ958T-17" value="TOUT" style="text;html=1;strokeColor=none;fillColor=none;align=center;verticalAlign=middle;whiteSpace=wrap;rounded=0;fontStyle=2;fontSize=16;fontFamily=GOSTRUS Type A;" parent="vOHkRYajVhE0JcnJ958T-8" vertex="1">
          <mxGeometry x="127.204" y="0.003999999999990678" width="31.5" height="30" as="geometry" />
        </mxCell>
        <mxCell id="vOHkRYajVhE0JcnJ958T-18" value="RIN" style="text;html=1;strokeColor=none;fillColor=none;align=center;verticalAlign=middle;whiteSpace=wrap;rounded=0;fontStyle=2;fontSize=16;fontFamily=GOSTRUS Type A;" parent="vOHkRYajVhE0JcnJ958T-8" vertex="1">
          <mxGeometry x="127.20100000000001" y="30.091000000000008" width="31.5" height="30" as="geometry" />
        </mxCell>
        <mxCell id="vOHkRYajVhE0JcnJ958T-31" value="" style="group" parent="EKMDH8cztS3GwZSEMy-4-644" vertex="1" connectable="0">
          <mxGeometry x="-34.14" y="133.86" width="120.81000000000002" height="157.48" as="geometry" />
        </mxCell>
        <mxCell id="vOHkRYajVhE0JcnJ958T-23" value="" style="rounded=0;whiteSpace=wrap;html=1;" parent="vOHkRYajVhE0JcnJ958T-31" vertex="1">
          <mxGeometry width="120" height="157.48" as="geometry" />
        </mxCell>
        <mxCell id="vOHkRYajVhE0JcnJ958T-26" value="CS" style="text;html=1;strokeColor=none;fillColor=none;align=center;verticalAlign=middle;whiteSpace=wrap;rounded=0;fontStyle=2;fontSize=16;fontFamily=GOSTRUS Type A;" parent="vOHkRYajVhE0JcnJ958T-31" vertex="1">
          <mxGeometry x="88.49699999999991" y="38.03599999999999" width="31.5" height="30" as="geometry" />
        </mxCell>
        <mxCell id="acj5J4ve_2sWM85sWl8q-0" style="edgeStyle=orthogonalEdgeStyle;rounded=0;orthogonalLoop=1;jettySize=auto;html=1;exitX=1;exitY=0.5;exitDx=0;exitDy=0;fontFamily=Helvetica;fontSize=20;fontColor=default;endArrow=none;endFill=0;" parent="vOHkRYajVhE0JcnJ958T-31" source="vOHkRYajVhE0JcnJ958T-27" edge="1">
          <mxGeometry relative="1" as="geometry">
            <mxPoint x="514.116" y="-99.14500000000004" as="targetPoint" />
            <Array as="points">
              <mxPoint x="325" y="83" />
              <mxPoint x="325" y="-99" />
            </Array>
          </mxGeometry>
        </mxCell>
        <mxCell id="vOHkRYajVhE0JcnJ958T-27" value="CLK" style="text;html=1;strokeColor=none;fillColor=none;align=center;verticalAlign=middle;whiteSpace=wrap;rounded=0;fontStyle=2;fontSize=16;fontFamily=GOSTRUS Type A;" parent="vOHkRYajVhE0JcnJ958T-31" vertex="1">
          <mxGeometry x="88.50399999999992" y="68.03300000000002" width="31.5" height="30" as="geometry" />
        </mxCell>
        <mxCell id="acj5J4ve_2sWM85sWl8q-2" style="edgeStyle=orthogonalEdgeStyle;rounded=0;orthogonalLoop=1;jettySize=auto;html=1;exitX=1;exitY=0.5;exitDx=0;exitDy=0;fontFamily=Helvetica;fontSize=20;fontColor=default;endArrow=none;endFill=0;" parent="vOHkRYajVhE0JcnJ958T-31" source="vOHkRYajVhE0JcnJ958T-28" edge="1">
          <mxGeometry relative="1" as="geometry">
            <mxPoint x="518.116" y="-67" as="targetPoint" />
            <Array as="points">
              <mxPoint x="337" y="112" />
              <mxPoint x="337" y="-67" />
            </Array>
          </mxGeometry>
        </mxCell>
        <mxCell id="vOHkRYajVhE0JcnJ958T-28" value="DO" style="text;html=1;strokeColor=none;fillColor=none;align=center;verticalAlign=middle;whiteSpace=wrap;rounded=0;fontStyle=2;fontSize=16;fontFamily=GOSTRUS Type A;" parent="vOHkRYajVhE0JcnJ958T-31" vertex="1">
          <mxGeometry x="88.50099999999993" y="97.42000000000002" width="31.5" height="30" as="geometry" />
        </mxCell>
        <mxCell id="vOHkRYajVhE0JcnJ958T-29" value="DI" style="text;html=1;strokeColor=none;fillColor=none;align=center;verticalAlign=middle;whiteSpace=wrap;rounded=0;fontStyle=2;fontSize=16;fontFamily=GOSTRUS Type A;" parent="vOHkRYajVhE0JcnJ958T-31" vertex="1">
          <mxGeometry x="88.50799999999994" y="127.41700000000003" width="31.5" height="30" as="geometry" />
        </mxCell>
        <mxCell id="vOHkRYajVhE0JcnJ958T-30" value="" style="shape=or;whiteSpace=wrap;html=1;direction=south;" parent="vOHkRYajVhE0JcnJ958T-31" vertex="1">
          <mxGeometry y="0.009999999999990905" width="120.81" height="43.29" as="geometry" />
        </mxCell>
        <mxCell id="vOHkRYajVhE0JcnJ958T-1" value="&lt;font face=&quot;GOSTRUS Type A&quot; style=&quot;font-size: 16px;&quot;&gt;&lt;i&gt;PA3&lt;/i&gt;&lt;/font&gt;" style="endArrow=none;html=1;rounded=0;entryX=0;entryY=0.5;entryDx=0;entryDy=0;edgeStyle=orthogonalEdgeStyle;labelBackgroundColor=none;" parent="-3bvXb9xsOaprucixAK7-1" target="vOHkRYajVhE0JcnJ958T-11" edge="1">
          <mxGeometry x="-0.9659" y="-8" width="50" height="50" relative="1" as="geometry">
            <mxPoint x="43" y="142" as="sourcePoint" />
            <mxPoint x="-229.33498000000054" y="388.34820000000036" as="targetPoint" />
            <Array as="points">
              <mxPoint x="-307" y="142" />
              <mxPoint x="-307" y="229" />
            </Array>
            <mxPoint as="offset" />
          </mxGeometry>
        </mxCell>
        <mxCell id="vOHkRYajVhE0JcnJ958T-2" value="PA2" style="endArrow=none;html=1;rounded=0;entryX=0;entryY=0.5;entryDx=0;entryDy=0;edgeStyle=orthogonalEdgeStyle;exitX=0.67;exitY=-0.012;exitDx=0;exitDy=0;exitPerimeter=0;fontSize=16;fontFamily=GOSTRUS Type A;fontStyle=2;labelBackgroundColor=none;" parent="-3bvXb9xsOaprucixAK7-1" target="vOHkRYajVhE0JcnJ958T-16" edge="1">
          <mxGeometry x="-0.97" y="-11" width="50" height="50" relative="1" as="geometry">
            <mxPoint x="43.43859999999995" y="116.81904000000009" as="sourcePoint" />
            <mxPoint x="-230.39590000000044" y="446.0706" as="targetPoint" />
            <Array as="points">
              <mxPoint x="-327" y="117" />
              <mxPoint x="-327" y="259" />
            </Array>
            <mxPoint as="offset" />
          </mxGeometry>
        </mxCell>
        <mxCell id="vOHkRYajVhE0JcnJ958T-9" value="Драйвер RS-232" style="text;html=1;strokeColor=none;fillColor=none;align=center;verticalAlign=middle;whiteSpace=wrap;rounded=0;fontStyle=2;fontSize=16;fontFamily=GOSTRUS Type A;" parent="-3bvXb9xsOaprucixAK7-1" vertex="1">
          <mxGeometry x="-212.6" y="188.9" width="98.64" height="30" as="geometry" />
        </mxCell>
        <mxCell id="vOHkRYajVhE0JcnJ958T-25" value="Сокет SD-карты BOB-12941" style="text;html=1;strokeColor=none;fillColor=none;align=center;verticalAlign=middle;whiteSpace=wrap;rounded=0;fontStyle=2;fontSize=16;fontFamily=GOSTRUS Type A;" parent="-3bvXb9xsOaprucixAK7-1" vertex="1">
          <mxGeometry x="-224.41" y="338.64" width="148.09" height="30" as="geometry" />
        </mxCell>
        <mxCell id="vOHkRYajVhE0JcnJ958T-44" value="" style="endArrow=none;html=1;rounded=0;" parent="-3bvXb9xsOaprucixAK7-1" edge="1">
          <mxGeometry width="50" height="50" relative="1" as="geometry">
            <mxPoint x="361.744" y="282.86400000000003" as="sourcePoint" />
            <mxPoint x="346.244" y="267.86400000000003" as="targetPoint" />
          </mxGeometry>
        </mxCell>
        <mxCell id="vOHkRYajVhE0JcnJ958T-45" value="" style="endArrow=none;html=1;rounded=0;" parent="-3bvXb9xsOaprucixAK7-1" edge="1">
          <mxGeometry width="50" height="50" relative="1" as="geometry">
            <mxPoint x="307" y="268" as="sourcePoint" />
            <mxPoint x="346.84400000000005" y="267.86400000000003" as="targetPoint" />
          </mxGeometry>
        </mxCell>
        <mxCell id="vOHkRYajVhE0JcnJ958T-46" value="" style="endArrow=none;html=1;rounded=0;" parent="-3bvXb9xsOaprucixAK7-1" edge="1">
          <mxGeometry width="50" height="50" relative="1" as="geometry">
            <mxPoint x="361.73400000000004" y="251.01100000000008" as="sourcePoint" />
            <mxPoint x="347.831" y="236.01100000000005" as="targetPoint" />
          </mxGeometry>
        </mxCell>
        <mxCell id="vOHkRYajVhE0JcnJ958T-47" value="" style="endArrow=none;html=1;rounded=0;" parent="-3bvXb9xsOaprucixAK7-1" edge="1">
          <mxGeometry width="50" height="50" relative="1" as="geometry">
            <mxPoint x="308" y="236" as="sourcePoint" />
            <mxPoint x="347.831" y="236.01100000000005" as="targetPoint" />
          </mxGeometry>
        </mxCell>
        <mxCell id="vOHkRYajVhE0JcnJ958T-48" value="" style="endArrow=none;html=1;rounded=0;" parent="-3bvXb9xsOaprucixAK7-1" edge="1">
          <mxGeometry width="50" height="50" relative="1" as="geometry">
            <mxPoint x="361.934" y="315.058" as="sourcePoint" />
            <mxPoint x="347.038" y="300.058" as="targetPoint" />
          </mxGeometry>
        </mxCell>
        <mxCell id="vOHkRYajVhE0JcnJ958T-49" value="" style="endArrow=none;html=1;rounded=0;" parent="-3bvXb9xsOaprucixAK7-1" edge="1">
          <mxGeometry width="50" height="50" relative="1" as="geometry">
            <mxPoint x="307" y="300" as="sourcePoint" />
            <mxPoint x="347.038" y="300.058" as="targetPoint" />
          </mxGeometry>
        </mxCell>
        <mxCell id="vOHkRYajVhE0JcnJ958T-52" value="&lt;div style=&quot;text-align: center; font-size: 20px;&quot;&gt;&lt;font face=&quot;GOSTRUS Type A&quot; style=&quot;font-size: 20px;&quot;&gt;&lt;span style=&quot;font-size: 20px;&quot;&gt;PB10&lt;/span&gt;&lt;/font&gt;&lt;/div&gt;" style="text;whiteSpace=wrap;html=1;fontStyle=2;fontSize=20;verticalAlign=middle;" parent="-3bvXb9xsOaprucixAK7-1" vertex="1">
          <mxGeometry x="309.81" y="214.28" width="37.64" height="17.66" as="geometry" />
        </mxCell>
        <mxCell id="vOHkRYajVhE0JcnJ958T-53" value="&lt;div style=&quot;font-size: 20px;&quot;&gt;&lt;font face=&quot;GOSTRUS Type A&quot; style=&quot;font-size: 20px;&quot;&gt;&lt;span style=&quot;font-size: 20px;&quot;&gt;PB13&lt;/span&gt;&lt;/font&gt;&lt;/div&gt;" style="text;whiteSpace=wrap;html=1;fontStyle=2;fontSize=20;align=left;verticalAlign=middle;" parent="-3bvXb9xsOaprucixAK7-1" vertex="1">
          <mxGeometry x="309.81" y="247.77999999999997" width="33.71" height="16.15" as="geometry" />
        </mxCell>
        <mxCell id="vOHkRYajVhE0JcnJ958T-54" value="&lt;div style=&quot;text-align: center; font-size: 20px;&quot;&gt;&lt;font face=&quot;GOSTRUS Type A&quot; style=&quot;font-size: 20px;&quot;&gt;&lt;span style=&quot;font-size: 20px;&quot;&gt;PB14&lt;/span&gt;&lt;/font&gt;&lt;/div&gt;" style="text;whiteSpace=wrap;html=1;fontStyle=2;fontSize=20;verticalAlign=middle;" parent="-3bvXb9xsOaprucixAK7-1" vertex="1">
          <mxGeometry x="311.4" y="279.34" width="31.12" height="15.75" as="geometry" />
        </mxCell>
        <mxCell id="acj5J4ve_2sWM85sWl8q-9" value="" style="endArrow=open;html=1;rounded=0;endFill=0;fontStyle=2" parent="-3bvXb9xsOaprucixAK7-1" edge="1">
          <mxGeometry width="50" height="50" relative="1" as="geometry">
            <mxPoint x="188.53500000000005" y="236" as="sourcePoint" />
            <mxPoint x="168.53500000000005" y="236" as="targetPoint" />
          </mxGeometry>
        </mxCell>
        <mxCell id="acj5J4ve_2sWM85sWl8q-10" value="&lt;span style=&quot;color: rgb(0, 0, 0); font-size: 16px; font-style: italic; font-variant-ligatures: normal; font-variant-caps: normal; font-weight: 400; letter-spacing: normal; orphans: 2; text-align: center; text-indent: 0px; text-transform: none; widows: 2; word-spacing: 0px; -webkit-text-stroke-width: 0px; text-decoration-thickness: initial; text-decoration-style: initial; text-decoration-color: initial; float: none; display: inline !important;&quot;&gt;CS&lt;/span&gt;" style="text;whiteSpace=wrap;html=1;verticalAlign=middle;fontFamily=GOSTRUS Type A;fontSize=16;fontStyle=2;labelBackgroundColor=none;" parent="-3bvXb9xsOaprucixAK7-1" vertex="1">
          <mxGeometry x="164.88700000000003" y="216.32700000000003" width="16.31" height="15.6" as="geometry" />
        </mxCell>
        <mxCell id="acj5J4ve_2sWM85sWl8q-14" value="" style="endArrow=open;html=1;rounded=0;endFill=0;fontStyle=2" parent="-3bvXb9xsOaprucixAK7-1" edge="1">
          <mxGeometry width="50" height="50" relative="1" as="geometry">
            <mxPoint x="189.50200000000007" y="267.457" as="sourcePoint" />
            <mxPoint x="169.50200000000007" y="267.457" as="targetPoint" />
          </mxGeometry>
        </mxCell>
        <mxCell id="acj5J4ve_2sWM85sWl8q-15" value="&lt;span style=&quot;color: rgb(0, 0, 0); font-size: 16px; font-style: italic; font-variant-ligatures: normal; font-variant-caps: normal; font-weight: 400; letter-spacing: normal; orphans: 2; text-align: center; text-indent: 0px; text-transform: none; widows: 2; word-spacing: 0px; -webkit-text-stroke-width: 0px; text-decoration-thickness: initial; text-decoration-style: initial; text-decoration-color: initial; float: none; display: inline !important;&quot;&gt;SPI2_CLK&lt;/span&gt;" style="text;whiteSpace=wrap;html=1;verticalAlign=middle;fontFamily=GOSTRUS Type A;fontSize=16;fontStyle=2;labelBackgroundColor=none;" parent="-3bvXb9xsOaprucixAK7-1" vertex="1">
          <mxGeometry x="165.85" y="247.78" width="54.62" height="15.6" as="geometry" />
        </mxCell>
        <mxCell id="acj5J4ve_2sWM85sWl8q-16" value="" style="endArrow=open;html=1;rounded=0;endFill=0;fontStyle=2" parent="-3bvXb9xsOaprucixAK7-1" edge="1">
          <mxGeometry width="50" height="50" relative="1" as="geometry">
            <mxPoint x="189.41900000000007" y="300.014" as="sourcePoint" />
            <mxPoint x="169.41900000000007" y="300.014" as="targetPoint" />
          </mxGeometry>
        </mxCell>
        <mxCell id="acj5J4ve_2sWM85sWl8q-17" value="&lt;span style=&quot;color: rgb(0, 0, 0); font-size: 16px; font-style: italic; font-variant-ligatures: normal; font-variant-caps: normal; font-weight: 400; letter-spacing: normal; orphans: 2; text-align: center; text-indent: 0px; text-transform: none; widows: 2; word-spacing: 0px; -webkit-text-stroke-width: 0px; text-decoration-thickness: initial; text-decoration-style: initial; text-decoration-color: initial; float: none; display: inline !important;&quot;&gt;SPI2_MISO&lt;/span&gt;" style="text;whiteSpace=wrap;html=1;verticalAlign=middle;fontFamily=GOSTRUS Type A;fontSize=16;fontStyle=2;labelBackgroundColor=none;" parent="-3bvXb9xsOaprucixAK7-1" vertex="1">
          <mxGeometry x="165.767" y="280.337" width="54.62" height="15.6" as="geometry" />
        </mxCell>
        <mxCell id="4rB_ZDRqA5qAUD8Cp_PL-1" style="edgeStyle=orthogonalEdgeStyle;rounded=0;orthogonalLoop=1;jettySize=auto;html=1;exitX=0.25;exitY=1;exitDx=0;exitDy=0;" edge="1" parent="-3bvXb9xsOaprucixAK7-1" source="4rB_ZDRqA5qAUD8Cp_PL-0">
          <mxGeometry relative="1" as="geometry">
            <mxPoint x="272" y="-87" as="targetPoint" />
            <Array as="points">
              <mxPoint x="273" y="-87" />
            </Array>
          </mxGeometry>
        </mxCell>
        <mxCell id="4rB_ZDRqA5qAUD8Cp_PL-2" style="edgeStyle=orthogonalEdgeStyle;rounded=0;orthogonalLoop=1;jettySize=auto;html=1;exitX=0.5;exitY=1;exitDx=0;exitDy=0;" edge="1" parent="-3bvXb9xsOaprucixAK7-1" source="4rB_ZDRqA5qAUD8Cp_PL-0">
          <mxGeometry relative="1" as="geometry">
            <mxPoint x="295" y="-63" as="targetPoint" />
            <Array as="points">
              <mxPoint x="296" y="-63" />
            </Array>
          </mxGeometry>
        </mxCell>
        <mxCell id="4rB_ZDRqA5qAUD8Cp_PL-3" style="edgeStyle=orthogonalEdgeStyle;rounded=0;orthogonalLoop=1;jettySize=auto;html=1;exitX=0.75;exitY=1;exitDx=0;exitDy=0;" edge="1" parent="-3bvXb9xsOaprucixAK7-1" source="4rB_ZDRqA5qAUD8Cp_PL-0">
          <mxGeometry relative="1" as="geometry">
            <mxPoint x="319" y="-24" as="targetPoint" />
          </mxGeometry>
        </mxCell>
        <mxCell id="4rB_ZDRqA5qAUD8Cp_PL-0" value="&lt;div style=&quot;text-align: center; font-size: 16px;&quot;&gt;&lt;font style=&quot;font-size: 16px;&quot;&gt;&lt;span style=&quot;font-size: 16px;&quot;&gt;От программатора&lt;/span&gt;&lt;/font&gt;&lt;/div&gt;" style="text;whiteSpace=wrap;html=1;fontStyle=2;container=0;verticalAlign=middle;fontFamily=GOSTRUS Type A;fontSize=16;" vertex="1" parent="-3bvXb9xsOaprucixAK7-1">
          <mxGeometry x="249.26999999999998" y="-177.15999999999997" width="93.16" height="33.36" as="geometry" />
        </mxCell>
        <mxCell id="4rB_ZDRqA5qAUD8Cp_PL-4" value="" style="endArrow=none;html=1;rounded=0;edgeStyle=orthogonalEdgeStyle;" edge="1" parent="-3bvXb9xsOaprucixAK7-1">
          <mxGeometry width="50" height="50" relative="1" as="geometry">
            <mxPoint x="319" y="43" as="sourcePoint" />
            <mxPoint x="318.72" y="-55.14" as="targetPoint" />
            <Array as="points">
              <mxPoint x="319" y="-27" />
              <mxPoint x="319" y="-27" />
            </Array>
          </mxGeometry>
        </mxCell>
        <mxCell id="4rB_ZDRqA5qAUD8Cp_PL-126" value="&lt;br&gt;" style="rounded=0;whiteSpace=wrap;html=1;dashed=1;perimeterSpacing=0;strokeWidth=2;fontStyle=2;fillColor=none;" vertex="1" parent="-3bvXb9xsOaprucixAK7-1">
          <mxGeometry x="414.987" y="-265.933" width="563.24" height="833.79" as="geometry" />
        </mxCell>
        <mxCell id="4rB_ZDRqA5qAUD8Cp_PL-127" value="&lt;font style=&quot;font-size: 20px;&quot;&gt;Cortex-M3 CPU&lt;/font&gt;" style="rounded=0;whiteSpace=wrap;html=1;fontSize=20;fontFamily=GOSTRUS Type A;fontStyle=2" vertex="1" parent="-3bvXb9xsOaprucixAK7-1">
          <mxGeometry x="511.857" y="-206.88299999999998" width="102.36" height="92.95" as="geometry" />
        </mxCell>
        <mxCell id="4rB_ZDRqA5qAUD8Cp_PL-128" value="" style="group;fontStyle=2" vertex="1" connectable="0" parent="-3bvXb9xsOaprucixAK7-1">
          <mxGeometry x="712.4469999999997" y="-194.813" width="38.65000000000032" height="192.92000000000007" as="geometry" />
        </mxCell>
        <mxCell id="4rB_ZDRqA5qAUD8Cp_PL-129" value="" style="shape=trapezoid;perimeter=trapezoidPerimeter;whiteSpace=wrap;html=1;fixedSize=1;rotation=90;size=29.357999999999947;fontFamily=GOSTRUS Type A;fontStyle=2;fontSize=20;horizontal=1;verticalAlign=middle;textDirection=rtl;" vertex="1" parent="4rB_ZDRqA5qAUD8Cp_PL-128">
          <mxGeometry x="-75.52999999999975" y="78.74000000000004" width="192.92" height="35.44" as="geometry" />
        </mxCell>
        <mxCell id="4rB_ZDRqA5qAUD8Cp_PL-130" value="&lt;span style=&quot;color: rgb(0, 0, 0); font-family: &amp;quot;GOSTRUS Type A&amp;quot;; font-size: 20px; font-variant-ligatures: normal; font-variant-caps: normal; font-weight: 400; letter-spacing: normal; orphans: 2; text-align: center; text-indent: 0px; text-transform: none; widows: 2; word-spacing: 0px; -webkit-text-stroke-width: 0px; background-color: rgb(255, 255, 255); text-decoration-thickness: initial; text-decoration-style: initial; text-decoration-color: initial; float: none; display: inline !important;&quot;&gt;Матрица шин&lt;/span&gt;" style="text;whiteSpace=wrap;html=1;rotation=-90;fontStyle=2" vertex="1" parent="4rB_ZDRqA5qAUD8Cp_PL-128">
          <mxGeometry x="-30.419999999999845" y="80.53000000000003" width="94.49" height="33.65" as="geometry" />
        </mxCell>
        <mxCell id="4rB_ZDRqA5qAUD8Cp_PL-131" value="&lt;p style=&quot;line-height: 80%;&quot;&gt;DMA&lt;br&gt;&lt;font style=&quot;font-size: 14px;&quot;&gt;7ми канальный&lt;/font&gt;&lt;/p&gt;" style="rounded=0;whiteSpace=wrap;html=1;fontSize=20;fontFamily=GOSTRUS Type A;fontStyle=2" vertex="1" parent="-3bvXb9xsOaprucixAK7-1">
          <mxGeometry x="557.0369999999998" y="-57.873000000000005" width="76.81" height="37.57" as="geometry" />
        </mxCell>
        <mxCell id="4rB_ZDRqA5qAUD8Cp_PL-132" value="" style="endArrow=open;startArrow=open;html=1;rounded=0;exitX=0.998;exitY=0.573;exitDx=0;exitDy=0;entryX=0.212;entryY=1.01;entryDx=0;entryDy=0;entryPerimeter=0;endFill=0;startFill=0;fontStyle=2;exitPerimeter=0;" edge="1" parent="-3bvXb9xsOaprucixAK7-1" source="4rB_ZDRqA5qAUD8Cp_PL-127" target="4rB_ZDRqA5qAUD8Cp_PL-129">
          <mxGeometry width="50" height="50" relative="1" as="geometry">
            <mxPoint x="634.7269999999999" y="-59.65299999999998" as="sourcePoint" />
            <mxPoint x="684.7269999999999" y="-109.65299999999999" as="targetPoint" />
          </mxGeometry>
        </mxCell>
        <mxCell id="4rB_ZDRqA5qAUD8Cp_PL-133" value="" style="endArrow=open;startArrow=open;html=1;rounded=0;entryX=0.212;entryY=1.01;entryDx=0;entryDy=0;entryPerimeter=0;endFill=0;startFill=0;exitX=1;exitY=0.5;exitDx=0;exitDy=0;fontStyle=2" edge="1" parent="-3bvXb9xsOaprucixAK7-1" source="4rB_ZDRqA5qAUD8Cp_PL-131">
          <mxGeometry width="50" height="50" relative="1" as="geometry">
            <mxPoint x="634.7269999999999" y="-38.65299999999998" as="sourcePoint" />
            <mxPoint x="715.7239999999997" y="-39.47599999999996" as="targetPoint" />
          </mxGeometry>
        </mxCell>
        <mxCell id="4rB_ZDRqA5qAUD8Cp_PL-134" value="&lt;div style=&quot;text-align: center;&quot;&gt;&lt;font face=&quot;GOSTRUS Type A&quot;&gt;&lt;span style=&quot;font-size: 20px;&quot;&gt;Dbus&lt;/span&gt;&lt;/font&gt;&lt;/div&gt;" style="text;whiteSpace=wrap;html=1;fontStyle=2;verticalAlign=middle;" vertex="1" parent="-3bvXb9xsOaprucixAK7-1">
          <mxGeometry x="638.707" y="-185.79299999999998" width="51.18" height="34.03" as="geometry" />
        </mxCell>
        <mxCell id="4rB_ZDRqA5qAUD8Cp_PL-135" value="Управление&lt;br&gt;синхронизацией и сбросом" style="rounded=0;whiteSpace=wrap;html=1;fontSize=16;fontFamily=GOSTRUS Type A;fontStyle=2" vertex="1" parent="-3bvXb9xsOaprucixAK7-1">
          <mxGeometry x="556.0369999999998" y="23.86699999999998" width="157.48" height="37.57" as="geometry" />
        </mxCell>
        <mxCell id="4rB_ZDRqA5qAUD8Cp_PL-136" value="&lt;p style=&quot;line-height: 100%;&quot;&gt;SRAM память&lt;/p&gt;" style="rounded=0;whiteSpace=wrap;html=1;fontSize=20;fontFamily=GOSTRUS Type A;fontStyle=2" vertex="1" parent="-3bvXb9xsOaprucixAK7-1">
          <mxGeometry x="790.7339999999998" y="-86.54599999999996" width="76.81" height="37.57" as="geometry" />
        </mxCell>
        <mxCell id="4rB_ZDRqA5qAUD8Cp_PL-137" value="&lt;p style=&quot;line-height: 100%;&quot;&gt;Flash память&lt;/p&gt;" style="rounded=0;whiteSpace=wrap;html=1;fontSize=20;fontFamily=GOSTRUS Type A;fontStyle=2" vertex="1" parent="-3bvXb9xsOaprucixAK7-1">
          <mxGeometry x="830.3670000000001" y="-184.91299999999998" width="61.95" height="80" as="geometry" />
        </mxCell>
        <mxCell id="4rB_ZDRqA5qAUD8Cp_PL-138" value="" style="endArrow=open;startArrow=open;html=1;rounded=0;entryX=0.212;entryY=1.01;entryDx=0;entryDy=0;entryPerimeter=0;endFill=0;startFill=0;exitX=0.66;exitY=0.013;exitDx=0;exitDy=0;exitPerimeter=0;fontStyle=2" edge="1" parent="-3bvXb9xsOaprucixAK7-1" source="4rB_ZDRqA5qAUD8Cp_PL-129">
          <mxGeometry width="50" height="50" relative="1" as="geometry">
            <mxPoint x="752.7269999999999" y="-67.65299999999998" as="sourcePoint" />
            <mxPoint x="790.7309999999994" y="-67.26899999999996" as="targetPoint" />
          </mxGeometry>
        </mxCell>
        <mxCell id="4rB_ZDRqA5qAUD8Cp_PL-139" value="" style="endArrow=open;startArrow=open;html=1;rounded=0;entryX=0.212;entryY=1.01;entryDx=0;entryDy=0;entryPerimeter=0;endFill=0;startFill=0;exitX=0.66;exitY=0.013;exitDx=0;exitDy=0;exitPerimeter=0;fontStyle=2" edge="1" parent="-3bvXb9xsOaprucixAK7-1">
          <mxGeometry width="50" height="50" relative="1" as="geometry">
            <mxPoint x="750.7239999999997" y="-146.396" as="sourcePoint" />
            <mxPoint x="790.7279999999993" y="-146.01199999999992" as="targetPoint" />
          </mxGeometry>
        </mxCell>
        <mxCell id="4rB_ZDRqA5qAUD8Cp_PL-140" value="&lt;p style=&quot;line-height: 100%; font-size: 16px;&quot;&gt;AHB2&lt;br&gt;APB2&lt;/p&gt;" style="rounded=0;whiteSpace=wrap;html=1;fontSize=20;fontFamily=GOSTRUS Type A;fontStyle=2" vertex="1" parent="-3bvXb9xsOaprucixAK7-1">
          <mxGeometry x="654.4669999999999" y="114.41699999999993" width="43.3" height="33.63" as="geometry" />
        </mxCell>
        <mxCell id="4rB_ZDRqA5qAUD8Cp_PL-141" value="&lt;p style=&quot;line-height: 100%; font-size: 16px;&quot;&gt;AHB2&lt;br&gt;APB1&lt;/p&gt;" style="rounded=0;whiteSpace=wrap;html=1;fontSize=20;fontFamily=GOSTRUS Type A;fontStyle=2" vertex="1" parent="-3bvXb9xsOaprucixAK7-1">
          <mxGeometry x="697.7639999999997" y="114.414" width="43.3" height="33.63" as="geometry" />
        </mxCell>
        <mxCell id="4rB_ZDRqA5qAUD8Cp_PL-142" value="" style="endArrow=open;startArrow=open;html=1;rounded=0;entryX=0.75;entryY=0;entryDx=0;entryDy=0;endFill=0;startFill=0;exitX=0.5;exitY=0;exitDx=0;exitDy=0;fontStyle=2" edge="1" parent="-3bvXb9xsOaprucixAK7-1" source="4rB_ZDRqA5qAUD8Cp_PL-140" target="4rB_ZDRqA5qAUD8Cp_PL-129">
          <mxGeometry width="50" height="50" relative="1" as="geometry">
            <mxPoint x="697.7639999999997" y="94.34399999999995" as="sourcePoint" />
            <mxPoint x="737.7679999999993" y="94.72800000000008" as="targetPoint" />
            <Array as="points">
              <mxPoint x="675.7269999999999" y="75.347" />
              <mxPoint x="776.7269999999997" y="75.347" />
              <mxPoint x="776.7269999999997" y="-49.65299999999998" />
            </Array>
          </mxGeometry>
        </mxCell>
        <mxCell id="4rB_ZDRqA5qAUD8Cp_PL-143" value="" style="endArrow=open;startArrow=open;html=1;rounded=0;endFill=0;startFill=0;strokeWidth=3;endSize=12;startSize=12;fontStyle=2" edge="1" parent="-3bvXb9xsOaprucixAK7-1">
          <mxGeometry width="50" height="50" relative="1" as="geometry">
            <mxPoint x="602.4169999999999" y="553.0269999999999" as="sourcePoint" />
            <mxPoint x="602.4169999999999" y="82.91699999999999" as="targetPoint" />
          </mxGeometry>
        </mxCell>
        <mxCell id="4rB_ZDRqA5qAUD8Cp_PL-144" value="" style="endArrow=open;startArrow=open;html=1;rounded=0;endFill=0;startFill=0;strokeWidth=3;endSize=12;startSize=12;fontStyle=2;" edge="1" parent="-3bvXb9xsOaprucixAK7-1">
          <mxGeometry width="50" height="50" relative="1" as="geometry">
            <mxPoint x="790.4169999999999" y="553.0269999999999" as="sourcePoint" />
            <mxPoint x="790.4169999999999" y="-33.283" as="targetPoint" />
          </mxGeometry>
        </mxCell>
        <mxCell id="4rB_ZDRqA5qAUD8Cp_PL-145" value="&lt;span style=&quot;color: rgb(0, 0, 0); font-family: &amp;quot;GOSTRUS Type A&amp;quot;; font-size: 16px; font-variant-ligatures: normal; font-variant-caps: normal; font-weight: 400; letter-spacing: normal; orphans: 2; text-align: center; text-indent: 0px; text-transform: none; widows: 2; word-spacing: 0px; -webkit-text-stroke-width: 0px; background-color: rgb(251, 251, 251); text-decoration-thickness: initial; text-decoration-style: initial; text-decoration-color: initial; float: none; display: inline !important;&quot;&gt;APB1&lt;/span&gt;" style="text;whiteSpace=wrap;html=1;rotation=-90;fontStyle=2" vertex="1" parent="-3bvXb9xsOaprucixAK7-1">
          <mxGeometry x="790.7269999999997" y="523.8669999999998" width="35.43" height="27.56" as="geometry" />
        </mxCell>
        <mxCell id="4rB_ZDRqA5qAUD8Cp_PL-146" value="&lt;span style=&quot;color: rgb(0, 0, 0); font-family: &amp;quot;GOSTRUS Type A&amp;quot;; font-size: 16px; font-variant-ligatures: normal; font-variant-caps: normal; font-weight: 400; letter-spacing: normal; orphans: 2; text-align: center; text-indent: 0px; text-transform: none; widows: 2; word-spacing: 0px; -webkit-text-stroke-width: 0px; background-color: rgb(251, 251, 251); text-decoration-thickness: initial; text-decoration-style: initial; text-decoration-color: initial; float: none; display: inline !important;&quot;&gt;APB2&lt;/span&gt;" style="text;whiteSpace=wrap;html=1;rotation=-90;fontStyle=2" vertex="1" parent="-3bvXb9xsOaprucixAK7-1">
          <mxGeometry x="603.2839999999997" y="523.8639999999999" width="35.43" height="27.56" as="geometry" />
        </mxCell>
        <mxCell id="4rB_ZDRqA5qAUD8Cp_PL-147" value="&lt;p style=&quot;line-height: 100%;&quot;&gt;Генератор&lt;/p&gt;" style="rounded=0;whiteSpace=wrap;html=1;fontSize=20;fontFamily=GOSTRUS Type A;fontStyle=2" vertex="1" parent="-3bvXb9xsOaprucixAK7-1">
          <mxGeometry x="837.687" y="49.00699999999996" width="85.17" height="35.43" as="geometry" />
        </mxCell>
        <mxCell id="4rB_ZDRqA5qAUD8Cp_PL-148" value="&lt;p style=&quot;line-height: 100%;&quot;&gt;TIM2&lt;/p&gt;" style="rounded=0;whiteSpace=wrap;html=1;fontSize=20;fontFamily=GOSTRUS Type A;fontStyle=2" vertex="1" parent="-3bvXb9xsOaprucixAK7-1">
          <mxGeometry x="837.6839999999999" y="92.31399999999998" width="78.8" height="35.43" as="geometry" />
        </mxCell>
        <mxCell id="4rB_ZDRqA5qAUD8Cp_PL-149" value="&lt;p style=&quot;line-height: 100%;&quot;&gt;TIM3&lt;/p&gt;" style="rounded=0;whiteSpace=wrap;html=1;fontSize=20;fontFamily=GOSTRUS Type A;fontStyle=2" vertex="1" parent="-3bvXb9xsOaprucixAK7-1">
          <mxGeometry x="837.6909999999999" y="135.621" width="78.8" height="35.43" as="geometry" />
        </mxCell>
        <mxCell id="4rB_ZDRqA5qAUD8Cp_PL-150" value="&lt;p style=&quot;line-height: 100%;&quot;&gt;TIM4&lt;/p&gt;" style="rounded=0;whiteSpace=wrap;html=1;fontSize=20;fontFamily=GOSTRUS Type A;fontStyle=2" vertex="1" parent="-3bvXb9xsOaprucixAK7-1">
          <mxGeometry x="837.6809999999999" y="178.06100000000006" width="78.8" height="35.43" as="geometry" />
        </mxCell>
        <mxCell id="4rB_ZDRqA5qAUD8Cp_PL-151" value="&lt;p style=&quot;line-height: 100%;&quot;&gt;USART2&lt;/p&gt;" style="rounded=0;whiteSpace=wrap;html=1;fontSize=20;fontFamily=GOSTRUS Type A;fontStyle=2" vertex="1" parent="-3bvXb9xsOaprucixAK7-1">
          <mxGeometry x="837.688" y="221.36800000000002" width="78.8" height="35.43" as="geometry" />
        </mxCell>
        <mxCell id="4rB_ZDRqA5qAUD8Cp_PL-152" value="&lt;p style=&quot;line-height: 100%;&quot;&gt;USART3&lt;/p&gt;" style="rounded=0;whiteSpace=wrap;html=1;fontSize=20;fontFamily=GOSTRUS Type A;fontStyle=2" vertex="1" parent="-3bvXb9xsOaprucixAK7-1">
          <mxGeometry x="837.6739999999999" y="277.34399999999994" width="78.8" height="35.43" as="geometry" />
        </mxCell>
        <mxCell id="4rB_ZDRqA5qAUD8Cp_PL-153" value="&lt;p style=&quot;line-height: 100%;&quot;&gt;SPI2&lt;/p&gt;" style="rounded=0;whiteSpace=wrap;html=1;fontSize=20;fontFamily=GOSTRUS Type A;fontStyle=2" vertex="1" parent="-3bvXb9xsOaprucixAK7-1">
          <mxGeometry x="837.6709999999999" y="320.65099999999995" width="78.8" height="35.43" as="geometry" />
        </mxCell>
        <mxCell id="4rB_ZDRqA5qAUD8Cp_PL-154" value="&lt;p style=&quot;line-height: 100%;&quot;&gt;I2C1&lt;/p&gt;" style="rounded=0;whiteSpace=wrap;html=1;fontSize=20;fontFamily=GOSTRUS Type A;fontStyle=2" vertex="1" parent="-3bvXb9xsOaprucixAK7-1">
          <mxGeometry x="837.678" y="363.95799999999997" width="78.8" height="35.43" as="geometry" />
        </mxCell>
        <mxCell id="4rB_ZDRqA5qAUD8Cp_PL-155" value="&lt;p style=&quot;line-height: 100%;&quot;&gt;I2C2&lt;/p&gt;" style="rounded=0;whiteSpace=wrap;html=1;fontSize=20;fontFamily=GOSTRUS Type A;fontStyle=2" vertex="1" parent="-3bvXb9xsOaprucixAK7-1">
          <mxGeometry x="837.668" y="406.398" width="78.8" height="35.43" as="geometry" />
        </mxCell>
        <mxCell id="4rB_ZDRqA5qAUD8Cp_PL-156" value="&lt;p style=&quot;line-height: 100%;&quot;&gt;CAN&lt;/p&gt;" style="rounded=0;whiteSpace=wrap;html=1;fontSize=20;fontFamily=GOSTRUS Type A;fontStyle=2" vertex="1" parent="-3bvXb9xsOaprucixAK7-1">
          <mxGeometry x="837.675" y="449.70500000000004" width="78.8" height="35.43" as="geometry" />
        </mxCell>
        <mxCell id="4rB_ZDRqA5qAUD8Cp_PL-157" value="&lt;p style=&quot;line-height: 100%;&quot;&gt;USB&lt;/p&gt;" style="rounded=0;whiteSpace=wrap;html=1;fontSize=20;fontFamily=GOSTRUS Type A;fontStyle=2" vertex="1" parent="-3bvXb9xsOaprucixAK7-1">
          <mxGeometry x="837.6919999999999" y="493.88199999999995" width="78.8" height="35.43" as="geometry" />
        </mxCell>
        <mxCell id="4rB_ZDRqA5qAUD8Cp_PL-158" value="&lt;p style=&quot;line-height: 100%;&quot;&gt;GPIOA&lt;br&gt;&lt;/p&gt;" style="rounded=0;whiteSpace=wrap;html=1;fontSize=20;fontFamily=GOSTRUS Type A;fontStyle=2" vertex="1" parent="-3bvXb9xsOaprucixAK7-1">
          <mxGeometry x="475.478" y="178.05800000000008" width="78.8" height="35.43" as="geometry" />
        </mxCell>
        <mxCell id="4rB_ZDRqA5qAUD8Cp_PL-159" value="&lt;p style=&quot;line-height: 100%;&quot;&gt;GPIOB&lt;br&gt;&lt;/p&gt;" style="rounded=0;whiteSpace=wrap;html=1;fontSize=20;fontFamily=GOSTRUS Type A;fontStyle=2" vertex="1" parent="-3bvXb9xsOaprucixAK7-1">
          <mxGeometry x="475.48500000000007" y="221.36500000000004" width="78.8" height="35.43" as="geometry" />
        </mxCell>
        <mxCell id="4rB_ZDRqA5qAUD8Cp_PL-160" value="&lt;p style=&quot;line-height: 100%;&quot;&gt;GPIOC&lt;br&gt;&lt;/p&gt;" style="rounded=0;whiteSpace=wrap;html=1;fontSize=20;fontFamily=GOSTRUS Type A;fontStyle=2" vertex="1" parent="-3bvXb9xsOaprucixAK7-1">
          <mxGeometry x="475.47099999999995" y="277.341" width="78.8" height="35.43" as="geometry" />
        </mxCell>
        <mxCell id="4rB_ZDRqA5qAUD8Cp_PL-161" value="&lt;p style=&quot;line-height: 100%;&quot;&gt;GPIOD&lt;br&gt;&lt;/p&gt;" style="rounded=0;whiteSpace=wrap;html=1;fontSize=20;fontFamily=GOSTRUS Type A;fontStyle=2" vertex="1" parent="-3bvXb9xsOaprucixAK7-1">
          <mxGeometry x="475.468" y="320.648" width="78.8" height="35.43" as="geometry" />
        </mxCell>
        <mxCell id="4rB_ZDRqA5qAUD8Cp_PL-162" value="&lt;p style=&quot;line-height: 100%;&quot;&gt;GPIOE&lt;br&gt;&lt;/p&gt;" style="rounded=0;whiteSpace=wrap;html=1;fontSize=20;fontFamily=GOSTRUS Type A;fontStyle=2" vertex="1" parent="-3bvXb9xsOaprucixAK7-1">
          <mxGeometry x="475.4750000000001" y="363.95500000000004" width="78.8" height="35.43" as="geometry" />
        </mxCell>
        <mxCell id="4rB_ZDRqA5qAUD8Cp_PL-163" value="&lt;p style=&quot;line-height: 100%;&quot;&gt;TIM1&lt;/p&gt;" style="rounded=0;whiteSpace=wrap;html=1;fontSize=20;fontFamily=GOSTRUS Type A;fontStyle=2" vertex="1" parent="-3bvXb9xsOaprucixAK7-1">
          <mxGeometry x="475.4650000000001" y="406.3950000000001" width="78.8" height="35.43" as="geometry" />
        </mxCell>
        <mxCell id="4rB_ZDRqA5qAUD8Cp_PL-164" value="&lt;p style=&quot;line-height: 100%;&quot;&gt;SPI1&lt;/p&gt;" style="rounded=0;whiteSpace=wrap;html=1;fontSize=20;fontFamily=GOSTRUS Type A;fontStyle=2" vertex="1" parent="-3bvXb9xsOaprucixAK7-1">
          <mxGeometry x="475.47200000000004" y="449.7019999999999" width="78.8" height="35.43" as="geometry" />
        </mxCell>
        <mxCell id="4rB_ZDRqA5qAUD8Cp_PL-165" value="&lt;p style=&quot;line-height: 100%;&quot;&gt;USART1&lt;/p&gt;" style="rounded=0;whiteSpace=wrap;html=1;fontSize=20;fontFamily=GOSTRUS Type A;fontStyle=2" vertex="1" parent="-3bvXb9xsOaprucixAK7-1">
          <mxGeometry x="475.489" y="493.879" width="78.8" height="35.43" as="geometry" />
        </mxCell>
        <mxCell id="4rB_ZDRqA5qAUD8Cp_PL-166" value="&lt;p style=&quot;line-height: 100%;&quot;&gt;EXTI WAKEUP&lt;/p&gt;" style="rounded=0;whiteSpace=wrap;html=1;fontSize=20;fontFamily=GOSTRUS Type A;fontStyle=2" vertex="1" parent="-3bvXb9xsOaprucixAK7-1">
          <mxGeometry x="460.67699999999996" y="126.74699999999997" width="94.59" height="35.43" as="geometry" />
        </mxCell>
        <mxCell id="4rB_ZDRqA5qAUD8Cp_PL-167" value="" style="endArrow=open;startArrow=none;html=1;rounded=0;endFill=0;startFill=0;exitX=0.75;exitY=0;exitDx=0;exitDy=0;fontStyle=2;entryX=0.189;entryY=1.032;entryDx=0;entryDy=0;entryPerimeter=0;" edge="1" parent="-3bvXb9xsOaprucixAK7-1" source="4rB_ZDRqA5qAUD8Cp_PL-166" target="4rB_ZDRqA5qAUD8Cp_PL-229">
          <mxGeometry width="50" height="50" relative="1" as="geometry">
            <mxPoint x="637.3539999999999" y="-34.84599999999999" as="sourcePoint" />
            <mxPoint x="531.047" y="-85.28299999999999" as="targetPoint" />
          </mxGeometry>
        </mxCell>
        <mxCell id="4rB_ZDRqA5qAUD8Cp_PL-168" value="" style="endArrow=open;startArrow=open;html=1;rounded=0;endFill=0;startFill=0;exitX=0.66;exitY=0.013;exitDx=0;exitDy=0;exitPerimeter=0;fontStyle=2" edge="1" parent="-3bvXb9xsOaprucixAK7-1">
          <mxGeometry width="50" height="50" relative="1" as="geometry">
            <mxPoint x="741.544" y="131.004" as="sourcePoint" />
            <mxPoint x="791.4169999999999" y="131.217" as="targetPoint" />
          </mxGeometry>
        </mxCell>
        <mxCell id="4rB_ZDRqA5qAUD8Cp_PL-169" value="" style="endArrow=open;startArrow=open;html=1;rounded=0;endFill=0;startFill=0;exitX=0.66;exitY=0.013;exitDx=0;exitDy=0;exitPerimeter=0;fontStyle=2" edge="1" parent="-3bvXb9xsOaprucixAK7-1">
          <mxGeometry width="50" height="50" relative="1" as="geometry">
            <mxPoint x="603.7409999999999" y="131.001" as="sourcePoint" />
            <mxPoint x="653.6139999999999" y="131.21400000000003" as="targetPoint" />
          </mxGeometry>
        </mxCell>
        <mxCell id="4rB_ZDRqA5qAUD8Cp_PL-170" value="" style="endArrow=open;startArrow=open;html=1;rounded=0;endFill=0;startFill=0;fontStyle=2" edge="1" parent="-3bvXb9xsOaprucixAK7-1">
          <mxGeometry width="50" height="50" relative="1" as="geometry">
            <mxPoint x="791.047" y="68.217" as="sourcePoint" />
            <mxPoint x="838.4169999999999" y="68.217" as="targetPoint" />
          </mxGeometry>
        </mxCell>
        <mxCell id="4rB_ZDRqA5qAUD8Cp_PL-171" value="" style="endArrow=open;startArrow=open;html=1;rounded=0;endFill=0;startFill=0;fontStyle=2" edge="1" parent="-3bvXb9xsOaprucixAK7-1">
          <mxGeometry width="50" height="50" relative="1" as="geometry">
            <mxPoint x="791.047" y="111.52400000000002" as="sourcePoint" />
            <mxPoint x="838.4139999999999" y="111.52400000000002" as="targetPoint" />
          </mxGeometry>
        </mxCell>
        <mxCell id="4rB_ZDRqA5qAUD8Cp_PL-172" value="" style="endArrow=open;startArrow=open;html=1;rounded=0;endFill=0;startFill=0;fontStyle=2" edge="1" parent="-3bvXb9xsOaprucixAK7-1">
          <mxGeometry width="50" height="50" relative="1" as="geometry">
            <mxPoint x="791.047" y="154.83100000000005" as="sourcePoint" />
            <mxPoint x="838.411" y="154.83100000000005" as="targetPoint" />
          </mxGeometry>
        </mxCell>
        <mxCell id="4rB_ZDRqA5qAUD8Cp_PL-173" value="" style="endArrow=open;startArrow=open;html=1;rounded=0;endFill=0;startFill=0;fontStyle=2" edge="1" parent="-3bvXb9xsOaprucixAK7-1">
          <mxGeometry width="50" height="50" relative="1" as="geometry">
            <mxPoint x="791.047" y="194.20800000000006" as="sourcePoint" />
            <mxPoint x="838.418" y="194.20800000000006" as="targetPoint" />
          </mxGeometry>
        </mxCell>
        <mxCell id="4rB_ZDRqA5qAUD8Cp_PL-174" value="" style="endArrow=open;startArrow=open;html=1;rounded=0;endFill=0;startFill=0;fontStyle=2" edge="1" parent="-3bvXb9xsOaprucixAK7-1">
          <mxGeometry width="50" height="50" relative="1" as="geometry">
            <mxPoint x="791.047" y="241.45500000000007" as="sourcePoint" />
            <mxPoint x="838.415" y="241.45500000000007" as="targetPoint" />
          </mxGeometry>
        </mxCell>
        <mxCell id="4rB_ZDRqA5qAUD8Cp_PL-175" value="" style="endArrow=open;startArrow=open;html=1;rounded=0;endFill=0;startFill=0;fontStyle=2" edge="1" parent="-3bvXb9xsOaprucixAK7-1">
          <mxGeometry width="50" height="50" relative="1" as="geometry">
            <mxPoint x="791.047" y="296.572" as="sourcePoint" />
            <mxPoint x="838.4119999999999" y="296.572" as="targetPoint" />
          </mxGeometry>
        </mxCell>
        <mxCell id="4rB_ZDRqA5qAUD8Cp_PL-176" value="" style="endArrow=open;startArrow=open;html=1;rounded=0;endFill=0;startFill=0;fontStyle=2" edge="1" parent="-3bvXb9xsOaprucixAK7-1">
          <mxGeometry width="50" height="50" relative="1" as="geometry">
            <mxPoint x="791.047" y="339.879" as="sourcePoint" />
            <mxPoint x="838.409" y="339.879" as="targetPoint" />
          </mxGeometry>
        </mxCell>
        <mxCell id="4rB_ZDRqA5qAUD8Cp_PL-177" value="" style="endArrow=open;startArrow=open;html=1;rounded=0;endFill=0;startFill=0;fontStyle=2" edge="1" parent="-3bvXb9xsOaprucixAK7-1">
          <mxGeometry width="50" height="50" relative="1" as="geometry">
            <mxPoint x="791.047" y="383.18600000000004" as="sourcePoint" />
            <mxPoint x="838.4060000000001" y="383.18600000000004" as="targetPoint" />
          </mxGeometry>
        </mxCell>
        <mxCell id="4rB_ZDRqA5qAUD8Cp_PL-178" value="" style="endArrow=open;startArrow=open;html=1;rounded=0;endFill=0;startFill=0;fontStyle=2" edge="1" parent="-3bvXb9xsOaprucixAK7-1">
          <mxGeometry width="50" height="50" relative="1" as="geometry">
            <mxPoint x="791.047" y="426.49300000000005" as="sourcePoint" />
            <mxPoint x="838.403" y="426.49300000000005" as="targetPoint" />
          </mxGeometry>
        </mxCell>
        <mxCell id="4rB_ZDRqA5qAUD8Cp_PL-179" value="" style="endArrow=open;startArrow=open;html=1;rounded=0;endFill=0;startFill=0;fontStyle=2" edge="1" parent="-3bvXb9xsOaprucixAK7-1">
          <mxGeometry width="50" height="50" relative="1" as="geometry">
            <mxPoint x="791.047" y="469.80000000000007" as="sourcePoint" />
            <mxPoint x="838.4" y="469.80000000000007" as="targetPoint" />
          </mxGeometry>
        </mxCell>
        <mxCell id="4rB_ZDRqA5qAUD8Cp_PL-180" value="" style="endArrow=open;startArrow=open;html=1;rounded=0;endFill=0;startFill=0;fontStyle=2" edge="1" parent="-3bvXb9xsOaprucixAK7-1">
          <mxGeometry width="50" height="50" relative="1" as="geometry">
            <mxPoint x="791.047" y="513.1070000000001" as="sourcePoint" />
            <mxPoint x="838.397" y="513.1070000000001" as="targetPoint" />
          </mxGeometry>
        </mxCell>
        <mxCell id="4rB_ZDRqA5qAUD8Cp_PL-181" value="" style="endArrow=open;startArrow=open;html=1;rounded=0;endFill=0;startFill=0;fontStyle=2" edge="1" parent="-3bvXb9xsOaprucixAK7-1">
          <mxGeometry width="50" height="50" relative="1" as="geometry">
            <mxPoint x="555.1740000000001" y="145.9540000000001" as="sourcePoint" />
            <mxPoint x="602.4169999999999" y="146.217" as="targetPoint" />
          </mxGeometry>
        </mxCell>
        <mxCell id="4rB_ZDRqA5qAUD8Cp_PL-182" value="" style="endArrow=open;startArrow=open;html=1;rounded=0;endFill=0;startFill=0;fontStyle=2" edge="1" parent="-3bvXb9xsOaprucixAK7-1">
          <mxGeometry width="50" height="50" relative="1" as="geometry">
            <mxPoint x="554.1710000000002" y="194.2010000000001" as="sourcePoint" />
            <mxPoint x="601.4139999999999" y="194.46400000000003" as="targetPoint" />
          </mxGeometry>
        </mxCell>
        <mxCell id="4rB_ZDRqA5qAUD8Cp_PL-183" value="" style="endArrow=open;startArrow=open;html=1;rounded=0;endFill=0;startFill=0;fontStyle=2" edge="1" parent="-3bvXb9xsOaprucixAK7-1">
          <mxGeometry width="50" height="50" relative="1" as="geometry">
            <mxPoint x="554.1680000000002" y="237.50800000000012" as="sourcePoint" />
            <mxPoint x="601.411" y="237.77100000000004" as="targetPoint" />
          </mxGeometry>
        </mxCell>
        <mxCell id="4rB_ZDRqA5qAUD8Cp_PL-184" value="" style="endArrow=open;startArrow=open;html=1;rounded=0;endFill=0;startFill=0;fontStyle=2" edge="1" parent="-3bvXb9xsOaprucixAK7-1">
          <mxGeometry width="50" height="50" relative="1" as="geometry">
            <mxPoint x="554.1650000000001" y="296.56500000000017" as="sourcePoint" />
            <mxPoint x="601.4079999999999" y="296.8280000000001" as="targetPoint" />
          </mxGeometry>
        </mxCell>
        <mxCell id="4rB_ZDRqA5qAUD8Cp_PL-185" value="" style="endArrow=open;startArrow=open;html=1;rounded=0;endFill=0;startFill=0;fontStyle=2" edge="1" parent="-3bvXb9xsOaprucixAK7-1">
          <mxGeometry width="50" height="50" relative="1" as="geometry">
            <mxPoint x="554.1620000000001" y="339.8720000000002" as="sourcePoint" />
            <mxPoint x="601.4049999999999" y="340.1350000000001" as="targetPoint" />
          </mxGeometry>
        </mxCell>
        <mxCell id="4rB_ZDRqA5qAUD8Cp_PL-186" value="" style="endArrow=open;startArrow=open;html=1;rounded=0;endFill=0;startFill=0;fontStyle=2" edge="1" parent="-3bvXb9xsOaprucixAK7-1">
          <mxGeometry width="50" height="50" relative="1" as="geometry">
            <mxPoint x="554.1590000000002" y="382.1790000000002" as="sourcePoint" />
            <mxPoint x="601.4019999999999" y="382.4420000000001" as="targetPoint" />
          </mxGeometry>
        </mxCell>
        <mxCell id="4rB_ZDRqA5qAUD8Cp_PL-187" value="" style="endArrow=open;startArrow=open;html=1;rounded=0;endFill=0;startFill=0;fontStyle=2" edge="1" parent="-3bvXb9xsOaprucixAK7-1">
          <mxGeometry width="50" height="50" relative="1" as="geometry">
            <mxPoint x="554.1560000000001" y="422.55600000000015" as="sourcePoint" />
            <mxPoint x="601.3989999999999" y="422.8190000000001" as="targetPoint" />
          </mxGeometry>
        </mxCell>
        <mxCell id="4rB_ZDRqA5qAUD8Cp_PL-188" value="" style="endArrow=open;startArrow=open;html=1;rounded=0;endFill=0;startFill=0;fontStyle=2" edge="1" parent="-3bvXb9xsOaprucixAK7-1">
          <mxGeometry width="50" height="50" relative="1" as="geometry">
            <mxPoint x="554.1530000000001" y="466.8730000000004" as="sourcePoint" />
            <mxPoint x="601.396" y="467.1360000000003" as="targetPoint" />
          </mxGeometry>
        </mxCell>
        <mxCell id="4rB_ZDRqA5qAUD8Cp_PL-189" value="" style="endArrow=open;startArrow=open;html=1;rounded=0;endFill=0;startFill=0;fontStyle=2" edge="1" parent="-3bvXb9xsOaprucixAK7-1">
          <mxGeometry width="50" height="50" relative="1" as="geometry">
            <mxPoint x="554.1500000000002" y="512.1200000000005" as="sourcePoint" />
            <mxPoint x="601.3929999999999" y="512.3830000000004" as="targetPoint" />
          </mxGeometry>
        </mxCell>
        <mxCell id="4rB_ZDRqA5qAUD8Cp_PL-190" value="&lt;div style=&quot;text-align: center;&quot;&gt;&lt;span style=&quot;background-color: initial; font-size: 20px;&quot;&gt;&lt;font face=&quot;GOSTRUS Type A&quot;&gt;&lt;span&gt;STM32F103C8T6&lt;/span&gt;&lt;/font&gt;&lt;/span&gt;&lt;/div&gt;" style="text;whiteSpace=wrap;html=1;fontStyle=2" vertex="1" parent="-3bvXb9xsOaprucixAK7-1">
          <mxGeometry x="866.6969999999999" y="-263.933" width="110.23" height="37.11" as="geometry" />
        </mxCell>
        <mxCell id="4rB_ZDRqA5qAUD8Cp_PL-191" value="&lt;div style=&quot;text-align: center;&quot;&gt;&lt;font face=&quot;GOSTRUS Type A&quot;&gt;&lt;span style=&quot;font-size: 20px;&quot;&gt;&lt;span&gt;VDDA&lt;/span&gt;&lt;/span&gt;&lt;/font&gt;&lt;/div&gt;" style="text;whiteSpace=wrap;html=1;fontStyle=2" vertex="1" parent="-3bvXb9xsOaprucixAK7-1">
          <mxGeometry x="935.6170000000001" y="-175.533" width="42.36" height="37.04" as="geometry" />
        </mxCell>
        <mxCell id="4rB_ZDRqA5qAUD8Cp_PL-192" value="&lt;div style=&quot;text-align: center;&quot;&gt;&lt;font face=&quot;GOSTRUS Type A&quot;&gt;&lt;span style=&quot;font-size: 20px;&quot;&gt;VSSA&lt;/span&gt;&lt;/font&gt;&lt;/div&gt;" style="text;whiteSpace=wrap;html=1;fontStyle=2" vertex="1" parent="-3bvXb9xsOaprucixAK7-1">
          <mxGeometry x="935.6170000000001" y="-143.73299999999998" width="42.37" height="37.04" as="geometry" />
        </mxCell>
        <mxCell id="4rB_ZDRqA5qAUD8Cp_PL-193" value="" style="endArrow=blockThin;html=1;rounded=0;exitX=1;exitY=0.5;exitDx=0;exitDy=0;endFill=1;fontStyle=2" edge="1" parent="-3bvXb9xsOaprucixAK7-1" source="4rB_ZDRqA5qAUD8Cp_PL-191">
          <mxGeometry width="50" height="50" relative="1" as="geometry">
            <mxPoint x="1012.9870000000001" y="-130.583" as="sourcePoint" />
            <mxPoint x="1016.9870000000001" y="-215.583" as="targetPoint" />
            <Array as="points">
              <mxPoint x="1017.2270000000001" y="-156.773" />
            </Array>
          </mxGeometry>
        </mxCell>
        <mxCell id="4rB_ZDRqA5qAUD8Cp_PL-194" value="" style="endArrow=none;html=1;rounded=0;endFill=0;fontStyle=2" edge="1" parent="-3bvXb9xsOaprucixAK7-1" source="4rB_ZDRqA5qAUD8Cp_PL-192">
          <mxGeometry width="50" height="50" relative="1" as="geometry">
            <mxPoint x="983.9739999999999" y="-118.436" as="sourcePoint" />
            <mxPoint x="1016.9870000000001" y="-77.58300000000001" as="targetPoint" />
            <Array as="points">
              <mxPoint x="1017.2270000000001" y="-124.773" />
            </Array>
          </mxGeometry>
        </mxCell>
        <mxCell id="4rB_ZDRqA5qAUD8Cp_PL-195" value="" style="endArrow=none;html=1;rounded=0;fontStyle=2" edge="1" parent="-3bvXb9xsOaprucixAK7-1">
          <mxGeometry width="50" height="50" relative="1" as="geometry">
            <mxPoint x="1000.9870000000001" y="-77.58300000000001" as="sourcePoint" />
            <mxPoint x="1033.987" y="-77.58300000000001" as="targetPoint" />
          </mxGeometry>
        </mxCell>
        <mxCell id="4rB_ZDRqA5qAUD8Cp_PL-196" value="&lt;div style=&quot;text-align: center;&quot;&gt;&lt;font face=&quot;GOSTRUS Type A&quot;&gt;&lt;span style=&quot;font-size: 20px;&quot;&gt;&lt;span&gt;GND&lt;/span&gt;&lt;/span&gt;&lt;/font&gt;&lt;/div&gt;" style="text;whiteSpace=wrap;html=1;fontStyle=2" vertex="1" parent="-3bvXb9xsOaprucixAK7-1">
          <mxGeometry x="999.6469999999999" y="-83.893" width="35.42" height="32.26" as="geometry" />
        </mxCell>
        <mxCell id="4rB_ZDRqA5qAUD8Cp_PL-197" value="&lt;div style=&quot;text-align: center;&quot;&gt;&lt;font face=&quot;GOSTRUS Type A&quot;&gt;&lt;span style=&quot;font-size: 20px;&quot;&gt;VCC&lt;/span&gt;&lt;/font&gt;&lt;/div&gt;" style="text;whiteSpace=wrap;html=1;fontStyle=2" vertex="1" parent="-3bvXb9xsOaprucixAK7-1">
          <mxGeometry x="1001.5939999999998" y="-243.17600000000002" width="35.42" height="32.26" as="geometry" />
        </mxCell>
        <mxCell id="4rB_ZDRqA5qAUD8Cp_PL-198" value="" style="endArrow=none;html=1;rounded=0;exitX=1;exitY=0.75;exitDx=0;exitDy=0;fontStyle=2" edge="1" parent="-3bvXb9xsOaprucixAK7-1" source="4rB_ZDRqA5qAUD8Cp_PL-147">
          <mxGeometry width="50" height="50" relative="1" as="geometry">
            <mxPoint x="1071.9869999999999" y="95.41699999999999" as="sourcePoint" />
            <mxPoint x="1012.9870000000001" y="75.41699999999999" as="targetPoint" />
          </mxGeometry>
        </mxCell>
        <mxCell id="4rB_ZDRqA5qAUD8Cp_PL-199" value="" style="endArrow=none;html=1;rounded=0;exitX=1;exitY=0.25;exitDx=0;exitDy=0;fontStyle=2" edge="1" parent="-3bvXb9xsOaprucixAK7-1" source="4rB_ZDRqA5qAUD8Cp_PL-147">
          <mxGeometry width="50" height="50" relative="1" as="geometry">
            <mxPoint x="962.231" y="84.44099999999999" as="sourcePoint" />
            <mxPoint x="1012.9870000000001" y="57.41699999999999" as="targetPoint" />
          </mxGeometry>
        </mxCell>
        <mxCell id="4rB_ZDRqA5qAUD8Cp_PL-200" value="" style="rounded=0;whiteSpace=wrap;html=1;fontStyle=2" vertex="1" parent="-3bvXb9xsOaprucixAK7-1">
          <mxGeometry x="1037.117" y="44.48699999999998" width="31.5" height="15.3" as="geometry" />
        </mxCell>
        <mxCell id="4rB_ZDRqA5qAUD8Cp_PL-201" value="" style="endArrow=none;html=1;rounded=0;fontStyle=2" edge="1" parent="-3bvXb9xsOaprucixAK7-1">
          <mxGeometry width="50" height="50" relative="1" as="geometry">
            <mxPoint x="1037.017" y="40.28699999999999" as="sourcePoint" />
            <mxPoint x="1069.0169999999998" y="40.28699999999999" as="targetPoint" />
          </mxGeometry>
        </mxCell>
        <mxCell id="4rB_ZDRqA5qAUD8Cp_PL-202" value="" style="endArrow=none;html=1;rounded=0;fontStyle=2" edge="1" parent="-3bvXb9xsOaprucixAK7-1">
          <mxGeometry width="50" height="50" relative="1" as="geometry">
            <mxPoint x="1037.014" y="63.914" as="sourcePoint" />
            <mxPoint x="1069.0139999999997" y="63.914" as="targetPoint" />
          </mxGeometry>
        </mxCell>
        <mxCell id="4rB_ZDRqA5qAUD8Cp_PL-203" value="" style="endArrow=none;html=1;rounded=0;fontStyle=2" edge="1" parent="-3bvXb9xsOaprucixAK7-1">
          <mxGeometry width="50" height="50" relative="1" as="geometry">
            <mxPoint x="1012.9870000000001" y="75.41699999999999" as="sourcePoint" />
            <mxPoint x="1052.9869999999999" y="63.41699999999999" as="targetPoint" />
            <Array as="points">
              <mxPoint x="1052.9869999999999" y="75.41699999999999" />
            </Array>
          </mxGeometry>
        </mxCell>
        <mxCell id="4rB_ZDRqA5qAUD8Cp_PL-204" value="" style="endArrow=none;html=1;rounded=0;fontStyle=2" edge="1" parent="-3bvXb9xsOaprucixAK7-1">
          <mxGeometry width="50" height="50" relative="1" as="geometry">
            <mxPoint x="1012.9870000000001" y="56.41699999999999" as="sourcePoint" />
            <mxPoint x="1052.9869999999999" y="40.41699999999999" as="targetPoint" />
            <Array as="points">
              <mxPoint x="1012.9870000000001" y="28.41699999999999" />
              <mxPoint x="1052.9869999999999" y="28.41699999999999" />
            </Array>
          </mxGeometry>
        </mxCell>
        <mxCell id="4rB_ZDRqA5qAUD8Cp_PL-205" value="&lt;div style=&quot;text-align: center;&quot;&gt;&lt;font face=&quot;GOSTRUS Type A&quot;&gt;&lt;span style=&quot;font-size: 20px;&quot;&gt;&lt;span&gt;ZQ1&lt;/span&gt;&lt;/span&gt;&lt;/font&gt;&lt;/div&gt;" style="text;whiteSpace=wrap;html=1;fontStyle=2" vertex="1" parent="-3bvXb9xsOaprucixAK7-1">
          <mxGeometry x="1068.6139999999996" y="32.414" width="35.42" height="32.26" as="geometry" />
        </mxCell>
        <mxCell id="4rB_ZDRqA5qAUD8Cp_PL-206" value="" style="endArrow=none;html=1;rounded=0;fontStyle=2" edge="1" parent="-3bvXb9xsOaprucixAK7-1">
          <mxGeometry width="50" height="50" relative="1" as="geometry">
            <mxPoint x="1088.367" y="40.41699999999999" as="sourcePoint" />
            <mxPoint x="1088.367" y="16.416999999999987" as="targetPoint" />
          </mxGeometry>
        </mxCell>
        <mxCell id="4rB_ZDRqA5qAUD8Cp_PL-207" value="" style="endArrow=none;html=1;rounded=0;fontStyle=2" edge="1" parent="-3bvXb9xsOaprucixAK7-1">
          <mxGeometry width="50" height="50" relative="1" as="geometry">
            <mxPoint x="1092.3039999999999" y="40.414" as="sourcePoint" />
            <mxPoint x="1092.3039999999999" y="16.414" as="targetPoint" />
          </mxGeometry>
        </mxCell>
        <mxCell id="4rB_ZDRqA5qAUD8Cp_PL-208" value="" style="endArrow=none;html=1;rounded=0;fontStyle=2" edge="1" parent="-3bvXb9xsOaprucixAK7-1">
          <mxGeometry width="50" height="50" relative="1" as="geometry">
            <mxPoint x="1052.9869999999999" y="28.41699999999999" as="sourcePoint" />
            <mxPoint x="1087.9869999999999" y="28.41699999999999" as="targetPoint" />
          </mxGeometry>
        </mxCell>
        <mxCell id="4rB_ZDRqA5qAUD8Cp_PL-209" value="" style="endArrow=none;html=1;rounded=0;fontStyle=2" edge="1" parent="-3bvXb9xsOaprucixAK7-1">
          <mxGeometry width="50" height="50" relative="1" as="geometry">
            <mxPoint x="1088.3639999999998" y="87.664" as="sourcePoint" />
            <mxPoint x="1088.3639999999998" y="63.664" as="targetPoint" />
          </mxGeometry>
        </mxCell>
        <mxCell id="4rB_ZDRqA5qAUD8Cp_PL-210" value="" style="endArrow=none;html=1;rounded=0;fontStyle=2" edge="1" parent="-3bvXb9xsOaprucixAK7-1">
          <mxGeometry width="50" height="50" relative="1" as="geometry">
            <mxPoint x="1092.3009999999997" y="87.66099999999996" as="sourcePoint" />
            <mxPoint x="1092.3009999999997" y="63.66099999999996" as="targetPoint" />
          </mxGeometry>
        </mxCell>
        <mxCell id="4rB_ZDRqA5qAUD8Cp_PL-211" value="" style="endArrow=none;html=1;rounded=0;fontStyle=2" edge="1" parent="-3bvXb9xsOaprucixAK7-1">
          <mxGeometry width="50" height="50" relative="1" as="geometry">
            <mxPoint x="1052.9869999999999" y="75.41699999999999" as="sourcePoint" />
            <mxPoint x="1087.9869999999999" y="75.41699999999999" as="targetPoint" />
          </mxGeometry>
        </mxCell>
        <mxCell id="4rB_ZDRqA5qAUD8Cp_PL-212" value="" style="endArrow=none;html=1;rounded=0;fontStyle=2" edge="1" parent="-3bvXb9xsOaprucixAK7-1">
          <mxGeometry width="50" height="50" relative="1" as="geometry">
            <mxPoint x="1091.9869999999999" y="75.41699999999999" as="sourcePoint" />
            <mxPoint x="1091.9869999999999" y="28.41699999999999" as="targetPoint" />
            <Array as="points">
              <mxPoint x="1127.9869999999999" y="75.41699999999999" />
              <mxPoint x="1127.9869999999999" y="28.41699999999999" />
            </Array>
          </mxGeometry>
        </mxCell>
        <mxCell id="4rB_ZDRqA5qAUD8Cp_PL-213" value="" style="endArrow=none;html=1;rounded=0;fontStyle=2" edge="1" parent="-3bvXb9xsOaprucixAK7-1">
          <mxGeometry width="50" height="50" relative="1" as="geometry">
            <mxPoint x="1110.8939999999998" y="91.474" as="sourcePoint" />
            <mxPoint x="1143.8939999999998" y="91.474" as="targetPoint" />
          </mxGeometry>
        </mxCell>
        <mxCell id="4rB_ZDRqA5qAUD8Cp_PL-214" value="&lt;div style=&quot;text-align: center;&quot;&gt;&lt;font face=&quot;GOSTRUS Type A&quot;&gt;&lt;span style=&quot;font-size: 20px;&quot;&gt;&lt;span&gt;GND&lt;/span&gt;&lt;/span&gt;&lt;/font&gt;&lt;/div&gt;" style="text;whiteSpace=wrap;html=1;fontStyle=2" vertex="1" parent="-3bvXb9xsOaprucixAK7-1">
          <mxGeometry x="1110.0739999999996" y="87.30399999999999" width="35.42" height="32.26" as="geometry" />
        </mxCell>
        <mxCell id="4rB_ZDRqA5qAUD8Cp_PL-215" value="" style="endArrow=none;html=1;rounded=0;fontStyle=2" edge="1" parent="-3bvXb9xsOaprucixAK7-1">
          <mxGeometry width="50" height="50" relative="1" as="geometry">
            <mxPoint x="1127.9869999999999" y="91.41699999999999" as="sourcePoint" />
            <mxPoint x="1127.9869999999999" y="75.41699999999999" as="targetPoint" />
          </mxGeometry>
        </mxCell>
        <mxCell id="4rB_ZDRqA5qAUD8Cp_PL-216" value="" style="ellipse;whiteSpace=wrap;html=1;aspect=fixed;fillColor=#000000;fontStyle=2" vertex="1" parent="-3bvXb9xsOaprucixAK7-1">
          <mxGeometry x="1051.4869999999999" y="26.936999999999973" width="3" height="3" as="geometry" />
        </mxCell>
        <mxCell id="4rB_ZDRqA5qAUD8Cp_PL-217" value="" style="ellipse;whiteSpace=wrap;html=1;aspect=fixed;fillColor=#000000;fontStyle=2" vertex="1" parent="-3bvXb9xsOaprucixAK7-1">
          <mxGeometry x="1051.4839999999997" y="74.18399999999998" width="3" height="3" as="geometry" />
        </mxCell>
        <mxCell id="4rB_ZDRqA5qAUD8Cp_PL-218" value="" style="ellipse;whiteSpace=wrap;html=1;aspect=fixed;fillColor=#000000;fontStyle=2" vertex="1" parent="-3bvXb9xsOaprucixAK7-1">
          <mxGeometry x="1126.2809999999995" y="74.181" width="3" height="3" as="geometry" />
        </mxCell>
        <mxCell id="4rB_ZDRqA5qAUD8Cp_PL-219" value="&lt;div style=&quot;text-align: center;&quot;&gt;&lt;font face=&quot;GOSTRUS Type A&quot;&gt;&lt;span style=&quot;font-size: 20px;&quot;&gt;&lt;span&gt;C1&lt;/span&gt;&lt;/span&gt;&lt;/font&gt;&lt;/div&gt;" style="text;whiteSpace=wrap;html=1;fontStyle=2" vertex="1" parent="-3bvXb9xsOaprucixAK7-1">
          <mxGeometry x="1080.127" y="-10.823000000000022" width="23.91" height="27.56" as="geometry" />
        </mxCell>
        <mxCell id="4rB_ZDRqA5qAUD8Cp_PL-220" value="&lt;div style=&quot;text-align: center;&quot;&gt;&lt;font face=&quot;GOSTRUS Type A&quot;&gt;&lt;span style=&quot;font-size: 20px;&quot;&gt;&lt;span&gt;C2&lt;/span&gt;&lt;/span&gt;&lt;/font&gt;&lt;/div&gt;" style="text;whiteSpace=wrap;html=1;fontStyle=2" vertex="1" parent="-3bvXb9xsOaprucixAK7-1">
          <mxGeometry x="1080.1239999999998" y="77.18399999999998" width="23.91" height="27.56" as="geometry" />
        </mxCell>
        <mxCell id="4rB_ZDRqA5qAUD8Cp_PL-221" value="&lt;div style=&quot;text-align: center;&quot;&gt;&lt;span style=&quot;background-color: initial; font-size: 20px;&quot;&gt;&lt;font face=&quot;GOSTRUS Type A&quot;&gt;&lt;span&gt;NRST&lt;/span&gt;&lt;/font&gt;&lt;/span&gt;&lt;/div&gt;" style="text;whiteSpace=wrap;html=1;fontStyle=2" vertex="1" parent="-3bvXb9xsOaprucixAK7-1">
          <mxGeometry x="454.357" y="14.69699999999996" width="39.37" height="34.31" as="geometry" />
        </mxCell>
        <mxCell id="4rB_ZDRqA5qAUD8Cp_PL-222" value="&lt;span style=&quot;color: rgb(0, 0, 0); font-family: &amp;quot;GOSTRUS Type A&amp;quot;; font-style: italic; font-variant-ligatures: normal; font-variant-caps: normal; font-weight: 400; letter-spacing: normal; orphans: 2; text-align: center; text-indent: 0px; text-transform: none; widows: 2; word-spacing: 0px; -webkit-text-stroke-width: 0px; background-color: rgb(251, 251, 251); text-decoration-thickness: initial; text-decoration-style: initial; text-decoration-color: initial; float: none; display: inline !important;&quot;&gt;&lt;font style=&quot;font-size: 24px;&quot;&gt;*&lt;/font&gt;&lt;/span&gt;" style="text;whiteSpace=wrap;html=1;" vertex="1" parent="-3bvXb9xsOaprucixAK7-1">
          <mxGeometry x="611.1569999999999" y="-65.73299999999999" width="19.69" height="23.62" as="geometry" />
        </mxCell>
        <mxCell id="4rB_ZDRqA5qAUD8Cp_PL-223" value="&lt;span style=&quot;color: rgb(0, 0, 0); font-family: &amp;quot;GOSTRUS Type A&amp;quot;; font-style: italic; font-variant-ligatures: normal; font-variant-caps: normal; font-weight: 400; letter-spacing: normal; orphans: 2; text-align: center; text-indent: 0px; text-transform: none; widows: 2; word-spacing: 0px; -webkit-text-stroke-width: 0px; background-color: rgb(251, 251, 251); text-decoration-thickness: initial; text-decoration-style: initial; text-decoration-color: initial; float: none; display: inline !important;&quot;&gt;&lt;font style=&quot;font-size: 24px;&quot;&gt;*&lt;/font&gt;&lt;/span&gt;" style="text;whiteSpace=wrap;html=1;" vertex="1" parent="-3bvXb9xsOaprucixAK7-1">
          <mxGeometry x="692.7539999999999" y="16.733999999999995" width="19.69" height="23.62" as="geometry" />
        </mxCell>
        <mxCell id="4rB_ZDRqA5qAUD8Cp_PL-224" value="&lt;span style=&quot;color: rgb(0, 0, 0); font-family: &amp;quot;GOSTRUS Type A&amp;quot;; font-style: italic; font-variant-ligatures: normal; font-variant-caps: normal; font-weight: 400; letter-spacing: normal; orphans: 2; text-align: center; text-indent: 0px; text-transform: none; widows: 2; word-spacing: 0px; -webkit-text-stroke-width: 0px; background-color: rgb(251, 251, 251); text-decoration-thickness: initial; text-decoration-style: initial; text-decoration-color: initial; float: none; display: inline !important;&quot;&gt;&lt;font style=&quot;font-size: 24px;&quot;&gt;*&lt;/font&gt;&lt;/span&gt;" style="text;whiteSpace=wrap;html=1;" vertex="1" parent="-3bvXb9xsOaprucixAK7-1">
          <mxGeometry x="534.571" y="171.05100000000002" width="19.69" height="23.62" as="geometry" />
        </mxCell>
        <mxCell id="4rB_ZDRqA5qAUD8Cp_PL-225" value="&lt;span style=&quot;color: rgb(0, 0, 0); font-family: &amp;quot;GOSTRUS Type A&amp;quot;; font-style: italic; font-variant-ligatures: normal; font-variant-caps: normal; font-weight: 400; letter-spacing: normal; orphans: 2; text-align: center; text-indent: 0px; text-transform: none; widows: 2; word-spacing: 0px; -webkit-text-stroke-width: 0px; background-color: rgb(251, 251, 251); text-decoration-thickness: initial; text-decoration-style: initial; text-decoration-color: initial; float: none; display: inline !important;&quot;&gt;&lt;font style=&quot;font-size: 24px;&quot;&gt;*&lt;/font&gt;&lt;/span&gt;" style="text;whiteSpace=wrap;html=1;" vertex="1" parent="-3bvXb9xsOaprucixAK7-1">
          <mxGeometry x="534.568" y="213.48800000000008" width="19.69" height="23.62" as="geometry" />
        </mxCell>
        <mxCell id="4rB_ZDRqA5qAUD8Cp_PL-226" value="&lt;span style=&quot;color: rgb(0, 0, 0); font-family: &amp;quot;GOSTRUS Type A&amp;quot;; font-style: italic; font-variant-ligatures: normal; font-variant-caps: normal; font-weight: 400; letter-spacing: normal; orphans: 2; text-align: center; text-indent: 0px; text-transform: none; widows: 2; word-spacing: 0px; -webkit-text-stroke-width: 0px; background-color: rgb(251, 251, 251); text-decoration-thickness: initial; text-decoration-style: initial; text-decoration-color: initial; float: none; display: inline !important;&quot;&gt;&lt;font style=&quot;font-size: 24px;&quot;&gt;*&lt;/font&gt;&lt;/span&gt;" style="text;whiteSpace=wrap;html=1;" vertex="1" parent="-3bvXb9xsOaprucixAK7-1">
          <mxGeometry x="534.569" y="441.82900000000006" width="19.69" height="23.62" as="geometry" />
        </mxCell>
        <mxCell id="4rB_ZDRqA5qAUD8Cp_PL-227" value="&lt;span style=&quot;color: rgb(0, 0, 0); font-family: &amp;quot;GOSTRUS Type A&amp;quot;; font-style: italic; font-variant-ligatures: normal; font-variant-caps: normal; font-weight: 400; letter-spacing: normal; orphans: 2; text-align: center; text-indent: 0px; text-transform: none; widows: 2; word-spacing: 0px; -webkit-text-stroke-width: 0px; background-color: rgb(251, 251, 251); text-decoration-thickness: initial; text-decoration-style: initial; text-decoration-color: initial; float: none; display: inline !important;&quot;&gt;&lt;font style=&quot;font-size: 24px;&quot;&gt;*&lt;/font&gt;&lt;/span&gt;" style="text;whiteSpace=wrap;html=1;" vertex="1" parent="-3bvXb9xsOaprucixAK7-1">
          <mxGeometry x="540.976" y="485.1360000000001" width="19.69" height="23.62" as="geometry" />
        </mxCell>
        <mxCell id="4rB_ZDRqA5qAUD8Cp_PL-228" value="&lt;span style=&quot;color: rgb(0, 0, 0); font-family: &amp;quot;GOSTRUS Type A&amp;quot;; font-style: italic; font-variant-ligatures: normal; font-variant-caps: normal; font-weight: 400; letter-spacing: normal; orphans: 2; text-align: center; text-indent: 0px; text-transform: none; widows: 2; word-spacing: 0px; -webkit-text-stroke-width: 0px; background-color: rgb(251, 251, 251); text-decoration-thickness: initial; text-decoration-style: initial; text-decoration-color: initial; float: none; display: inline !important;&quot;&gt;&lt;font style=&quot;font-size: 24px;&quot;&gt;*&lt;/font&gt;&lt;/span&gt;" style="text;whiteSpace=wrap;html=1;" vertex="1" parent="-3bvXb9xsOaprucixAK7-1">
          <mxGeometry x="899.2429999999998" y="84.43300000000006" width="19.69" height="23.62" as="geometry" />
        </mxCell>
        <mxCell id="4rB_ZDRqA5qAUD8Cp_PL-229" value="NVIC" style="rounded=0;whiteSpace=wrap;html=1;fontSize=20;fontFamily=GOSTRUS Type A;fontStyle=2" vertex="1" parent="-3bvXb9xsOaprucixAK7-1">
          <mxGeometry x="511.857" y="-113.93300000000002" width="102.36" height="21.23" as="geometry" />
        </mxCell>
        <mxCell id="4rB_ZDRqA5qAUD8Cp_PL-230" value="&lt;p style=&quot;line-height: 100%;&quot;&gt;Контроллер шин&lt;/p&gt;" style="rounded=0;whiteSpace=wrap;html=1;fontSize=20;fontFamily=GOSTRUS Type A;fontStyle=2" vertex="1" parent="-3bvXb9xsOaprucixAK7-1">
          <mxGeometry x="715.6270000000001" y="-230.17299999999997" width="118.11" height="21.24" as="geometry" />
        </mxCell>
        <mxCell id="4rB_ZDRqA5qAUD8Cp_PL-231" style="rounded=0;orthogonalLoop=1;jettySize=auto;html=1;entryX=0.99;entryY=0.605;entryDx=0;entryDy=0;entryPerimeter=0;startArrow=open;startFill=0;endArrow=open;endFill=0;" edge="1" parent="-3bvXb9xsOaprucixAK7-1" source="4rB_ZDRqA5qAUD8Cp_PL-230" target="4rB_ZDRqA5qAUD8Cp_PL-244">
          <mxGeometry relative="1" as="geometry" />
        </mxCell>
        <mxCell id="4rB_ZDRqA5qAUD8Cp_PL-232" value="&lt;p style=&quot;line-height: 100%;&quot;&gt;Flash интерфейс&lt;/p&gt;" style="rounded=0;whiteSpace=wrap;html=1;fontSize=20;fontFamily=GOSTRUS Type A;fontStyle=2;rotation=-90;align=left;" vertex="1" parent="-3bvXb9xsOaprucixAK7-1">
          <mxGeometry x="770.527" y="-165.47299999999998" width="80" height="41.13" as="geometry" />
        </mxCell>
        <mxCell id="4rB_ZDRqA5qAUD8Cp_PL-233" style="rounded=0;orthogonalLoop=1;jettySize=auto;html=1;entryX=1.02;entryY=0.093;entryDx=0;entryDy=0;startArrow=open;startFill=0;endArrow=open;endFill=0;entryPerimeter=0;" edge="1" parent="-3bvXb9xsOaprucixAK7-1" source="4rB_ZDRqA5qAUD8Cp_PL-234" target="4rB_ZDRqA5qAUD8Cp_PL-127">
          <mxGeometry relative="1" as="geometry">
            <Array as="points">
              <mxPoint x="774.047" y="-167.283" />
              <mxPoint x="774.047" y="-198.283" />
            </Array>
          </mxGeometry>
        </mxCell>
        <mxCell id="4rB_ZDRqA5qAUD8Cp_PL-234" value="&lt;font style=&quot;font-size: 20px;&quot; face=&quot;GOSTRUS Type A&quot;&gt;obl&lt;/font&gt;" style="rounded=0;whiteSpace=wrap;html=1;rotation=-90;" vertex="1" parent="-3bvXb9xsOaprucixAK7-1">
          <mxGeometry x="782.107" y="-176.88299999999998" width="35.44" height="19.69" as="geometry" />
        </mxCell>
        <mxCell id="4rB_ZDRqA5qAUD8Cp_PL-235" value="" style="endArrow=open;startArrow=open;html=1;rounded=0;exitX=0.995;exitY=0.644;exitDx=0;exitDy=0;entryX=0.212;entryY=1.01;entryDx=0;entryDy=0;entryPerimeter=0;endFill=0;startFill=0;fontStyle=2;exitPerimeter=0;" edge="1" parent="-3bvXb9xsOaprucixAK7-1">
          <mxGeometry width="50" height="50" relative="1" as="geometry">
            <mxPoint x="614.044" y="-114.91599999999997" as="sourcePoint" />
            <mxPoint x="715.044" y="-114.91599999999997" as="targetPoint" />
          </mxGeometry>
        </mxCell>
        <mxCell id="4rB_ZDRqA5qAUD8Cp_PL-236" value="&lt;div style=&quot;text-align: center;&quot;&gt;&lt;span style=&quot;background-color: initial; font-size: 20px;&quot;&gt;&lt;font face=&quot;GOSTRUS Type A&quot;&gt;&lt;span&gt;System&lt;/span&gt;&lt;/font&gt;&lt;/span&gt;&lt;/div&gt;" style="text;whiteSpace=wrap;html=1;fontStyle=2;verticalAlign=middle;" vertex="1" parent="-3bvXb9xsOaprucixAK7-1">
          <mxGeometry x="636.404" y="-147.70599999999996" width="51.18" height="34.03" as="geometry" />
        </mxCell>
        <mxCell id="4rB_ZDRqA5qAUD8Cp_PL-237" value="&lt;div style=&quot;text-align: center;&quot;&gt;&lt;font face=&quot;GOSTRUS Type A&quot;&gt;&lt;span style=&quot;font-size: 20px;&quot;&gt;lbus&lt;/span&gt;&lt;/font&gt;&lt;/div&gt;" style="text;whiteSpace=wrap;html=1;fontStyle=2;verticalAlign=middle;" vertex="1" parent="-3bvXb9xsOaprucixAK7-1">
          <mxGeometry x="647.197" y="-218.18299999999996" width="34.2" height="23.37" as="geometry" />
        </mxCell>
        <mxCell id="4rB_ZDRqA5qAUD8Cp_PL-238" value="&lt;div style=&quot;text-align: center;&quot;&gt;&lt;font face=&quot;GOSTRUS Type A&quot;&gt;&lt;span style=&quot;font-size: 20px;&quot;&gt;pbus&lt;/span&gt;&lt;/font&gt;&lt;/div&gt;" style="text;whiteSpace=wrap;html=1;fontStyle=2;verticalAlign=middle;" vertex="1" parent="-3bvXb9xsOaprucixAK7-1">
          <mxGeometry x="644.894" y="-241.556" width="34.2" height="23.37" as="geometry" />
        </mxCell>
        <mxCell id="4rB_ZDRqA5qAUD8Cp_PL-239" value="&lt;p style=&quot;line-height: 100%;&quot;&gt;&lt;br&gt;&lt;/p&gt;" style="rounded=0;whiteSpace=wrap;html=1;fontSize=20;fontFamily=GOSTRUS Type A;fontStyle=2;fillColor=none;labelPosition=center;verticalLabelPosition=middle;align=center;verticalAlign=middle;" vertex="1" parent="-3bvXb9xsOaprucixAK7-1">
          <mxGeometry x="919.8770000000001" y="-195.07299999999998" width="56.18" height="90.55" as="geometry" />
        </mxCell>
        <mxCell id="4rB_ZDRqA5qAUD8Cp_PL-240" value="&lt;div style=&quot;text-align: center;&quot;&gt;&lt;span style=&quot;background-color: initial; font-size: 20px;&quot;&gt;&lt;font face=&quot;GOSTRUS Type A&quot;&gt;&lt;span&gt;POWER&lt;/span&gt;&lt;/font&gt;&lt;/span&gt;&lt;/div&gt;" style="text;whiteSpace=wrap;html=1;fontStyle=2" vertex="1" parent="-3bvXb9xsOaprucixAK7-1">
          <mxGeometry x="922.8570000000001" y="-202.84299999999996" width="49.24" height="37.37" as="geometry" />
        </mxCell>
        <mxCell id="4rB_ZDRqA5qAUD8Cp_PL-241" value="&lt;p style=&quot;line-height: 95%;&quot;&gt;&lt;font style=&quot;font-size: 14px;&quot;&gt;интерфейс IWDG&lt;/font&gt;&lt;/p&gt;" style="rounded=0;whiteSpace=wrap;html=1;fontSize=20;fontFamily=GOSTRUS Type A;fontStyle=2;rotation=-90;fillColor=none;" vertex="1" parent="-3bvXb9xsOaprucixAK7-1">
          <mxGeometry x="821.447" y="-20.302999999999997" width="55.11" height="38.77" as="geometry" />
        </mxCell>
        <mxCell id="4rB_ZDRqA5qAUD8Cp_PL-242" value="&lt;p style=&quot;line-height: 100%;&quot;&gt;Внутренний тактовый генератор&lt;/p&gt;" style="rounded=0;whiteSpace=wrap;html=1;fontSize=20;fontFamily=GOSTRUS Type A;fontStyle=2;fillColor=none;" vertex="1" parent="-3bvXb9xsOaprucixAK7-1">
          <mxGeometry x="850.527" y="-35.742999999999995" width="117.64" height="69.66" as="geometry" />
        </mxCell>
        <mxCell id="4rB_ZDRqA5qAUD8Cp_PL-243" value="" style="endArrow=open;startArrow=open;html=1;rounded=0;endFill=0;startFill=0;fontStyle=2" edge="1" parent="-3bvXb9xsOaprucixAK7-1">
          <mxGeometry width="50" height="50" relative="1" as="geometry">
            <mxPoint x="791.047" y="-1.7760000000000034" as="sourcePoint" />
            <mxPoint x="829.047" y="-1.2830000000000013" as="targetPoint" />
          </mxGeometry>
        </mxCell>
        <mxCell id="4rB_ZDRqA5qAUD8Cp_PL-244" value="&lt;font style=&quot;font-size: 16px;&quot;&gt;Trace/trig&lt;/font&gt;" style="rounded=0;whiteSpace=wrap;html=1;fontSize=16;fontFamily=GOSTRUS Type A;fontStyle=2;align=right;" vertex="1" parent="-3bvXb9xsOaprucixAK7-1">
          <mxGeometry x="511.857" y="-238.37300000000002" width="102.36" height="31.49" as="geometry" />
        </mxCell>
        <mxCell id="4rB_ZDRqA5qAUD8Cp_PL-245" value="&lt;font style=&quot;font-size: 13px;&quot;&gt;TPIU&lt;/font&gt;" style="rounded=0;whiteSpace=wrap;html=1;fontSize=13;fontFamily=GOSTRUS Type A;fontStyle=2;align=center;" vertex="1" parent="-3bvXb9xsOaprucixAK7-1">
          <mxGeometry x="511.857" y="-238.37300000000002" width="45.81" height="15.74" as="geometry" />
        </mxCell>
        <mxCell id="4rB_ZDRqA5qAUD8Cp_PL-246" value="&lt;font style=&quot;font-size: 13px;&quot;&gt;SW/JTAG&lt;/font&gt;" style="rounded=0;whiteSpace=wrap;html=1;fontSize=13;fontFamily=GOSTRUS Type A;fontStyle=2;align=center;" vertex="1" parent="-3bvXb9xsOaprucixAK7-1">
          <mxGeometry x="511.85400000000004" y="-222.62599999999995" width="45.81" height="15.74" as="geometry" />
        </mxCell>
      </root>
    </mxGraphModel>
  </diagram>
</mxfile>
